<?xml version="1.0" encoding="utf-8"?>
<!-- Generator: Adobe Illustrator 20.0.0, SVG Export Plug-In . SVG Version: 6.00 Build 0)  -->
<svg version="1.1" id="Layer_1" xmlns:sketch="http://www.bohemiancoding.com/sketch/ns"
	 xmlns="http://www.w3.org/2000/svg" xmlns:xlink="http://www.w3.org/1999/xlink" x="0px" y="0px" viewBox="0 0 376 148"
	 enable-background="new 0 0 376 148" xml:space="preserve">
<title>dirt</title>
<desc>Created with Sketch.</desc>
<g id="Page-1" sketch:type="MSPage" display="none">
	<g id="dirt" transform="translate(-0.003290, 0.157900)" sketch:type="MSLayerGroup" display="inline">
		
			<linearGradient id="Shape_20_" gradientUnits="userSpaceOnUse" x1="-3800.7288" y1="2557.9119" x2="-3799.7288" y2="2557.9119" gradientTransform="matrix(371.1563 0 0 -147.5939 1410664.25 377606)">
			<stop  offset="0" style="stop-color:#593D09"/>
			<stop  offset="1" style="stop-color:#7F5200"/>
		</linearGradient>
		<path id="Shape" sketch:type="MSShapeGroup" fill="url(#Shape_20_)" d="M273.2,0.1c-4,0-7.7,1.3-10.6,3.4c-2.3-1.1-5-1.8-7.8-1.8
			c-9.2,0-16.6,6.6-16.6,14.7c0,1.6,0.3,3.1,0.8,4.6c-2.6,2.6-4.2,6-4.2,9.7c0,1.3,0.2,2.5,0.5,3.7c-1.5,0.4-2.9,1-4.1,1.8
			c-2.5,1.1-4.6,2.8-6.2,4.8c0,0,0,0,0,0c-1.5,0.6-3,1.2-4.4,1.9c-2.6-6.1-7.6-10.5-13.6-11.5c-3.1-2.8-6.9-4.4-11.1-4.4
			c-4,0-7.6,1.5-10.6,4c-2.8-2-6-3.2-9.5-3.2c-9.5,0-17.3,8.5-18.2,19.4c-1.7-0.6-3.5-0.9-5.3-0.9c-5.6,0-10.6,3-14,7.6
			c-0.9,0-1.9-0.1-2.8-0.1c-2.9,0-5.8,0.2-8.5,0.7c-3.2-6.4-9.1-10.7-15.8-10.7c-7.7,0-14.2,5.5-16.9,13.4
			c-2.9-7.4-9.2-12.6-16.6-12.6c-5.6,0-10.6,2.9-13.9,7.6c-2.2-1.1-4.6-1.7-7.1-1.7c-7.5,0-14,5.4-16.8,13c-2.7-1.9-5.8-2.9-9.2-2.9
			c-6.8,0-12.7,4.3-15.8,10.8c-1.3-0.7-2.8-1.1-4.3-1.1C4.8,70.2,0,75.8,0,82.7s4.8,12.5,10.7,12.5c1.8,0,3.5-0.5,5-1.4
			c0.1,0.1,0.2,0.2,0.2,0.3c1.4,4,4.5,7,8.3,7.7c2.1,0.9,4.3,1.5,6.6,1.5c3.3,0,6.3-1,9-2.8c1.3,5.2,5.4,9.1,10.3,9.1
			c0.8,0,1.5-0.1,2.3-0.3c2.3,1.1,4.9,1.8,7.6,1.8c2.3,0,4.5-0.5,6.5-1.3c1.9,2,4.4,3.2,7.1,3.2c3.4,0,6.4-1.9,8.4-4.8
			c4.4,7.9,16.1,13.7,30.2,14.4c1.8,3.8,5.3,6.3,9.3,6.3c3.6,0,6.7-2,8.7-5.2c1,1.1,2.1,2.1,3.4,3.1c0.8,6,5.2,10.5,10.6,10.5
			c2.9,0,5.5-1.3,7.4-3.5l0.3,0c1.6,4.5,5.4,7.7,9.9,7.7c1.3,0,2.5-0.3,3.7-0.8c6.3,4.3,15.5,7.1,25.7,7.1
			c13.5,0,25.2-4.8,30.9-11.8c0.8,0,1.6-0.1,2.3-0.2c2.1,0.9,4.5,1.5,7,1.5c6.9,0,12.8-3.9,15.3-9.3c0.4-0.3,0.8-0.6,1.2-1
			c0.9,0.1,1.8,0.3,2.8,0.3c1.4,0,2.8-0.2,4.2-0.5c1.8,3.8,5.3,6.3,9.3,6.3c4.3,0,8-3,9.7-7.3c0.9,0.1,1.9,0.2,2.8,0.2
			c3.2,0,6.1-0.8,8.6-2.2c1.9,2.1,4.5,3.4,7.3,3.4c4.5,0,8.4-3.3,10-8c0.4,0,0.9,0.1,1.3,0.1c1.1,0,2.2-0.2,3.3-0.4
			c1.8,1.6,4,2.5,6.4,2.5c4.4,0,8.2-3.1,9.8-7.6c2.5,1.4,5.5,2.2,8.6,2.2c6.4,0,12-3.3,14.8-8.2c1.9,0.7,4,1.1,6.2,1.1
			c9.2,0,16.6-6.8,16.6-15.1c0-1-0.1-1.9-0.3-2.9c1.3-2.1,2-4.6,2-7.2c0-4.9-2.5-9.2-6.5-11.9c0.4-1.3,0.6-2.6,0.6-4
			c0-8.3-7.4-15.1-16.6-15.1c-0.8,0-1.6,0.1-2.4,0.2c0.3-1.1,0.5-2.3,0.5-3.5c0-8.1-7.4-14.7-16.6-14.7c-0.3,0-0.5,0-0.8,0
			c-1.8-3.8-5.3-6.3-9.3-6.3c-1.5,0-3,0.4-4.3,1.1c-4.1-7-14-12.3-26.1-13.8c0-0.3,0.1-0.5,0.1-0.8C289.8,6.7,282.4,0.1,273.2,0.1
			L273.2,0.1z M314.9,54.8c0.6,1.3,1.5,2.5,2.5,3.6c-0.9-0.1-1.9-0.2-2.8-0.3c0.2-1,0.3-2,0.3-3.1C314.9,55,314.9,54.9,314.9,54.8
			L314.9,54.8z M278.4,57.8c1.2,0.1,2.5,0.2,3.8,0.2c0.2,0.7,0.4,1.4,0.7,2c-1.4-0.7-3-1.3-4.6-1.8C278.3,58,278.3,57.9,278.4,57.8
			L278.4,57.8z"/>
		
			<linearGradient id="Shape_25_" gradientUnits="userSpaceOnUse" x1="-3792.2175" y1="2557.9119" x2="-3791.2175" y2="2557.9119" gradientTransform="matrix(202.9375 0 0 -147.5938 769751.75 377605.8438)">
			<stop  offset="0" style="stop-color:#563B09"/>
			<stop  offset="1" style="stop-color:#291D04"/>
		</linearGradient>
		<path id="Shape_1_" sketch:type="MSShapeGroup" fill="url(#Shape_25_)" d="M273.6,0.2c-4,0-7.7,1.3-10.6,3.4
			c-2.3-1.1-5-1.8-7.8-1.8c-1.4,0-2.7,0.2-4,0.5c2.9,2.2,5.7,4.6,8.2,6.9c11.3,1.2,20.1,10.3,20.1,21.2c0,2.4-0.4,4.7-1.2,6.8
			c1.6,5,2.5,10.2,2.5,15.4c0,0,0,0,0,0.1c4.5,3.9,7.2,9.5,7.2,15.6c0,11.7-10,21.2-22.4,21.4c-0.4,0.4-0.8,0.9-1.2,1.3
			c1,2.1,1.5,4.5,1.5,6.8c0,11.8-12.8,21.4-28.7,21.4c-1.4,0-2.8-0.1-4.2-0.2c-2.4,10.3-16.8,18.3-34.3,18.3c-6.1,0-11.8-1-16.8-2.7
			c-3.3,3.8-8,6.6-13.5,7.7c6.1,3.3,14.1,5.3,22.8,5.3c13.5,0,25.2-4.8,30.9-11.8c0.8,0,1.6-0.1,2.3-0.2c2.1,0.9,4.5,1.5,7,1.5
			c6.9,0,12.8-3.9,15.3-9.3c0.4-0.3,0.8-0.6,1.2-1c0.9,0.1,1.8,0.3,2.8,0.3c1.4,0,2.8-0.2,4.2-0.5c1.8,3.8,5.3,6.3,9.3,6.3
			c4.3,0,8-3,9.7-7.3c0.9,0.1,1.9,0.2,2.8,0.2c3.2,0,6.1-0.8,8.6-2.2c1.9,2.1,4.5,3.4,7.3,3.4c4.5,0,8.4-3.3,10-8
			c0.4,0,0.9,0.1,1.3,0.1c1.1,0,2.2-0.2,3.3-0.4c1.8,1.6,4,2.5,6.4,2.5c4.4,0,8.2-3.1,9.8-7.6c2.5,1.4,5.5,2.2,8.6,2.2
			c6.4,0,12-3.3,14.8-8.2c1.9,0.7,4,1.1,6.2,1.1c9.2,0,16.6-6.8,16.6-15.1c0-1-0.1-1.9-0.3-2.9c1.3-2.1,2-4.6,2-7.2
			c0-4.9-2.5-9.2-6.5-11.9c0.4-1.3,0.6-2.6,0.6-4c0-8.3-7.4-15.1-16.6-15.1c-0.8,0-1.6,0.1-2.4,0.2c0.3-1.1,0.5-2.3,0.5-3.5
			c0-8.1-7.4-14.7-16.6-14.7c-0.3,0-0.5,0-0.8,0c-1.8-3.8-5.3-6.3-9.3-6.3c-1.5,0-3,0.4-4.3,1.1c-4.1-7-14-12.3-26.1-13.8
			c0-0.3,0.1-0.5,0.1-0.8C290.2,6.8,282.8,0.2,273.6,0.2L273.6,0.2z M315.4,54.9c0.6,1.3,1.5,2.5,2.5,3.6c-0.9-0.1-1.9-0.2-2.8-0.3
			c0.2-1,0.3-2,0.3-3.1C315.4,55.1,315.4,55,315.4,54.9L315.4,54.9z"/>
		<path id="Shape_2_" sketch:type="MSShapeGroup" fill="#734B02" stroke="#000000" stroke-width="1.0663" d="M161.4,114.5
			c1.5,0,2.8,0.4,4,1.1h0.1c4,0,7.3,3.2,7.5,7.1c0,0.1,0,0.3,0,0.4c0,1.1-0.2,2.1-0.7,3.1c0.8,1.2,1.3,2.6,1.3,4.2
			c0,0.1,0,0.3,0,0.4c-0.2,4-3.5,7.1-7.5,7.1c-0.4,0-0.8,0-1.2-0.1c-1.2,0.8-2.6,1.2-4.1,1.2c-1.5,0-2.8-0.4-4-1.1
			c-0.1,0-0.3,0-0.4,0c-4.2,0-7.5-3.4-7.5-7.5c0-1.1,0.2-2.1,0.7-3.1c-0.8-1.2-1.3-2.6-1.3-4.2c0-4.2,3.4-7.5,7.5-7.5
			c0.5,0,1,0,1.5,0.1C158.4,115,159.9,114.5,161.4,114.5L161.4,114.5z"/>
		<path id="Shape_3_" sketch:type="MSShapeGroup" fill="#3B2906" d="M163.3,116.9c1.5,0,2.8,0.4,4,1.1h0.1c4,0,7.3,3.2,7.5,7.1
			c0,0.1,0,0.3,0,0.4c0,1.1-0.2,2.1-0.7,3.1c0.8,1.2,1.3,2.6,1.3,4.2c0,0.1,0,0.3,0,0.4c-0.2,4-3.5,7.1-7.5,7.1
			c-0.4,0-0.8,0-1.2-0.1c-1.2,0.8-2.6,1.2-4.1,1.2c-1.5,0-2.8-0.4-4-1.1c-0.1,0-0.3,0-0.4,0c-4.2,0-7.5-3.4-7.5-7.5
			c0-1.1,0.2-2.1,0.7-3.1c-0.8-1.2-1.3-2.6-1.3-4.2c0-4.2,3.4-7.5,7.5-7.5c0.5,0,1,0,1.5,0.1C160.3,117.4,161.8,116.9,163.3,116.9
			L163.3,116.9z"/>
		<path id="Shape_4_" sketch:type="MSShapeGroup" fill="#734B02" stroke="#000000" stroke-width="1.0663" d="M244.5,114
			c1.5,0,2.8,0.4,4,1.1h0.1c4,0,7.3,3.2,7.5,7.1c0,0.1,0,0.3,0,0.4c0,1.1-0.2,2.1-0.7,3.1c0.8,1.2,1.3,2.6,1.3,4.2
			c0,0.1,0,0.3,0,0.4c-0.2,4-3.5,7.1-7.5,7.1c-0.4,0-0.8,0-1.2-0.1c-1.2,0.8-2.6,1.2-4.1,1.2c-1.5,0-2.8-0.4-4-1.1
			c-0.1,0-0.3,0-0.4,0c-4.2,0-7.5-3.4-7.5-7.5c0-1.1,0.2-2.1,0.7-3.1c-0.8-1.2-1.3-2.6-1.3-4.2c0-4.2,3.4-7.5,7.5-7.5
			c0.5,0,1,0,1.5,0.1C241.5,114.5,243,114,244.5,114L244.5,114z"/>
		<path id="Shape_5_" sketch:type="MSShapeGroup" fill="#3B2906" d="M246.4,116.4c1.5,0,2.8,0.4,4,1.1h0.1c4,0,7.3,3.2,7.5,7.1
			c0,0.1,0,0.3,0,0.4c0,1.1-0.2,2.1-0.7,3.1c0.8,1.2,1.3,2.6,1.3,4.2c0,0.1,0,0.3,0,0.4c-0.2,4-3.5,7.1-7.5,7.1
			c-0.4,0-0.8,0-1.2-0.1c-1.2,0.8-2.6,1.2-4.1,1.2c-1.5,0-2.8-0.4-4-1.1c-0.1,0-0.3,0-0.4,0c-4.2,0-7.5-3.4-7.5-7.5
			c0-1.1,0.2-2.1,0.7-3.1c-0.8-1.2-1.3-2.6-1.3-4.2c0-4.2,3.4-7.5,7.5-7.5c0.5,0,1,0,1.5,0.1C243.4,116.9,244.9,116.4,246.4,116.4
			L246.4,116.4z"/>
		<path id="Shape_6_" sketch:type="MSShapeGroup" fill="#734B02" stroke="#000000" stroke-width="1.645" d="M353.5,67.4
			c2.2,0,4.3,0.7,6.1,1.7h0.2c6.2,0,11.3,4.9,11.6,11c0,0.2,0,0.4,0,0.6c0,1.7-0.4,3.3-1,4.7c1.2,1.8,2,4.1,2,6.4c0,0.2,0,0.4,0,0.6
			c-0.3,6.1-5.4,11-11.6,11c-0.6,0-1.2,0-1.8-0.1c-1.8,1.2-4,1.9-6.3,1.9c-2.3,0-4.4-0.6-6.2-1.8c-0.2,0-0.5,0-0.7,0
			c-6.4,0-11.6-5.2-11.6-11.6c0-1.7,0.4-3.3,1-4.7c-1.2-1.8-2-4-2-6.4c0-6.4,5.2-11.6,11.6-11.6c0.8,0,1.5,0.1,2.3,0.2
			C348.8,68.1,351.1,67.4,353.5,67.4L353.5,67.4z"/>
		<path id="Shape_7_" sketch:type="MSShapeGroup" fill="#3B2906" d="M356.4,71.1c2.2,0,4.3,0.7,6.1,1.7h0.2c6.2,0,11.3,4.9,11.6,11
			c0,0.2,0,0.4,0,0.6c0,1.7-0.4,3.3-1,4.7c1.2,1.8,2,4.1,2,6.4c0,0.2,0,0.4,0,0.6c-0.3,6.1-5.4,11-11.6,11c-0.6,0-1.2,0-1.8-0.1
			c-1.8,1.2-4,1.9-6.3,1.9c-2.3,0-4.4-0.6-6.2-1.8c-0.2,0-0.5,0-0.7,0c-6.4,0-11.6-5.2-11.6-11.6c0-1.7,0.4-3.3,1-4.7
			c-1.2-1.8-2-4-2-6.4c0-6.4,5.2-11.6,11.6-11.6c0.8,0,1.5,0.1,2.3,0.2C351.8,71.8,354,71.1,356.4,71.1L356.4,71.1z"/>
		<path id="Shape_8_" sketch:type="MSShapeGroup" fill="#734B02" stroke="#000000" stroke-width="1.1307" d="M303.2,46.9
			c1.5,0,3,0.4,4.2,1.2h0.1c4.3,0,7.8,3.3,8,7.6c0,0.1,0,0.3,0,0.4c0,1.2-0.3,2.2-0.7,3.2c0.9,1.3,1.3,2.8,1.3,4.4
			c0,0.1,0,0.3,0,0.4c-0.2,4.2-3.7,7.6-8,7.6c-0.4,0-0.8,0-1.2-0.1c-1.3,0.8-2.8,1.3-4.4,1.3c-1.6,0-3-0.4-4.2-1.2
			c-0.2,0-0.3,0-0.5,0c-4.4,0-8-3.6-8-8c0-1.2,0.3-2.3,0.7-3.3c-0.9-1.3-1.4-2.8-1.4-4.4c0-4.4,3.6-8,8-8c0.5,0,1.1,0.1,1.6,0.2
			C300,47.4,301.6,46.9,303.2,46.9L303.2,46.9z"/>
		<path id="Shape_9_" sketch:type="MSShapeGroup" opacity="0.8025" fill="#3B2906" enable-background="new    " d="M306.9,51.2
			c1.5,0,3,0.4,4.2,1.2h0.1c4.3,0,7.8,3.3,8,7.6c0,0.1,0,0.3,0,0.4c0,1.2-0.3,2.2-0.7,3.2c0.9,1.3,1.3,2.8,1.3,4.4
			c0,0.1,0,0.3,0,0.4c-0.2,4.2-3.7,7.6-8,7.6c-0.4,0-0.8,0-1.2-0.1c-1.3,0.8-2.8,1.3-4.4,1.3c-1.6,0-3-0.4-4.2-1.2
			c-0.2,0-0.3,0-0.5,0c-4.4,0-8-3.6-8-8c0-1.2,0.3-2.3,0.7-3.3c-0.9-1.3-1.4-2.8-1.4-4.4c0-4.4,3.6-8,8-8c0.5,0,1.1,0.1,1.6,0.2
			C303.7,51.7,305.3,51.2,306.9,51.2L306.9,51.2z"/>
		<path id="Shape_10_" sketch:type="MSShapeGroup" fill="#734B02" stroke="#000000" stroke-width="1.0663" d="M31.5,80.4
			c1.5,0,2.8,0.4,4,1.1h0.1c4,0,7.3,3.2,7.5,7.1c0,0.1,0,0.3,0,0.4c0,1.1-0.2,2.1-0.7,3.1c0.8,1.2,1.3,2.6,1.3,4.2
			c0,0.1,0,0.3,0,0.4c-0.2,4-3.5,7.1-7.5,7.1c-0.4,0-0.8,0-1.2-0.1c-1.2,0.8-2.6,1.2-4.1,1.2c-1.5,0-2.8-0.4-4-1.1
			c-0.1,0-0.3,0-0.4,0c-4.2,0-7.5-3.4-7.5-7.5c0-1.1,0.2-2.1,0.7-3.1c-0.8-1.2-1.3-2.6-1.3-4.2c0-4.2,3.4-7.5,7.5-7.5
			c0.5,0,1,0,1.5,0.1C28.5,80.9,29.9,80.4,31.5,80.4L31.5,80.4z"/>
		<path id="Shape_11_" sketch:type="MSShapeGroup" fill="#3B2906" d="M33.4,82.9c1.5,0,2.8,0.4,4,1.1h0.1c4,0,7.3,3.2,7.5,7.1
			c0,0.1,0,0.3,0,0.4c0,1.1-0.2,2.1-0.7,3.1c0.8,1.2,1.3,2.6,1.3,4.2c0,0.1,0,0.3,0,0.4c-0.2,4-3.5,7.1-7.5,7.1
			c-0.4,0-0.8,0-1.2-0.1c-1.2,0.8-2.6,1.2-4.1,1.2c-1.5,0-2.8-0.4-4-1.1c-0.1,0-0.3,0-0.4,0c-4.2,0-7.5-3.4-7.5-7.5
			c0-1.1,0.2-2.1,0.7-3.1c-0.8-1.2-1.3-2.6-1.3-4.2c0-4.2,3.4-7.5,7.5-7.5c0.5,0,1,0,1.5,0.1C30.4,83.3,31.8,82.9,33.4,82.9
			L33.4,82.9z"/>
		<path id="Shape_12_" sketch:type="MSShapeGroup" fill="#734B02" stroke="#000000" stroke-width="1.0663" d="M108.7,85.5
			c1.5,0,2.8,0.4,4,1.1h0.1c4,0,7.3,3.2,7.5,7.1c0,0.1,0,0.3,0,0.4c0,1.1-0.2,2.1-0.7,3.1c0.8,1.2,1.3,2.6,1.3,4.2
			c0,0.1,0,0.3,0,0.4c-0.2,4-3.5,7.1-7.5,7.1c-0.4,0-0.8,0-1.2-0.1c-1.2,0.8-2.6,1.2-4.1,1.2c-1.5,0-2.8-0.4-4-1.1
			c-0.1,0-0.3,0-0.4,0c-4.2,0-7.5-3.4-7.5-7.5c0-1.1,0.2-2.1,0.7-3.1c-0.8-1.2-1.3-2.6-1.3-4.2c0-4.2,3.4-7.5,7.5-7.5
			c0.5,0,1,0,1.5,0.1C105.7,86,107.1,85.5,108.7,85.5L108.7,85.5z"/>
		<path id="Shape_13_" sketch:type="MSShapeGroup" fill="#3B2906" fill-opacity="0.507" d="M110.6,87.9c1.5,0,2.8,0.4,4,1.1h0.1
			c4,0,7.3,3.2,7.5,7.1c0,0.1,0,0.3,0,0.4c0,1.1-0.2,2.1-0.7,3.1c0.8,1.2,1.3,2.6,1.3,4.2c0,0.1,0,0.3,0,0.4c-0.2,4-3.5,7.1-7.5,7.1
			c-0.4,0-0.8,0-1.2-0.1c-1.2,0.8-2.6,1.2-4.1,1.2c-1.5,0-2.8-0.4-4-1.1c-0.1,0-0.3,0-0.4,0c-4.2,0-7.5-3.4-7.5-7.5
			c0-1.1,0.2-2.1,0.7-3.1c-0.8-1.2-1.3-2.6-1.3-4.2c0-4.2,3.4-7.5,7.5-7.5c0.5,0,1,0,1.5,0.1C107.6,88.4,109,87.9,110.6,87.9
			L110.6,87.9z"/>
		<path id="Shape_14_" sketch:type="MSShapeGroup" fill="#734B02" stroke="#000000" stroke-width="0.8479" d="M273,76.1
			c1.5,0,2.8,0.3,4,0.7h0.1c4.1,0,7.4,2,7.6,4.5c0,0.1,0,0.2,0,0.2c0,0.7-0.2,1.3-0.7,1.9c0.8,0.8,1.3,1.6,1.3,2.6
			c0,0.1,0,0.2,0,0.2c-0.2,2.5-3.5,4.5-7.6,4.5c-0.4,0-0.8,0-1.2-0.1c-1.2,0.5-2.6,0.8-4.1,0.8c-1.5,0-2.9-0.3-4-0.7
			c-0.1,0-0.3,0-0.4,0c-4.2,0-7.6-2.1-7.6-4.7c0-0.7,0.2-1.3,0.7-1.9c-0.8-0.7-1.3-1.6-1.3-2.6c0-2.6,3.4-4.7,7.6-4.7
			c0.5,0,1,0,1.5,0.1C270,76.4,271.5,76.1,273,76.1L273,76.1z"/>
		<path id="Shape_15_" sketch:type="MSShapeGroup" fill="#3B2906" fill-opacity="0.507" d="M275,77.7c1.5,0,2.8,0.3,4,0.7h0.1
			c4.1,0,7.4,2,7.6,4.5c0,0.1,0,0.2,0,0.2c0,0.7-0.2,1.3-0.7,1.9c0.8,0.8,1.3,1.6,1.3,2.6c0,0.1,0,0.2,0,0.2
			c-0.2,2.5-3.5,4.5-7.6,4.5c-0.4,0-0.8,0-1.2-0.1c-1.2,0.5-2.6,0.8-4.1,0.8c-1.5,0-2.9-0.3-4-0.7c-0.1,0-0.3,0-0.4,0
			c-4.2,0-7.6-2.1-7.6-4.7c0-0.7,0.2-1.3,0.7-1.9c-0.8-0.7-1.3-1.6-1.3-2.6c0-2.6,3.4-4.7,7.6-4.7c0.5,0,1,0,1.5,0.1
			C271.9,77.9,273.4,77.7,275,77.7L275,77.7z"/>
		<path id="Shape_16_" sketch:type="MSShapeGroup" fill="#734B02" stroke="#000000" stroke-width="0.8479" d="M81.8,46
			c1.5,0,2.8,0.3,4,0.7h0.1c4.1,0,7.4,2,7.6,4.5c0,0.1,0,0.2,0,0.2c0,0.7-0.2,1.3-0.7,1.9C93.6,54.1,94,55,94,56c0,0.1,0,0.2,0,0.2
			c-0.2,2.5-3.5,4.5-7.6,4.5c-0.4,0-0.8,0-1.2-0.1c-1.2,0.5-2.6,0.8-4.1,0.8c-1.5,0-2.9-0.3-4-0.7c-0.1,0-0.3,0-0.4,0
			c-4.2,0-7.6-2.1-7.6-4.7c0-0.7,0.2-1.3,0.7-1.9c-0.8-0.7-1.3-1.6-1.3-2.6c0-2.6,3.4-4.7,7.6-4.7c0.5,0,1,0,1.5,0.1
			C78.7,46.3,80.2,46,81.8,46L81.8,46z"/>
		<path id="Shape_17_" sketch:type="MSShapeGroup" fill="#3B2906" fill-opacity="0.507" d="M83.7,47.5c1.5,0,2.8,0.3,4,0.7h0.1
			c4.1,0,7.4,2,7.6,4.5c0,0.1,0,0.2,0,0.2c0,0.7-0.2,1.3-0.7,1.9c0.8,0.8,1.3,1.6,1.3,2.6c0,0.1,0,0.2,0,0.2
			c-0.2,2.5-3.5,4.5-7.6,4.5c-0.4,0-0.8,0-1.2-0.1c-1.2,0.5-2.6,0.8-4.1,0.8c-1.5,0-2.9-0.3-4-0.7c-0.1,0-0.3,0-0.4,0
			c-4.2,0-7.6-2.1-7.6-4.7c0-0.7,0.2-1.3,0.7-1.9c-0.8-0.7-1.3-1.6-1.3-2.6c0-2.6,3.4-4.7,7.6-4.7c0.5,0,1,0,1.5,0.1
			C80.7,47.8,82.1,47.5,83.7,47.5L83.7,47.5z"/>
		<path id="Shape_18_" sketch:type="MSShapeGroup" fill="#734B02" stroke="#000000" stroke-width="1.3064" d="M206.6,62.5
			c2.3,0,4.4,0.4,6.1,1.1h0.2c6.3,0,11.4,3.1,11.7,6.9c0,0.1,0,0.3,0,0.4c0,1.1-0.4,2-1,3c1.2,1.2,2,2.5,2,4c0,0.1,0,0.3,0,0.4
			c-0.3,3.8-5.4,6.9-11.7,6.9c-0.6,0-1.2,0-1.8-0.1c-1.8,0.7-4,1.2-6.4,1.2c-2.3,0-4.4-0.4-6.2-1.1c-0.2,0-0.5,0-0.7,0
			c-6.5,0-11.7-3.3-11.7-7.3c0-1.1,0.4-2.1,1-3c-1.2-1.2-2-2.5-2-4c0-4,5.2-7.3,11.7-7.3c0.8,0,1.6,0,2.3,0.1
			C201.9,63,204.2,62.5,206.6,62.5L206.6,62.5z"/>
		<path id="Shape_19_" sketch:type="MSShapeGroup" fill="#3B2906" fill-opacity="0.507" d="M209.5,64.8c2.3,0,4.4,0.4,6.1,1.1h0.2
			c6.3,0,11.4,3.1,11.7,6.9c0,0.1,0,0.3,0,0.4c0,1.1-0.4,2-1,3c1.2,1.2,2,2.5,2,4c0,0.1,0,0.3,0,0.4c-0.3,3.8-5.4,6.9-11.7,6.9
			c-0.6,0-1.2,0-1.8-0.1c-1.8,0.7-4,1.2-6.4,1.2c-2.3,0-4.4-0.4-6.2-1.1c-0.2,0-0.5,0-0.7,0c-6.5,0-11.7-3.3-11.7-7.3
			c0-1.1,0.4-2.1,1-3c-1.2-1.2-2-2.5-2-4c0-4,5.2-7.3,11.7-7.3c0.8,0,1.6,0,2.3,0.1C204.9,65.3,207.1,64.8,209.5,64.8L209.5,64.8z"
			/>
	</g>
</g>
<g>
	<ellipse fill="#C6C2AF" cx="75.8" cy="103.2" rx="72.7" ry="19.1"/>
	<g>
		<path fill="#6BA543" d="M24.4,103.2c0,0-11.1-37.6-2.6-50.3c8.5-12.6,25.2-11.2,30.7,2.1c0,0,1.6-13.7,13.5-16
			c11.9-2.3,15.4,12.5,15.6,18.4c0,0,9.5-10.5,20.4-8.8c10.9,1.8,13.5,14.4,11.4,18.9c0,0,28.5,0.5,18,35.5H24.4z"/>
		<path fill="#83C451" d="M29.7,62.4c9.2-7.7,21.5,3.6,21.5,3.6S55.8,51.8,66,52.5c10.2,0.7,14.8,13.9,14.8,13.9s12.3-9.7,21.5-2
			c9.2,7.7,8.1,15.8,8.1,15.8s22.5-2.5,21.1,23c10.4-35.1-18-35.5-18-35.5c2.1-4.6-0.5-17.2-11.4-18.9c-10.9-1.8-20.4,8.8-20.4,8.8
			c-0.3-6-3.7-20.7-15.6-18.4c-11.9,2.3-13.5,16-13.5,16C46.9,41.7,30.2,40.3,21.7,53c-8.5,12.6,2.6,50.3,2.6,50.3
			S20.4,70,29.7,62.4z"/>
	</g>
</g>
<g>
	<ellipse fill="#C6C2AF" cx="284.7" cy="106.4" rx="87.3" ry="18.7"/>
	<g>
		<path fill="#B4CB34" d="M214.9,106.4c0,0-22.5-13.4-8.9-38.8c13.6-25.4,40.1-5.2,40.1-5.2s10.3-54.5,69-44
			c58.7,10.4,37.6,88,37.6,88H214.9z"/>
		<path fill="#D3E240" d="M214.9,76.5c9.7-10.5,34.3-2,34.3-2s11-31.4,27.8-38.8c16.8-7.5,45.5-14.4,62.2,7.5
			c11.9,15.6,15.6,34.5,16.8,44.1c2.2-23.7-0.9-61.8-40.8-68.9c-58.7-10.4-69,44-69,44s-26.5-20.1-40.1,5.2
			c-13.6,25.4,8.9,38.8,8.9,38.8S205.3,86.9,214.9,76.5z"/>
	</g>
</g>
<g>
	<ellipse fill="#C6C2AF" cx="187.4" cy="101.4" rx="94.7" ry="18"/>
	<g>
		<path fill="#4B823D" d="M112.6,101.4c0,0-22.4-5.4-13.6-23.9c8.8-18.5,27.9-6,27.9-6s-19-13.7-4.1-25.7c15-11.9,19,14.3,19,14.3
			s-7.5-31.7,25.2-37c32.6-5.4,42.2,35.8,42.2,35.8s3.4-31.1,18.4-32.3c15-1.2,0,28.1,0,28.1s18.3-25.1,45.2-7.2
			c26.9,17.9-5.7,53.8-5.7,53.8H112.6z"/>
		<g>
			<path fill="#6FB259" d="M109.7,83.4c3.6-8.4,24.3-6,24.3-6s-10.8-20.2-6.5-22.6S145,67.2,145,67.2s-1.8-20.7,10.9-29.3
				c12.7-8.7,36.2-0.8,49.3,24.1c0,0,1.5-1.9,3.6-4.1c-1.7-6.3-12.3-39.7-41.9-34.8c-28.7,4.7-26.4,29.7-25.4,35.7
				c-1.1-5.1-5.9-23.4-18.8-13c-15,11.9,4.1,25.7,4.1,25.7s-19-12.5-27.9,6c-8.8,18.5,13.6,23.9,13.6,23.9S106.1,91.8,109.7,83.4z"
				/>
			<path fill="#6FB259" d="M272.7,47.6c-26.9-17.9-45.2,7.2-45.2,7.2s15-29.3,0-28.1c-13,1-17.3,24.6-18.2,30.8
				c3.4-3.4,8.1-7.2,10.7-5.2c4.4,3.4,2.7,13,2.7,13s18.6-17.3,33.4-10.6s10.8,46.7,10.8,46.7S299.6,65.6,272.7,47.6z"/>
		</g>
	</g>
</g>
<g display="none">
	<ellipse display="inline" fill="#C6C2AF" cx="166.5" cy="109.5" rx="84.3" ry="19.8"/>
	<g display="inline">
		<path fill="#94C85B" d="M113.5,109.5c0,0-32-14-7.8-34.1c0,0-28.5-25.4-9.1-41.7c19.4-16.4,39.6,10.9,39.6,10.9S118.6,19,143,13.7
			C167.8,8.2,163.6,40,163.6,40s3.8-36,31-20.4c24.7,14.1,15.7,36.3-2.2,39.5c0,0,26.2-8.6,30.5,8.2C227.3,84,202.8,89,202.8,89
			s28.3-6.4,32.7,7.3c4.4,13.6-29.4,13.2-29.4,13.2H113.5z"/>
		<path fill="#B4E573" d="M107.7,83c7.6-10.6,11.7-11.6,11.7-11.6s-14.8-9.5-14-20.6c0.8-11.1,31.7,3.7,31.7,3.7s-2.6-22.2,9.6-24.3
			c12.2-2.1,16.1,16.9,16.1,16.9s8.7-20.6,19.4-19.5c10.6,1.1,22.8,17.1,6.6,33.7c0,0,19.7-1.5,22,7.3c2.3,8.7-13.7,22.5-13.7,22.5
			s30.7-0.6,28.8,16.1c6.4-1.8,11.5-5.1,9.6-10.9c-4.2-13.2-30.8-7.7-32.6-7.3c1.7-0.4,24.1-5.6,19.9-21.8
			c-3.3-12.9-19.4-10.8-26.8-9.2c15.3-5.4,21.4-25.4-1.5-38.5c-26.1-14.9-30.6,17.6-30.9,20.3c0.3-2.5,3.1-31.3-20.7-26.1
			c-24.3,5.3-6.8,30.8-6.8,30.8s-20.2-27.2-39.6-10.9c-19.4,16.4,9.1,41.7,9.1,41.7c-24.1,20,7.8,34.1,7.8,34.1S100.1,93.6,107.7,83
			z"/>
	</g>
</g>
<g display="none">
	<ellipse display="inline" fill="#C6C2AF" cx="124.4" cy="111.8" rx="113.6" ry="19"/>
	<g display="inline">
		<path fill="#88C881" d="M42.3,111.8c0,0-18.3-19-8.8-42.1C43,46.5,71.6,50.2,71.6,50.2S63.3,24,94.9,13.3
			c31.7-10.7,48.8,23.8,48.8,23.8s1.7-17.2,16.2-16c14.5,1.2,9,22.2,3.1,26.6c0,0,16.4-15.8,26.7-2.2c10.2,13.6-15.5,16-15.5,16
			s22.9-3.8,30.2,10.3c7.4,14.1-5.2,21-5.2,21s16.9-6.9,21.4,2.2c4.5,9.1-23.1,15.5-23.1,15.5L42.3,111.8z"/>
		<path fill="#9FDD97" d="M44.7,76.9c8.6-13.2,39.9-15.3,39.9-15.3S76.3,45,87.5,33.9c11.2-11.1,41-5.1,49.6,10.6
			c0,0,10-6.1,17.1-5.1c7.1,1,6.6,17.7,6.6,17.7s2.2-8.1,11.4-5.1c9.2,3-0.9,13.5-0.9,13.5s14.9-0.4,21.8,9.2s-3.9,23.8-3.9,23.8
			s20.3-7.9,23.1,6.9l0,0c5.7-2.7,10.4-6.3,8.3-10.5c-4.5-9.1-21.4-2.2-21.4-2.2s12.6-6.9,5.2-21c-6.2-11.9-23.6-11-28.8-10.5
			c5.3-0.8,22.7-4.3,14-15.8c-8.9-11.7-22.4-1.5-25.8,1.5c5.6-5.6,9.9-24.7-3.9-25.9c-14.5-1.2-16.2,16-16.2,16S126.6,2.7,94.9,13.3
			C63.3,24,71.6,50.2,71.6,50.2S43,46.5,33.5,69.7c-9.5,23.2,8.8,42.1,8.8,42.1S36.1,90,44.7,76.9z"/>
	</g>
</g>
</svg>
