<?xml version="1.0" encoding="utf-8"?>
<!-- Generator: Adobe Illustrator 20.0.0, SVG Export Plug-In . SVG Version: 6.00 Build 0)  -->
<svg version="1.1" xmlns="http://www.w3.org/2000/svg" xmlns:xlink="http://www.w3.org/1999/xlink" x="0px" y="0px"
	 viewBox="0 0 123 206" enable-background="new 0 0 123 206" xml:space="preserve">
<g id="BACKGROUND" display="none">
	<rect x="-35" y="-26.2" display="inline" fill="#709ABD" width="500" height="500"/>
</g>
<g id="OBJECTS">
	<ellipse display="none" fill="#468196" cx="222.3" cy="424" rx="39.3" ry="8"/>
	<ellipse display="none" fill="#468196" cx="64.4" cy="189.1" rx="45.8" ry="12.5"/>
	<ellipse display="none" fill="#468196" cx="220.9" cy="192.8" rx="37.3" ry="10.2"/>
	<ellipse display="none" fill="#468196" cx="378" cy="189" rx="43.5" ry="12"/>
	<ellipse display="none" fill="#468196" cx="66" cy="422.7" rx="57" ry="10"/>
	<g display="none">
		<path display="inline" fill="#FFFFFF" d="M37.7,159.1c0,0-8.6,1-8.6,11.4c0,10.4,2.1,12.4,2.1,12.4s-6.9,0-5.9,4.8
			c1,4.8,16.6,4.1,22.4,1.7c5.9-2.4,5.5-11.7,2.8-20C47.7,161.2,42.2,157.4,37.7,159.1z"/>
		<path display="inline" fill="#FFFFFF" d="M90.6,159.1c0,0,8.6,1,8.6,11.4c0,10.4-2.1,12.4-2.1,12.4s6.9,0,5.9,4.8
			c-1,4.8-16.6,4.1-22.4,1.7c-5.9-2.4-5.5-11.7-2.8-20S86.1,157.4,90.6,159.1z"/>
		<path display="inline" fill="#FFFFFF" d="M42.4,133.2c0,0-27.3,56.3,19.5,55.6c46.8-0.7,31.7-44.5,21.7-55.2L42.4,133.2z"/>
		<path display="inline" fill="#FFFFFF" d="M55.7,71.7c0,0-1.8-34.3-20.3-53.2S-0.2,18.2,12.3,35C24.9,51.9,39.6,75,41.1,80.7
			L55.7,71.7z"/>
		<path display="inline" fill="#F16B66" d="M51.5,75.9c0,0-7.2-46.2-23.8-50S39.4,66.9,51.5,75.9z"/>
		<path display="inline" fill="#FFFFFF" d="M71.2,72.3c0,0-1.3-34.4,15.5-54.8c16.8-20.4,35.4-3.5,24.4,14.4
			c-11,17.9-23.6,42.2-24.6,48L71.2,72.3z"/>
		<path display="inline" fill="#F16B66" d="M75.8,76.1c0,0,3.1-46.7,19.3-52S87,66.1,75.8,76.1z"/>
		<path display="inline" fill="#FFFFFF" d="M64.6,63.1c-31.8-2.1-49.7,34.2-45.2,54.5s34.9,24.5,46.2,23.5c11.4-1,39-1.7,42.4-26.6
			C111.6,89.7,96.7,65.2,64.6,63.1z"/>
		<path display="inline" fill="#EF504A" d="M58.8,103.2c2.5-5,10.4-2.1,11.7,0.3c1.4,2.4-2.1,5.9-6.2,6.2
			C60.1,110.1,57.4,105.9,58.8,103.2z"/>
		<path display="inline" fill="#FFE700" d="M63.2,135.6c-22.7,0-35.3,60,0,60S91.7,135.6,63.2,135.6z"/>
		<path display="inline" fill="#FFFFFF" d="M39.7,139.5c1.8,1,4.5,4.1,5.9,5c2.4,1.7,3.8,3.4,4,6.4c0.3,5.2-4.1,7.2-11.4,2.1
			c-2.6-1.9-5.2-5.7-4.6-9C34.2,140.4,36.6,137.9,39.7,139.5z"/>
		<path display="inline" fill="#FFFFFF" d="M87.3,139.8c-1.8,1-3.2,4.4-4.6,5.3c-2.4,1.7-3.8,3.4-4,6.4c-0.3,5.2,4.1,7.2,11.4,2.1
			c2.6-1.9,5.2-5.7,4.6-9C94,140.9,90.3,138.1,87.3,139.8z"/>
		<path display="inline" fill="#F16B66" d="M36.6,177.7c-0.5-1.6-1.4-3.6-1.4-5.3l0.4,0.2c0.3,0.1,0.5,0,0.5-0.3
			c0.1-0.9-0.3-2.1-0.5-3c-0.3-2.1-0.8-4.2-1-6.3c0-0.3-0.5-0.3-0.5,0c0,1.9,0.4,3.8,0.7,5.7c0.1,0.9,0.2,1.8,0.4,2.6
			c0.1,0.5,0.3,0.4-0.4,0.1c-0.3-0.1-0.5,0.2-0.5,0.4c-0.2,2,0.8,4.4,1.6,6.2C36.2,178.3,36.7,178.1,36.6,177.7z"/>
		<path display="inline" fill="#F16B66" d="M38.4,180c-0.1-0.3-0.6,0-0.4,0.2c0.8,1.6,1.7,3.3,2.7,4.8c0.1,0.2,0.5,0.1,0.4-0.2
			C40.4,183.2,39.2,181.7,38.4,180z"/>
		<path display="inline" fill="#F16B66" d="M94.9,162.3c0-0.3-0.4-0.3-0.4,0c-0.1,2.3-0.1,4.5-0.2,6.8c-0.1,0.9-0.2,1.9-0.3,2.8
			c-0.1,0.9,0,1.7-0.6,0.7c-0.2-0.3-0.6-0.2-0.7,0.1c-0.9,2.7-1.8,5.6-3.2,8.1c-0.1,0.2,0.2,0.5,0.4,0.3c1.6-2,2.5-4.8,3.3-7.2
			c0.1,0.2,0.3,0.4,0.6,0.4c0.1,0,0.3,0,0.4-0.1c0.8-0.8,0.6-2.4,0.7-3.5C95.1,168,95,165.1,94.9,162.3z"/>
		<path display="inline" fill="#F16B66" d="M88.7,182.7c-0.5,0.6-1,1.2-1.3,1.9c0,0-0.1,0.1-0.1,0.1c0,0,0,0.1,0,0.1
			c-0.1,0.3,0.3,0.4,0.4,0.2c0.5-0.6,0.9-1.3,1.3-1.9C89.2,182.7,88.8,182.4,88.7,182.7z"/>
		<path display="inline" fill="#F16B66" d="M48.5,154.8c-3.9,3.2-9.5-0.5-12.5-3.3c-0.2-0.2-0.5,0.1-0.3,0.3
			c2.9,3.1,9.5,7.4,13.1,3.4C49,154.9,48.7,154.6,48.5,154.8z"/>
		<path display="inline" fill="#F16B66" d="M46.1,153.5c-0.5-0.1-1-0.4-1.6-0.3c-0.2,0.1-0.2,0.4,0.1,0.4c0.6,0,1,0.5,1.6,0.4
			C46.3,153.8,46.3,153.5,46.1,153.5z"/>
		<path display="inline" fill="#F16B66" d="M47.4,151.1c-0.3-0.1-0.5-0.3-0.8-0.5c-0.2-0.2-0.6,0.1-0.3,0.3c0.3,0.3,0.6,0.6,1,0.5
			C47.5,151.5,47.7,151.2,47.4,151.1z"/>
		<path display="inline" fill="#F16B66" d="M91.1,152.5c-3.1,2.7-7.1,4.8-11.3,3c-0.2-0.1-0.3,0.2-0.1,0.3c4.1,2.1,8.9,0.4,11.8-2.9
			C91.8,152.6,91.4,152.2,91.1,152.5z"/>
		<path display="inline" fill="#F16B66" d="M83.5,153.4c-0.4,0-0.7,0.3-1,0.6c-0.2,0.2,0.1,0.6,0.3,0.4c0.3-0.2,0.5-0.4,0.8-0.5
			C83.9,153.7,83.8,153.4,83.5,153.4z"/>
		<path display="inline" fill="#F16B66" d="M81.5,150.7c-0.2,0.3-0.6,0.6-0.8,0.9c-0.2,0.2,0.1,0.6,0.4,0.4c0.3-0.4,0.8-0.7,0.9-1.2
			C81.9,150.6,81.6,150.6,81.5,150.7z"/>
		<path display="inline" fill="#F16B66" d="M29,184.7c-0.7-0.9-1.8,0.2-2.1,0.9c-0.1,0.3,0.3,0.4,0.4,0.2c0.3-0.4,0.8-1.1,1.4-0.7
			C29,185.2,29.2,184.9,29,184.7z"/>
		<path display="inline" fill="#F16B66" d="M30.3,186.1c-0.6,0-1.2,0.3-1.7,0.7c-0.2,0.2,0.1,0.6,0.4,0.4c0.4-0.3,0.9-0.5,1.4-0.6
			C30.7,186.5,30.6,186.1,30.3,186.1z"/>
		<path display="inline" fill="#F16B66" d="M97.9,186.6c-0.3,0.1-0.2,0.5,0.1,0.5c0.3,0,0.6-0.1,0.9-0.1c0.3,0,0.6,0.1,0.9,0.2
			c0.2,0.1,0.4-0.1,0.3-0.3C99.9,186.1,98.5,186.4,97.9,186.6z"/>
		<path display="inline" fill="#F16B66" d="M99.3,185.1c-0.3,0-0.3,0.5,0,0.5c0.4,0,0.6,0.1,0.9,0.3c0.2,0.1,0.4-0.1,0.3-0.2
			C100.4,185.1,99.8,185,99.3,185.1z"/>
		<path display="inline" fill="#F16B66" d="M47.9,139.3c-2.1-0.7-4.3-0.9-6.5-1.4c-0.2,0-0.4,0.1-0.3,0.3c0,0,0,0.1,0,0.1
			c0,0.1,0.2,0.2,0.3,0.1c-0.1,0,2.3,0.8,2.6,0.8c1.2,0.3,2.5,0.4,3.8,0.6C48.1,139.8,48.2,139.4,47.9,139.3z"/>
		<path display="inline" fill="#F16B66" d="M50.3,139.6c-0.3,0-0.6,0-0.8,0c-0.3,0-0.3,0.5,0,0.5c0.3,0,0.6,0,0.8,0
			C50.6,140,50.6,139.7,50.3,139.6z"/>
		<path display="inline" fill="#F16B66" d="M83.6,138.2c-2.2,0.4-4.3,1.3-6.5,1.7c-0.2,0-0.2,0.4,0.1,0.4c0.9-0.1,1.8-0.4,2.7-0.6
			c1.3-0.3,2.6-0.6,3.9-1C84.1,138.6,83.9,138.2,83.6,138.2z"/>
		<path display="inline" fill="#F16B66" d="M41,68.5c-0.6,0.4-1.1,0.8-1.6,1.3c-0.4,0.4-1,0.9-1.2,1.5c0,0.1,0,0.2,0.1,0.2
			c0,0,0.1,0,0.1,0c0.1,0,0.1-0.1,0.1-0.1c0.5-0.3,0.9-0.8,1.2-1.1c0.5-0.5,1-0.9,1.5-1.3C41.5,68.7,41.3,68.3,41,68.5z"/>
		<path display="inline" fill="#F16B66" d="M52.3,64.1c-0.9,0.3-1.7,0.8-2.5,1.2c-0.2,0.1,0,0.5,0.2,0.3c0.8-0.4,1.7-0.8,2.5-1.2
			C52.6,64.4,52.5,64.1,52.3,64.1z"/>
		<path display="inline" fill="#F16B66" d="M74.6,64.3c-1.3-0.5-2.7-1-4.1-1c-0.3,0-0.3,0.4-0.1,0.5c1.4,0.2,2.6,0.7,4,1
			C74.7,64.8,74.9,64.4,74.6,64.3z"/>
		<path display="inline" fill="#F16B66" d="M88.8,69.5c-0.7-0.5-1.5-0.9-2.4-1.2c-0.3-0.1-0.5,0.4-0.2,0.5c0.8,0.4,1.6,0.8,2.4,1.2
			C88.9,70,89,69.6,88.8,69.5z"/>
		<path display="inline" fill="#EF504A" d="M70.2,112.9c-0.5,1.2-1.9,2.8-3.4,2.1c-1.2-0.6-1.5-2.2-1.7-3.3c0,0,0-0.1-0.1-0.1
			c0-1.2-0.2-2.3-0.4-3.1c-0.1-0.4-0.8-0.4-0.9,0c-0.3,1.6-0.1,3.4-0.5,5c-0.3,1.1-1.4,1.8-2.5,1.3c-0.7-0.3-0.9-1.3-1-2
			c0-0.7-1-0.8-1.2-0.2c-0.8,2.6,1,4.8,3.8,4.1c1.2-0.3,1.9-1.1,2.3-2.2c0.4,0.9,1,1.6,1.8,2c1.3,0.5,2.3,0.1,3.4-0.6
			c1-0.7,1.4-1.4,1.4-2.6C71.4,112.7,70.5,112.4,70.2,112.9z"/>
		<g display="inline">
			<path fill="#982F2A" d="M80.2,92.7c-0.4-0.7-1-1.2-1.9-1.2c-1,0-1.9,0.8-2.4,1.7c-0.8,1.6-1.2,4.7-0.4,6.3
				c1.2,2.4,3.6,1.9,4.6-0.3C80.6,97.8,81.1,94.5,80.2,92.7z"/>
			<path fill="#FFFFFF" d="M76.9,93.1c-0.5,0.4-0.6,0.8-0.7,1.4c-0.1,0.8,1.3,0.9,1.3,0c0-0.3,0-0.5,0.1-0.8
				C77.8,93.3,77.2,92.8,76.9,93.1z"/>
			<path fill="#FFFFFF" d="M76.9,95.8l-0.3-0.1c-0.7-0.2-0.7,1.1,0,0.9l0.3-0.1C77.3,96.4,77.3,95.9,76.9,95.8z"/>
		</g>
		<g display="inline">
			<path fill="#982F2A" d="M51.2,92.7c-0.4-0.7-1-1.2-1.9-1.2c-1,0-1.9,0.8-2.4,1.7c-0.8,1.6-1.2,4.7-0.4,6.3
				c1.2,2.4,3.6,1.9,4.6-0.3C51.6,97.8,52.1,94.5,51.2,92.7z"/>
			<path fill="#FFFFFF" d="M47.9,93.1c-0.5,0.4-0.6,0.8-0.7,1.4c-0.1,0.8,1.3,0.9,1.3,0c0-0.3,0-0.5,0.1-0.8
				C48.9,93.3,48.3,92.8,47.9,93.1z"/>
			<path fill="#FFFFFF" d="M48,95.8l-0.3-0.1c-0.7-0.2-0.7,1.1,0,0.9l0.3-0.1C48.3,96.4,48.3,95.9,48,95.8z"/>
		</g>
		<path display="inline" fill="#EF504A" d="M49,106c-3.6-0.1-7,0.8-10.5,1.6c-3.6,0.9-6.7,2.4-9.4,4.8c-0.3,0.3,0.1,0.8,0.4,0.6
			c5.4-3.9,12.8-6.1,19.5-6.3C49.5,106.7,49.5,106,49,106z"/>
		<path display="inline" fill="#EF504A" d="M48.7,111.5c-7.2,0-12.9,5.8-17.4,10.8c-0.3,0.3,0.1,0.7,0.4,0.4
			c4.9-4.5,10-10,16.9-10.6C49.1,112.1,49.1,111.5,48.7,111.5z"/>
		<path display="inline" fill="#EF504A" d="M49.7,115.5c-5.2,2.9-9.7,7.2-12.6,12.4c-0.2,0.4,0.3,0.7,0.6,0.4
			c3.6-4.8,7.2-9.1,12.4-12.2C50.4,115.9,50,115.3,49.7,115.5z"/>
		<path display="inline" fill="#EF504A" d="M86.7,121.2c-2.4-2.2-5.1-3.9-8-5.3c-0.3-0.1-0.6,0.3-0.3,0.5c2.3,1.2,4.5,2.6,6.5,4.3
			c1.6,1.4,4.3,3.5,4.9,5.5c0.1,0.3,0.7,0.3,0.6-0.1C90.3,124,88.1,122.6,86.7,121.2z"/>
		<path display="inline" fill="#EF504A" d="M95.1,119.8c-2.4-5.3-9.6-7.7-14.9-9.1c-0.3-0.1-0.5,0.4-0.1,0.5
			c5.5,1.6,11.1,4.1,14.4,8.9C94.8,120.5,95.3,120.2,95.1,119.8z"/>
		<path display="inline" fill="#EF504A" d="M96.6,110.9c-3.1-3.9-9.7-6.3-14.6-5.7c-0.4,0-0.4,0.6,0,0.6c4.9-0.5,10.7,2.1,14.1,5.6
			C96.4,111.7,96.8,111.3,96.6,110.9z"/>
		<path display="inline" fill="#EF504A" d="M77.3,143.7c-0.6,0.3-2.1,1.4-2.8,0.8c-0.7-0.6-1.8-1.8-2.8-2.1
			c-2.5-0.7-3.8,4.2-6.2,2.6c-1.4-0.9-3.2-3.2-4.9-1.9c-0.7,0.5-2.7,2.7-3.4,1.9c-0.9-1-2.1-1.9-3.2-2.8c-0.2-0.2-0.6-0.1-0.6,0.3
			c0,0,0,0.1,0,0.1c0,0.2,0.2,0.3,0.3,0.3c1.1,1.1,2.2,2.2,3.4,3.3c0.1,0.1,0.3,0.2,0.5,0.1c2.1-0.6,3.3-3.4,5.7-1.6
			c1.3,1,2.6,2.4,4.2,1.5c0.9-0.6,1.8-1.3,2.6-2c1.7-1.4,3.4,1.2,4.7,1.8c1,0.5,2.7-1,3.2-1.8C78.2,144,77.7,143.5,77.3,143.7z"/>
		<path display="inline" fill="#EF504A" d="M76.8,155.5c-0.8,0.2-0.8,0.3-1.5,0.7c-0.8,0.5-1.7-0.4-2.2-0.8
			c-0.5-0.4-1.4-1.2-2.1-1.2c-0.8,0-1.2,0.6-1.8,1.1c-0.6,0.5-2,2.1-3,1.7c-1.1-0.5-2-1.1-3-1.8c-2-1.4-2.8-0.2-4.8,0.9
			c-1,0.5-0.9,0.9-1.8,0.1c-0.6-0.6-1.2-1.2-1.7-1.8c-1.3-1.4-2.4-3.1-3.9-4.3c-0.2-0.2-0.5,0-0.5,0.3c0,0.1,0,0.2,0.1,0.3
			c0,0.2,0.4,0.2,0.4,0c-0.1,0.7,2.3,3.1,2.7,3.6c1,1.3,2.1,2.4,3.2,3.7c0.2,0.2,0.5,0.2,0.7,0.1c0.9-0.5,1.7-1.1,2.6-1.5
			c1.7-0.9,2.4-0.1,3.8,0.9c1.3,0.9,2.7,1.8,4,0.7c0.5-0.4,2.5-2.5,3-2.2c1,0.6,1.8,1.3,2.8,1.8c1.3,0.7,2.5-0.3,3.4-1.3
			C77.7,156,77.4,155.3,76.8,155.5z"/>
		<path display="inline" fill="#EF504A" d="M85.7,164.4c-0.3-0.3-0.9-0.2-1,0.3c0.1-0.3-0.8,0.6-1,0.8c-0.5,0.4-1,0.8-1.5,1.3
			c-1,1-1,1.5-2.1,1c-0.9-0.4-1.6-1.3-2.5-1.6c-1.9-0.5-2.4,2.3-4.3,1.1c-1.2-0.8-3.9-3.3-5.5-2.9c-1.9,0.5-2.8,4.1-5.2,2.6
			c-1-0.7-4.1-3.5-5.4-2.9c-1,0.4-1.9,0.9-2.8,1.4c-1.1,0.5-3.4,2.5-4.5,1.5c-2-1.8-4-3.8-6.4-5.2c-0.2-0.1-0.5,0-0.5,0.3
			c0,0.1,0,0.2,0,0.3c0,0.4,0.6,0.4,0.6,0c-0.1,0.7,3,3,3.5,3.5c0.8,0.9,1.7,1.9,2.7,2.6c0.5,0.4,1,0.4,1.7,0.1
			c1.7-1,3.4-1.9,5.3-2.7c2.3-1.1,4.7,3.3,7.1,3.3c0.8,0,1.5-0.6,2.1-1c0.6-0.5,1.2-1.1,1.9-1.6c0.8-0.5,0.6-0.4,1.5,0.1
			c1.6,0.9,3.7,3.3,5.6,3c0.7-0.1,1.4-1,1.9-1.5c0.3-0.3,3,1.6,3.2,1.7c1.5,0.9,3.3-1.8,4.2-2.5C84.9,166.8,86.9,165.4,85.7,164.4z"
			/>
		<path display="inline" fill="#EF504A" d="M82.8,178.6c-0.6,0.3-1.2,0.6-1.8,1.1c-0.7,0.5-2.2-1.2-2.6-1.6
			c-0.9-0.8-1.8-0.2-2.5,0.5c-0.8,0.8-1.6,1.5-2.5,2.2c-1.3,1-3.7-1.1-4.7-1.9c-0.9-0.7-1.8-1.6-3-0.9c-2.2,1.3-3.3,4.1-6.3,2.4
			c-1.5-0.8-2.8-2.3-4.6-2c-0.9,0.2-4.3,3.3-4.9,3c-2.2-1.3-4.5-3.4-6.2-5.3c-0.3-0.3-0.7,0.1-0.5,0.5c1.9,2.3,4.3,4.3,6.6,6.1
			c0.2,0.2,0.5,0.3,0.7,0.1c1.5-1,3.9-4,5.7-2.7c1,0.7,3.5,2.7,4.8,2.6c1.4-0.1,2.4-1.2,3.4-2c1.2-0.9,2.2-1.5,3.6-0.4
			c0.8,0.6,1.7,1.1,2.5,1.7c1,0.6,1.9,0.7,2.9,0.3c0.6-0.2,3.5-3.1,4-2.7c0.9,0.8,1.9,2,3.2,1.8c0.9-0.1,2.1-1.1,2.7-1.7
			C84.3,179.1,83.5,178.2,82.8,178.6z"/>
		<path display="inline" fill="#EF504A" d="M72.8,190.6L72.8,190.6c-0.9-0.5-2.8-2-3.9-1.4c-0.9,0.5-1.9,1-2.8,1.6
			c-1.5,1-2.1,0.6-3.9-0.2c-1.8-0.8-1.7-1.2-3.5-0.4c-1.2,0.5-2.3,1.3-3.4,2c-0.8,0.5-3.7-2.3-4.3-3c-0.2-0.2-0.5,0-0.4,0.2
			c0,0,0,0.1,0,0.1c0.1,0.3,0.5,0.2,0.5-0.1c0.2,1.1,1.2,1.8,2.2,2.6c0.4,0.4,1.1,1.1,1.8,1.1c0.9,0,2.1-1.2,2.9-1.6
			c1.5-0.9,2.3-1,3.8-0.2c1,0.6,3,1.8,4.2,1c0.6-0.5,3.1-2.6,4-2c0.9,0.5,1.8,0.9,2.8,1C73.1,191.4,73.2,190.8,72.8,190.6z"/>
		<path display="inline" fill="#FFFFFF" d="M49,185.1c-1.1,0-1.1,1.7,0,1.7C50.1,186.8,50.1,185.1,49,185.1z"/>
		<path display="inline" fill="#FFFFFF" d="M56.3,186.3C56.3,186.3,56.2,186.2,56.3,186.3c-0.1-0.1-0.1-0.1-0.1-0.1
			c0,0,0-0.1-0.1-0.1c0,0,0,0,0,0c0,0,0,0,0,0c-0.2-0.4-0.7-0.6-1.1-0.3c-0.5,0.3-0.6,1.2,0,1.4c0.2,0.1,0.4,0.2,0.7,0.2
			C56.2,187.3,56.5,186.8,56.3,186.3z"/>
		<path display="inline" fill="#FFFFFF" d="M65.1,185.5c-0.1-0.1-0.2-0.1-0.4-0.2c-0.6-0.3-1.3,0-1.3,0.7c0,0.7,0.9,1.1,1.4,0.6
			c0.1,0,0.1-0.1,0.2-0.1C65.5,186.3,65.5,185.7,65.1,185.5z"/>
		<path display="inline" fill="#FFFFFF" d="M72,186.3c0.2-0.2,0.3-0.5,0.1-0.9c0,0-0.1-0.1-0.1-0.1c0,0,0,0-0.1-0.1c0,0,0,0,0-0.1
			c-0.1-0.1-0.2-0.2-0.4-0.2c-0.3-0.1-0.6,0-0.9,0.2c-0.1,0-0.1,0.1-0.2,0.2c0,0,0,0,0,0c0,0,0,0-0.1,0.1c0,0,0,0.1,0,0.1
			c0,0,0,0.1,0,0.1c0,0,0,0.1,0,0.1c0,0.1,0,0.1,0,0.2c0,0,0,0.1,0,0.1c0,0,0,0.1,0,0.1c0,0.1,0,0.1,0.1,0.1c0,0,0,0,0,0
			c0,0.1,0.1,0.1,0.1,0.2c0,0,0.1,0.1,0.1,0.1c0,0,0,0,0.1,0c0.2,0.2,0.5,0.2,0.7,0.1C71.7,186.7,71.9,186.5,72,186.3z"/>
		<path display="inline" fill="#FFFFFF" d="M77.3,186.2C77.3,186.3,77.2,186.3,77.3,186.2c-0.2,0.3-0.2,0.6,0,0.8c0,0,0,0,0,0.1
			c0.4,0.7,1.6,0.4,1.6-0.4C78.8,185.8,77.7,185.6,77.3,186.2z"/>
		<path display="inline" fill="#FFFFFF" d="M46.3,172.2c0,0-0.1,0-0.1,0c-0.6-0.1-1.1,0.3-1,1c0.2,0.6,1.1,0.8,1.4,0.2
			c0,0,0.1-0.1,0.1-0.1C47.1,172.9,46.9,172.2,46.3,172.2z"/>
		<path display="inline" fill="#FFFFFF" d="M52.7,172.8c-1.2,0-1.2,1.8,0,1.8C53.8,174.6,53.8,172.8,52.7,172.8z"/>
		<path display="inline" fill="#FFFFFF" d="M61.7,172.4c-0.5-0.3-1-0.1-1.2,0.4c-0.2,0.4-0.1,0.8,0.3,1c0,0,0.1,0,0.1,0.1
			C61.8,174.5,62.7,172.9,61.7,172.4z"/>
		<path display="inline" fill="#FFFFFF" d="M69.4,173.1c-1.1,0-1.1,1.8,0,1.8C70.5,174.8,70.5,173.1,69.4,173.1z"/>
		<path display="inline" fill="#FFFFFF" d="M78.4,173c0-0.1-0.1-0.1-0.1-0.2c-0.2-0.5-0.7-0.8-1.2-0.5c-0.4,0.3-0.6,0.9-0.2,1.3
			c0.2,0.2,0.4,0.3,0.7,0.4C78.2,174.2,78.7,173.5,78.4,173z"/>
		<path display="inline" fill="#FFFFFF" d="M85.4,172c-0.4-0.3-0.6-0.4-1.1-0.3c-0.5,0.1-0.6,0.7-0.4,1.1c0.2,0.3,0.4,0.5,0.7,0.6
			C85.3,173.4,86,172.5,85.4,172z"/>
		<path display="inline" fill="#FFFFFF" d="M50,158.8C50.2,158.8,50.2,158.8,50,158.8c-0.6-0.3-1.1,0.4-1,0.9
			c0.2,0.6,0.8,0.7,1.3,0.3c0.2-0.2,0.3-0.4,0.3-0.6C50.8,159.1,50.4,158.7,50,158.8z"/>
		<path display="inline" fill="#FFFFFF" d="M57,159.7c-0.7,0.1-1.2,0.5-1.2,1.2c0,0.3,0.2,0.6,0.4,0.7c0,0,0,0,0.1,0
			c0.3,0.2,0.6,0.1,0.9-0.1c0.3-0.2,0.4-0.7,0.5-1C57.8,160.1,57.4,159.6,57,159.7z"/>
		<path display="inline" fill="#FFFFFF" d="M66.1,161.2c0.2-0.2,0.3-0.6,0-0.8c-0.1-0.1-0.2-0.2-0.3-0.2c-0.3-0.2-0.7-0.1-1,0.1
			c0,0,0,0-0.1,0.1c-0.3,0.2-0.3,0.7-0.1,1c0.1,0.1,0.1,0.2,0.2,0.3c0.3,0.4,1,0.2,1.2-0.3C66,161.4,66.1,161.3,66.1,161.2z"/>
		<path display="inline" fill="#FFFFFF" d="M73,160.6c-0.3-0.1-0.6-0.2-0.9-0.2c-1,0-1.1,1.2-0.4,1.7c0.2,0.1,0.3,0.1,0.5,0.2
			c0.2,0,0.5-0.2,0.6-0.4c0-0.1,0.1-0.1,0.2-0.1C73.4,161.5,73.4,160.8,73,160.6z"/>
		<path display="inline" fill="#FFFFFF" d="M80.7,160.8C80.7,160.7,80.6,160.7,80.7,160.8c-0.4-0.8-1.5-0.6-1.7,0.1
			c-0.2,0.7,0.6,1.4,1.3,1c0,0,0.1,0,0.1-0.1C80.8,161.6,80.9,161.2,80.7,160.8z"/>
		<path display="inline" fill="#FFFFFF" d="M56.8,148.4c-0.1-0.1-0.3-0.1-0.4-0.2c-1.1-0.3-1.1,1.6,0,1.3c0.2,0,0.3-0.1,0.4-0.2
			C57.1,149,57.1,148.6,56.8,148.4z"/>
		<path display="inline" fill="#FFFFFF" d="M62.3,148.6c-0.2,0.1-0.4,0.2-0.6,0.3c-0.1,0.1-0.3,0.1-0.4,0.2c-0.1,0-0.1,0.1-0.2,0.1
			c0,0,0,0,0,0c-0.4,0.2-0.5,0.9,0,1.2c0.4,0.2,0.8,0.2,1.2,0c0.4-0.2,0.5-0.6,0.7-0.9C63.2,149.1,62.9,148.4,62.3,148.6z"/>
		<path display="inline" fill="#FFFFFF" d="M69.7,148.2c-0.4-0.3-1-0.3-1.4,0.1c-0.4,0.4-0.3,0.8-0.3,1.3c0.1,1.1,1.6,1.1,1.7,0
			c0-0.2,0-0.1,0-0.2c0,0,0-0.1,0-0.1C70.1,149,70.1,148.5,69.7,148.2z"/>
		<path display="inline" fill="#FFFFFF" d="M76.1,147.9c-0.5-0.1-1,0.4-0.9,1c0.2,0.6,0.9,0.8,1.3,0.3c0,0,0,0,0.1-0.1
			C77,148.7,76.7,147.9,76.1,147.9z"/>
		<path display="inline" fill="#FFFFFF" d="M60,139.9c-0.4-0.2-0.8-0.2-1.2,0c-0.4,0.1-0.4,0.7,0,0.9c0.4,0.2,0.8,0.2,1.2,0
			C60.4,140.6,60.4,140.1,60,139.9z"/>
		<path display="inline" fill="#FFFFFF" d="M64.8,139.8c-0.6-0.2-1.2-0.2-1.6,0.4c-0.2,0.3,0,0.6,0.3,0.7c0.5,0.1,0.8,0,1.3-0.1
			C65.3,140.7,65.3,139.9,64.8,139.8z"/>
		<path display="inline" fill="#FFFFFF" d="M72.7,139.8c-0.4,0-0.7,0-0.9,0.3c-0.2,0.2-0.2,0.5-0.1,0.7c0,0,0,0,0,0.1
			c0.2,0.3,0.5,0.4,0.8,0.3c0.5-0.1,0.7-0.4,0.7-0.9C73.3,140.1,72.9,139.8,72.7,139.8z"/>
		<path display="inline" fill="#EF504A" d="M88.7,99.9c-0.7-0.3-1.6-0.4-2.4-0.2c-0.7,0-1.6,0-1.9,0.6c-0.6,1.1,0.6,1.8,1.6,1.9
			c1,0.1,2.3,0,3-0.6C89.6,101,89.4,100.2,88.7,99.9z"/>
		<path display="inline" fill="#EF504A" d="M43.4,99.9c-0.7-0.3-1.6-0.4-2.4-0.2c-0.7,0-1.6,0-1.9,0.6c-0.6,1.1,0.6,1.8,1.6,1.9
			c1,0.1,2.3,0,3-0.6C44.2,101,44.1,100.2,43.4,99.9z"/>
		<path display="inline" fill="#EE3638" d="M92.9,36.6c-1.3-0.1-2.5,0.9-3.6,1.5c-1,0.5-2.1,1-2.7,2c-0.2,0.3,0.2,0.7,0.5,0.5
			c0.9-0.6,1.8-1,2.8-1.5c1.1-0.5,2.3-0.8,3.3-1.4C93.6,37.5,93.4,36.7,92.9,36.6z"/>
		<path display="inline" fill="#EE3638" d="M95.2,40.2c-2.2-0.1-4.4,1.4-6.3,2.3c-2.3,1.1-4.4,2.4-6.4,4c-0.3,0.2,0.1,0.7,0.4,0.5
			c3.7-2.6,8.1-4.6,12.5-5.8C95.8,41,95.7,40.2,95.2,40.2z"/>
		<path display="inline" fill="#EE3638" d="M88.4,46.9c-1.1,0.5-2.3,1.1-3.3,1.8c-0.3,0.2,0,0.7,0.3,0.5c1.1-0.6,2.3-1.1,3.3-1.8
			C88.9,47.2,88.7,46.8,88.4,46.9z"/>
		<path display="inline" fill="#EE3638" d="M35.1,40.2c-0.8-1.4-3.6,1.9-4.2,2.4c-0.3,0.3,0.2,0.8,0.5,0.5c0.5-0.4,1-0.9,1.5-1.4
			c0.3-0.2,1.4-1.3,1.8-1.1C35,40.7,35.2,40.5,35.1,40.2z"/>
		<path display="inline" fill="#EE3638" d="M40.2,40.3c-1.4-2.3-8.3,5.3-8.9,6c-0.3,0.3,0.2,0.7,0.4,0.4c1.5-1.6,3.2-3.1,5.1-4.3
			c0.7-0.5,2.1-1.8,3-1.5C40.1,41,40.3,40.6,40.2,40.3z"/>
		<path display="inline" fill="#EE3638" d="M38.2,45.4c-1.5,0.7-2.6,2-3.8,3.2c-0.3,0.3,0.2,0.9,0.5,0.5c1.2-1.1,2.4-2.1,3.7-3.2
			C38.9,45.6,38.5,45.2,38.2,45.4z"/>
		<path display="inline" fill="#FFFFFF" d="M64.5,101.8c-0.5-0.2-1-0.1-1.5,0c-0.4,0.1-0.4,0.7,0,0.8c0.5,0.1,1,0.2,1.5,0
			C64.8,102.4,64.8,101.9,64.5,101.8z"/>
		<path display="inline" fill="#FFFFFF" d="M68.4,103.4c-0.5-0.7-1.5-0.9-2.4-1c-0.5,0-0.5,0.7-0.1,0.8c0.7,0.2,1.3,0.6,2,0.9
			C68.2,104.2,68.6,103.8,68.4,103.4z"/>
	</g>
	<g display="none">
		<path display="inline" fill="#FFFFFF" d="M351.8,159.1c0,0-8.6,1-8.6,11.4c0,10.4,2.1,12.4,2.1,12.4s-6.9,0-5.9,4.8
			c1,4.8,16.6,4.1,22.4,1.7c5.9-2.4,5.5-11.7,2.8-20S356.3,157.4,351.8,159.1z"/>
		<path display="inline" fill="#FFFFFF" d="M404.7,159.1c0,0,8.6,1,8.6,11.4c0,10.4-2.1,12.4-2.1,12.4s6.9,0,5.9,4.8
			c-1,4.8-16.6,4.1-22.4,1.7c-5.9-2.4-5.5-11.7-2.8-20C394.6,161.2,400.2,157.4,404.7,159.1z"/>
		<path display="inline" fill="#FFFFFF" d="M356.4,133.2c0,0-27.3,56.3,19.5,55.6c46.8-0.7,31.7-44.5,21.7-55.2L356.4,133.2z"/>
		<path display="inline" fill="#FFFFFF" d="M369.8,71.7c0,0-1.8-34.3-20.3-53.2c-18.6-18.9-35.6-0.3-23.1,16.5
			c12.5,16.9,27.2,39.9,28.8,45.6L369.8,71.7z"/>
		<path display="inline" fill="#F16B66" d="M365.6,75.9c0,0-7.2-46.2-23.8-50S353.5,66.9,365.6,75.9z"/>
		<path display="inline" fill="#FFFFFF" d="M385.2,72.3c0,0-1.3-34.4,15.5-54.8c16.8-20.4,35.4-3.5,24.4,14.4
			c-11,17.9-23.6,42.2-24.6,48L385.2,72.3z"/>
		<path display="inline" fill="#F16B66" d="M389.8,76.1c0,0,3.1-46.7,19.3-52C425.3,19,401.1,66.1,389.8,76.1z"/>
		<path display="inline" fill="#FFFFFF" d="M378.7,63.1c-31.8-2.1-49.7,34.2-45.2,54.5c4.5,20.4,34.9,24.5,46.2,23.5
			c11.4-1,39-1.7,42.4-26.6C425.6,89.7,410.7,65.2,378.7,63.1z"/>
		<path display="inline" fill="#EF504A" d="M372.8,103.2c2.5-5,10.4-2.1,11.7,0.3c1.4,2.4-2.1,5.9-6.2,6.2
			C374.2,110.1,371.4,105.9,372.8,103.2z"/>
		<path display="inline" fill="#F16B66" d="M352.9,177.3c-0.6-1.5-1.7-3.4-1.9-5.2l0.4,0.1c0.3,0.1,0.5-0.1,0.5-0.4
			c0-0.9-0.5-2-0.7-2.9c-0.5-2-1.2-4.1-1.6-6.2c-0.1-0.3-0.5-0.3-0.5,0c0.2,1.9,0.8,3.8,1.2,5.6c0.2,0.9,0.4,1.7,0.6,2.6
			c0.2,0.5,0.4,0.3-0.4,0.1c-0.3-0.1-0.5,0.2-0.5,0.4c-0.1,2,1.2,4.3,2.2,6C352.5,177.9,353,177.7,352.9,177.3z"/>
		<path display="inline" fill="#F16B66" d="M354.8,179.5c-0.2-0.3-0.6,0-0.4,0.3c1,1.5,2,3.1,3.1,4.5c0.1,0.2,0.5,0,0.4-0.2
			C357.2,182.4,355.9,181,354.8,179.5z"/>
		<path display="inline" fill="#F16B66" d="M407.7,162.2c0-0.3-0.4-0.3-0.4,0c-0.1,2.3-0.1,4.5-0.2,6.8c-0.1,0.9-0.2,1.9-0.3,2.8
			c-0.1,0.9,0,1.7-0.6,0.7c-0.2-0.3-0.6-0.2-0.7,0.1c-0.9,2.7-1.8,5.6-3.2,8.1c-0.1,0.2,0.2,0.5,0.4,0.3c1.6-2,2.5-4.8,3.3-7.2
			c0.1,0.2,0.3,0.4,0.6,0.4c0.1,0,0.3,0,0.4-0.1c0.8-0.8,0.6-2.4,0.7-3.5C407.9,167.9,407.8,165,407.7,162.2z"/>
		<path display="inline" fill="#F16B66" d="M401.5,182.5c-0.5,0.6-1,1.2-1.3,1.9c0,0-0.1,0.1-0.1,0.1c0,0,0,0.1,0,0.1
			c-0.1,0.3,0.3,0.4,0.4,0.2c0.5-0.6,0.9-1.3,1.3-1.9C402,182.6,401.6,182.3,401.5,182.5z"/>
		<path display="inline" fill="#F16B66" d="M343.1,184.7c-0.7-0.9-1.8,0.2-2.1,0.9c-0.1,0.3,0.3,0.4,0.4,0.2
			c0.3-0.4,0.8-1.1,1.4-0.7C343,185.2,343.2,184.9,343.1,184.7z"/>
		<path display="inline" fill="#F16B66" d="M344.4,186.1c-0.6,0-1.2,0.3-1.7,0.7c-0.2,0.2,0.1,0.6,0.4,0.4c0.4-0.3,0.9-0.5,1.4-0.6
			C344.7,186.5,344.7,186.1,344.4,186.1z"/>
		<path display="inline" fill="#F16B66" d="M412.3,185.8c-0.3,0.1-0.2,0.5,0.1,0.5c0.3,0,0.6-0.1,0.9-0.1c0.3,0,0.6,0.1,0.9,0.2
			c0.2,0.1,0.4-0.1,0.3-0.3C414.3,185.2,412.8,185.6,412.3,185.8z"/>
		<path display="inline" fill="#F16B66" d="M413.7,184.2c-0.3,0-0.3,0.5,0,0.5c0.4,0,0.6,0.1,0.9,0.3c0.2,0.1,0.4-0.1,0.3-0.2
			C414.7,184.2,414.2,184.2,413.7,184.2z"/>
		<path display="inline" fill="#F16B66" d="M362,139.3c-2.1-0.7-4.3-0.9-6.5-1.4c-0.2,0-0.4,0.1-0.3,0.3c0,0,0,0.1,0,0.1
			c0,0.1,0.2,0.2,0.3,0.1c-0.1,0,2.3,0.8,2.6,0.8c1.2,0.3,2.5,0.4,3.8,0.6C362.1,139.8,362.3,139.4,362,139.3z"/>
		<path display="inline" fill="#F16B66" d="M364.4,139.6c-0.3,0-0.6,0-0.8,0c-0.3,0-0.3,0.5,0,0.5c0.3,0,0.6,0,0.8,0
			C364.7,140,364.7,139.7,364.4,139.6z"/>
		<path display="inline" fill="#F16B66" d="M397.7,138.2c-2.2,0.4-4.3,1.3-6.5,1.7c-0.2,0-0.2,0.4,0.1,0.4c0.9-0.1,1.8-0.4,2.7-0.6
			c1.3-0.3,2.6-0.6,3.9-1C398.1,138.6,398,138.2,397.7,138.2z"/>
		<path display="inline" fill="#F16B66" d="M355.1,68.5c-0.6,0.4-1.1,0.8-1.6,1.3c-0.4,0.4-1,0.9-1.2,1.5c0,0.1,0,0.2,0.1,0.2
			c0,0,0.1,0,0.1,0c0.1,0,0.1-0.1,0.1-0.1c0.5-0.3,0.9-0.8,1.2-1.1c0.5-0.5,1-0.9,1.5-1.3C355.6,68.7,355.3,68.3,355.1,68.5z"/>
		<path display="inline" fill="#F16B66" d="M366.3,64.1c-0.9,0.3-1.7,0.8-2.5,1.2c-0.2,0.1,0,0.5,0.2,0.3c0.8-0.4,1.7-0.8,2.5-1.2
			C366.7,64.4,366.6,64.1,366.3,64.1z"/>
		<path display="inline" fill="#F16B66" d="M388.6,64.3c-1.3-0.5-2.7-1-4.1-1c-0.3,0-0.3,0.4-0.1,0.5c1.4,0.2,2.6,0.7,4,1
			C388.8,64.8,388.9,64.4,388.6,64.3z"/>
		<path display="inline" fill="#F16B66" d="M402.8,69.5c-0.7-0.5-1.5-0.9-2.4-1.2c-0.3-0.1-0.5,0.4-0.2,0.5c0.8,0.4,1.6,0.8,2.4,1.2
			C402.9,70,403,69.6,402.8,69.5z"/>
		<path display="inline" fill="#EF504A" d="M384.3,112.9c-0.5,1.2-1.9,2.8-3.4,2.1c-1.2-0.6-1.5-2.2-1.7-3.3c0,0,0-0.1-0.1-0.1
			c0-1.2-0.2-2.3-0.4-3.1c-0.1-0.4-0.8-0.4-0.9,0c-0.3,1.6-0.1,3.4-0.5,5c-0.3,1.1-1.4,1.8-2.5,1.3c-0.7-0.3-0.9-1.3-1-2
			c0-0.7-1-0.8-1.2-0.2c-0.8,2.6,1,4.8,3.8,4.1c1.2-0.3,1.9-1.1,2.3-2.2c0.4,0.9,1,1.6,1.8,2c1.3,0.5,2.3,0.1,3.4-0.6
			c1-0.7,1.4-1.4,1.4-2.6C385.4,112.7,384.5,112.4,384.3,112.9z"/>
		<path display="inline" fill="#EF504A" d="M363.1,106c-3.6-0.1-7,0.8-10.5,1.6c-3.6,0.9-6.7,2.4-9.4,4.8c-0.3,0.3,0.1,0.8,0.4,0.6
			c5.4-3.9,12.8-6.1,19.5-6.3C363.5,106.7,363.5,106,363.1,106z"/>
		<path display="inline" fill="#EF504A" d="M362.7,111.5c-7.2,0-12.9,5.8-17.4,10.8c-0.3,0.3,0.1,0.7,0.4,0.4
			c4.9-4.5,10-10,16.9-10.6C363.1,112.1,363.1,111.5,362.7,111.5z"/>
		<path display="inline" fill="#EF504A" d="M363.7,115.5c-5.2,2.9-9.7,7.2-12.6,12.4c-0.2,0.4,0.3,0.7,0.6,0.4
			c3.6-4.8,7.2-9.1,12.4-12.2C364.4,115.9,364.1,115.3,363.7,115.5z"/>
		<path display="inline" fill="#EF504A" d="M400.7,121.2c-2.4-2.2-5.1-3.9-8-5.3c-0.3-0.1-0.6,0.3-0.3,0.5c2.3,1.2,4.5,2.6,6.5,4.3
			c1.6,1.4,4.3,3.5,4.9,5.5c0.1,0.3,0.7,0.3,0.6-0.1C404.4,124,402.2,122.6,400.7,121.2z"/>
		<path display="inline" fill="#EF504A" d="M409.2,119.8c-2.4-5.3-9.6-7.7-14.9-9.1c-0.3-0.1-0.5,0.4-0.1,0.5
			c5.5,1.6,11.1,4.1,14.4,8.9C408.9,120.5,409.4,120.2,409.2,119.8z"/>
		<path display="inline" fill="#EF504A" d="M410.6,110.9c-3.1-3.9-9.7-6.3-14.6-5.7c-0.4,0-0.4,0.6,0,0.6c4.9-0.5,10.7,2.1,14.1,5.6
			C410.5,111.7,410.9,111.3,410.6,110.9z"/>
		<path display="inline" fill="#FFFFFF" d="M360.4,172.2c0,0-0.1,0-0.1,0c-0.6-0.1-1.1,0.3-1,1c0.2,0.6,1.1,0.8,1.4,0.2
			c0,0,0.1-0.1,0.1-0.1C361.1,172.9,361,172.2,360.4,172.2z"/>
		<path display="inline" fill="#FFFFFF" d="M399.4,172c-0.4-0.3-0.6-0.4-1.1-0.3c-0.5,0.1-0.6,0.7-0.4,1.1c0.2,0.3,0.4,0.5,0.7,0.6
			C399.4,173.4,400.1,172.5,399.4,172z"/>
		<path display="inline" fill="#EF504A" d="M402.7,99.9c-0.7-0.3-1.6-0.4-2.4-0.2c-0.7,0-1.6,0-1.9,0.6c-0.6,1.1,0.6,1.8,1.6,1.9
			c1,0.1,2.3,0,3-0.6C403.6,101,403.5,100.2,402.7,99.9z"/>
		<path display="inline" fill="#EF504A" d="M357.4,99.9c-0.7-0.3-1.6-0.4-2.4-0.2c-0.7,0-1.6,0-1.9,0.6c-0.6,1.1,0.6,1.8,1.6,1.9
			c1,0.1,2.3,0,3-0.6C358.3,101,358.1,100.2,357.4,99.9z"/>
		<path display="inline" fill="#EE3638" d="M406.9,36.6c-1.3-0.1-2.5,0.9-3.6,1.5c-1,0.5-2.1,1-2.7,2c-0.2,0.3,0.2,0.7,0.5,0.5
			c0.9-0.6,1.8-1,2.8-1.5c1.1-0.5,2.3-0.8,3.3-1.4C407.7,37.5,407.5,36.7,406.9,36.6z"/>
		<path display="inline" fill="#EE3638" d="M409.2,40.2c-2.2-0.1-4.4,1.4-6.3,2.3c-2.3,1.1-4.4,2.4-6.4,4c-0.3,0.2,0.1,0.7,0.4,0.5
			c3.7-2.6,8.1-4.6,12.5-5.8C409.9,41,409.7,40.2,409.2,40.2z"/>
		<path display="inline" fill="#EE3638" d="M402.4,46.9c-1.1,0.5-2.3,1.1-3.3,1.8c-0.3,0.2,0,0.7,0.3,0.5c1.1-0.6,2.3-1.1,3.3-1.8
			C403,47.2,402.7,46.8,402.4,46.9z"/>
		<path display="inline" fill="#EE3638" d="M349.1,40.2c-0.8-1.4-3.6,1.9-4.2,2.4c-0.3,0.3,0.2,0.8,0.5,0.5c0.5-0.4,1-0.9,1.5-1.4
			c0.3-0.2,1.4-1.3,1.8-1.1C349,40.7,349.3,40.5,349.1,40.2z"/>
		<path display="inline" fill="#EE3638" d="M354.2,40.3c-1.4-2.3-8.3,5.3-8.9,6c-0.3,0.3,0.2,0.7,0.4,0.4c1.5-1.6,3.2-3.1,5.1-4.3
			c0.7-0.5,2.1-1.8,3-1.5C354.1,41,354.4,40.6,354.2,40.3z"/>
		<path display="inline" fill="#EE3638" d="M352.2,45.4c-1.5,0.7-2.6,2-3.8,3.2c-0.3,0.3,0.2,0.9,0.5,0.5c1.2-1.1,2.4-2.1,3.7-3.2
			C352.9,45.6,352.6,45.2,352.2,45.4z"/>
		<path display="inline" fill="#FFFFFF" d="M378.6,101.8c-0.5-0.2-1-0.1-1.5,0c-0.4,0.1-0.4,0.7,0,0.8c0.5,0.1,1,0.2,1.5,0
			C378.9,102.4,378.9,101.9,378.6,101.8z"/>
		<path display="inline" fill="#FFFFFF" d="M382.4,103.4c-0.5-0.7-1.5-0.9-2.4-1c-0.5,0-0.5,0.7-0.1,0.8c0.7,0.2,1.3,0.6,2,0.9
			C382.3,104.2,382.6,103.8,382.4,103.4z"/>
		<path display="inline" fill="#95C951" d="M379.3,146.2c-14.8-1.2-17.8-5.3-14.8-8.9c3-3.6,7.4-1.8,7.4-1.8s-0.3-10.4,6.8-11.6
			c7.1-1.2,5.9,11.6,5.9,11.6s5.3-1.8,8.3,3.3C395.9,143.9,386.7,146.8,379.3,146.2z"/>
		<path display="inline" fill="#FCBA36" d="M363.7,146.1c4.4-4.6,26.6-4.6,30.9-1.3s-4,44.9-14.6,47.6
			C369.4,195,357.1,153,363.7,146.1z"/>
		<path display="inline" fill="#FFFFFF" d="M401.3,139.8c-1.8,1-3.2,4.4-4.6,5.3c-2.4,1.7-3.8,3.4-4,6.4c-0.3,5.2,4.1,7.2,11.4,2.1
			c2.6-1.9,5.2-5.7,4.6-9C408,140.9,404.4,138.1,401.3,139.8z"/>
		<path display="inline" fill="#F16B66" d="M405.2,152.5c-3.1,2.7-7.1,4.8-11.3,3c-0.2-0.1-0.3,0.2-0.1,0.3
			c4.1,2.1,8.9,0.4,11.8-2.9C405.8,152.6,405.5,152.2,405.2,152.5z"/>
		<path display="inline" fill="#F16B66" d="M397.6,153.4c-0.4,0-0.7,0.3-1,0.6c-0.2,0.2,0.1,0.6,0.3,0.4c0.3-0.2,0.5-0.4,0.8-0.5
			C398,153.7,397.8,153.4,397.6,153.4z"/>
		<path display="inline" fill="#F16B66" d="M395.6,150.7c-0.2,0.3-0.6,0.6-0.8,0.9c-0.2,0.2,0.1,0.6,0.4,0.4
			c0.3-0.4,0.8-0.7,0.9-1.2C396,150.6,395.7,150.6,395.6,150.7z"/>
		<path display="inline" fill="#FFFFFF" d="M353.7,139.5c1.8,1,4.5,4.1,5.9,5c2.4,1.7,3.8,3.4,4,6.4c0.3,5.2-4.1,7.2-11.4,2.1
			c-2.6-1.9-5.2-5.7-4.6-9C348.3,140.4,350.7,137.9,353.7,139.5z"/>
		<path display="inline" fill="#F16B66" d="M362.6,154.8c-3.9,3.2-9.5-0.5-12.5-3.3c-0.2-0.2-0.5,0.1-0.3,0.3
			c2.9,3.1,9.5,7.4,13.1,3.4C363.1,154.9,362.8,154.6,362.6,154.8z"/>
		<path display="inline" fill="#F16B66" d="M360.2,153.5c-0.5-0.1-1-0.4-1.6-0.3c-0.2,0.1-0.2,0.4,0.1,0.4c0.6,0,1,0.5,1.6,0.4
			C360.4,153.8,360.4,153.5,360.2,153.5z"/>
		<path display="inline" fill="#F16B66" d="M361.5,151.1c-0.3-0.1-0.5-0.3-0.8-0.5c-0.2-0.2-0.6,0.1-0.3,0.3c0.3,0.3,0.6,0.6,1,0.5
			C361.6,151.5,361.7,151.2,361.5,151.1z"/>
		<path display="inline" fill="#982F2A" d="M391.9,88.3c-3.2,0.2-6.6,2.9-6.2,6.4c0.1,0.7,1,0.9,1.2,0.2c0.6-2.3,2.1-3.9,4.5-4.4
			c3.3-0.7,4.5,2.6,5.4,5.1c0.3,0.8,1.3,0.6,1.4-0.2C398.7,91.7,395.6,88,391.9,88.3z"/>
		<path display="inline" fill="#982F2A" d="M363.8,89c-3.8,0-6.4,3.1-5.8,6.9c0.1,0.7,1.1,0.6,1.3,0c0.8-2.6,1.3-4.7,4.5-5
			c2.5-0.2,5.4,0.9,6,3.6c0.1,0.5,1,0.5,1.1,0C371.5,90.7,366.9,89,363.8,89z"/>
		<path display="inline" fill="#BFBEBB" d="M382.9,116.8c-0.1-0.4-0.6-0.3-0.7,0.1c-0.1,0.8-0.1,1.6-0.3,2.3
			c-0.3,1.2-1.4,1.2-2.5,1.4c0,0,0,0,0-0.1c0.2-1.2,0.1-2.5,0-3.6c0-0.4-0.5-0.4-0.6,0c-0.1,1.1-0.2,2.5,0,3.6
			c-0.6,0.1-1.3,0-1.9-0.2c-0.9-0.4-1.3-1.8-1.3-2.7c0-0.4-0.5-0.3-0.5,0c-0.1,1.2,0.4,2.5,1.4,3.2c0.7,0.5,2,0.7,2.8,0.3
			c0.1,0.1,0.1,0.1,0.2,0.1c1.2,0.1,2.5,0,3.2-1.1C383.1,119.2,383.1,117.9,382.9,116.8z"/>
		<path display="inline" fill="#F79735" d="M388.3,153.7c-4.7-1.1-9.6-0.7-14.3-0.2c-2.8,0.3-6.4,0.7-8.5,2.7
			c-0.4,0.4,0.1,0.9,0.5,0.7c6.7-3.3,15-2,22.2-1.8C389,155.1,389.1,153.9,388.3,153.7z"/>
		<path display="inline" fill="#F79735" d="M386.9,170.6c-5.2-2-10.7-1-15.6,1.6c-0.6,0.3-0.2,1.5,0.5,1.2c5-2.1,9.4-1.8,14.6-1
			C387.5,172.5,388,171.1,386.9,170.6z"/>
		<path display="inline" fill="#F79735" d="M382.8,183c-2.7-1.1-5.5-0.7-8.1,0.4c-0.7,0.3-0.2,1.5,0.5,1.2c2.4-0.9,4.7-0.8,7.3-0.4
			C383.3,184.4,383.6,183.3,382.8,183z"/>
		<path display="inline" fill="#F79735" d="M381,187.5c-0.7,0.1-1.3,0.5-1.9,0.8c-0.5,0.3-0.1,1.1,0.5,0.8c0.6-0.3,1.1-0.6,1.7-0.9
			C381.7,188,381.4,187.4,381,187.5z"/>
		<path display="inline" fill="#F79735" d="M382.3,188.1l-0.7,0.3c-0.3,0.2,0,0.7,0.3,0.5c0.2-0.1,0.4-0.3,0.6-0.4
			C382.7,188.3,382.5,187.9,382.3,188.1z"/>
		<path display="inline" fill="#F79735" d="M374.5,175.1c-1.3,0.6-2.4,1.2-3.5,2.1c-0.4,0.3,0.2,0.9,0.6,0.6c1-0.8,2.3-1.4,3.3-2.2
			C375.2,175.4,374.8,174.9,374.5,175.1z"/>
		<path display="inline" fill="#F79735" d="M377.4,174.6c-1.1,0.5-2,1.2-2.9,1.8c-0.4,0.3,0,1,0.4,0.7c0.9-0.7,1.9-1.3,2.8-1.9
			C378.2,174.9,377.9,174.4,377.4,174.6z"/>
		<path display="inline" fill="#F79735" d="M380.2,174.3c-0.3,0.2-0.5,0.4-0.8,0.6c-0.4,0.3,0,1,0.4,0.7c0.3-0.2,0.6-0.5,0.8-0.8
			C380.9,174.5,380.5,174.1,380.2,174.3z"/>
		<path display="inline" fill="#F79735" d="M387.5,163.6c-1.1,0.3-2.2,0.8-3.1,1.5c-0.5,0.3,0,1.1,0.4,0.8c0.9-0.6,2-1,3-1.6
			C388.2,164.1,387.9,163.6,387.5,163.6z"/>
		<path display="inline" fill="#F79735" d="M389.1,164.1c-0.4,0.2-0.7,0.4-1,0.6c-0.4,0.2,0,0.9,0.4,0.6c0.4-0.2,0.7-0.5,1-0.7
			C389.7,164.4,389.4,164,389.1,164.1z"/>
		<path display="inline" fill="#F79735" d="M371.4,150c-1.2,0.4-2.1,1.2-3.1,1.9c-0.5,0.4,0.2,1,0.6,0.6c0.9-0.7,1.8-1.3,2.8-1.9
			C372.1,150.5,371.8,149.8,371.4,150z"/>
		<path display="inline" fill="#F79735" d="M374.4,150c-0.9,0.4-1.7,0.7-2.4,1.3c-0.4,0.3,0,0.9,0.4,0.7c0.8-0.5,1.6-0.9,2.3-1.5
			C374.9,150.3,374.7,149.9,374.4,150z"/>
		<path display="inline" fill="#F79735" d="M371.3,159.7c-0.3,0.1-0.6,0.3-0.9,0.4c-0.5,0.2-0.1,0.9,0.4,0.7
			c0.3-0.2,0.6-0.4,0.9-0.6C372,160,371.6,159.6,371.3,159.7z"/>
		<path display="inline" fill="#F79735" d="M373.9,159.6c-0.4,0.1-0.8,0.3-1.1,0.6c-0.5,0.4,0,1.2,0.6,0.7c0.3-0.2,0.6-0.4,0.9-0.6
			C374.5,160.1,374.3,159.5,373.9,159.6z"/>
		<path display="inline" fill="#FFE658" d="M385.5,144.5c-2.7-0.7-5.3-0.7-8.1-0.2c-0.6,0.1-0.3,1,0.3,0.9c2.7-0.4,5.1-0.1,7.7,0.1
			C385.9,145.3,385.9,144.6,385.5,144.5z"/>
		<path display="inline" fill="#FFE658" d="M391.2,145c-0.9-0.4-1.8-0.5-2.7-0.7c-0.8-0.1-1.1,1-0.3,1.2c0.9,0.2,1.8,0.3,2.8,0.4
			C391.5,145.9,391.7,145.2,391.2,145z"/>
		<path display="inline" fill="#BFDA77" d="M370.8,140.9c-0.6-1-1.8-1.4-2.6-2.1c-0.5-0.5-1.1,0.2-0.7,0.7c0.7,0.8,1.6,1.7,2.6,2.1
			C370.6,141.8,371.1,141.4,370.8,140.9z"/>
		<path display="inline" fill="#BFDA77" d="M372.6,139.9c-0.3-0.5-0.7-0.6-1.2-0.8c-0.5-0.2-0.8,0.6-0.4,0.9
			c0.4,0.2,0.7,0.4,1.1,0.5C372.5,140.6,372.8,140.2,372.6,139.9z"/>
		<path display="inline" fill="#BFDA77" d="M379.1,129.4c-0.1-0.6-1.1-0.4-1,0.1c0.2,1.5,0.3,3,0.3,4.5c0,1.4-0.2,2.8,0,4.3
			c0.1,0.5,0.8,0.7,0.9,0.1C379.7,135.4,379.5,132.3,379.1,129.4z"/>
		<path display="inline" fill="#BFDA77" d="M376.8,138.6c-0.2-0.5-0.4-1.1-0.6-1.6c-0.2-0.5-1.1-0.3-0.9,0.2c0.2,0.7,0.5,1.2,1,1.7
			C376.5,139.3,376.9,138.9,376.8,138.6z"/>
		<path display="inline" fill="#BFDA77" d="M381.2,137.7c-0.2,0.5-0.3,0.9-0.2,1.5c0.1,0.5,0.7,0.4,0.9,0c0.1-0.4,0.2-0.7,0.3-1.1
			C382.3,137.6,381.4,137.2,381.2,137.7z"/>
		<path display="inline" fill="#BFDA77" d="M389.4,137.6c-1.1,0.1-1.9,0.8-2.8,1.4c-0.6,0.4-0.1,1.2,0.5,0.9
			c0.9-0.5,1.8-0.9,2.6-1.5C390.1,138.2,389.8,137.6,389.4,137.6z"/>
		<path display="inline" fill="#BFDA77" d="M390.1,140.1c-0.6-0.1-1.2,0-1.8,0.2c-0.7,0.1-0.4,1.2,0.3,1c0.5-0.1,1-0.2,1.5-0.3
			C390.5,140.8,390.6,140.1,390.1,140.1z"/>
	</g>
	<g display="none">
		<polygon display="inline" fill="#982F2A" points="172.8,341.5 188.3,348.8 200.3,337.8 215.3,349 230,337.8 244.3,348.5 
			254.5,337.3 262,347.5 274.1,347.1 266.5,365.8 175.3,363.3 		"/>
		<g display="inline">
			<path fill="#FFFFFF" d="M216.2,294.7c0,0-1.8-34.3-20.3-53.2c-18.6-18.9-35.6-0.3-23.1,16.5c12.5,16.9,27.2,39.9,28.8,45.6
				L216.2,294.7z"/>
			<path fill="#F16B66" d="M212,298.9c0,0-7.2-46.2-23.8-50C171.6,245.1,199.9,290,212,298.9z"/>
			<path fill="#FFFFFF" d="M231.7,295.4c0,0-1.3-34.4,15.5-54.8c16.8-20.4,35.4-3.5,24.4,14.4c-11,17.9-23.6,42.2-24.6,48
				L231.7,295.4z"/>
			<path fill="#F16B66" d="M236.3,299.2c0,0,3.1-46.7,19.3-52C271.7,242,247.5,289.2,236.3,299.2z"/>
			<path fill="#FFFFFF" d="M225.1,286.2c-31.8-2.1-49.7,34.2-45.2,54.5c4.5,20.4,34.9,24.5,46.2,23.5c11.4-1,39-1.7,42.4-26.6
				C272.1,312.8,257.2,288.3,225.1,286.2z"/>
			<path fill="#EF504A" d="M219.3,326.2c2.5-5,10.4-2.1,11.7,0.3c1.4,2.4-2.1,5.9-6.2,6.2C220.7,333.1,217.9,329,219.3,326.2z"/>
			<path fill="#F16B66" d="M201.6,291.5c-0.6,0.4-1.1,0.8-1.6,1.3c-0.4,0.4-1,0.9-1.2,1.5c0,0.1,0,0.2,0.1,0.2c0,0,0.1,0,0.1,0
				c0.1,0,0.1-0.1,0.1-0.1c0.5-0.3,0.9-0.8,1.2-1.1c0.5-0.5,1-0.9,1.5-1.3C202.1,291.7,201.8,291.3,201.6,291.5z"/>
			<path fill="#F16B66" d="M212.8,287.2c-0.9,0.3-1.7,0.8-2.5,1.2c-0.2,0.1,0,0.5,0.2,0.3c0.8-0.4,1.7-0.8,2.5-1.2
				C213.2,287.4,213,287.1,212.8,287.2z"/>
			<path fill="#F16B66" d="M235.1,287.3c-1.3-0.5-2.7-1-4.1-1c-0.3,0-0.3,0.4-0.1,0.5c1.4,0.2,2.6,0.7,4,1
				C235.3,287.8,235.4,287.4,235.1,287.3z"/>
			<path fill="#F16B66" d="M249.3,292.5c-0.7-0.5-1.5-0.9-2.4-1.2c-0.3-0.1-0.5,0.4-0.2,0.5c0.8,0.4,1.6,0.8,2.4,1.2
				C249.4,293,249.5,292.6,249.3,292.5z"/>
			<path fill="#EF504A" d="M230.7,336c-0.5,1.2-1.9,2.8-3.4,2.1c-1.2-0.6-1.5-2.2-1.7-3.3c0,0,0-0.1-0.1-0.1c0-1.2-0.2-2.3-0.4-3.1
				c-0.1-0.4-0.8-0.4-0.9,0c-0.3,1.6-0.1,3.4-0.5,5c-0.3,1.1-1.4,1.8-2.5,1.3c-0.7-0.3-0.9-1.3-1-2c0-0.7-1-0.8-1.2-0.2
				c-0.8,2.6,1,4.8,3.8,4.1c1.2-0.3,1.9-1.1,2.3-2.2c0.4,0.9,1,1.6,1.8,2c1.3,0.5,2.3,0.1,3.4-0.6c1-0.7,1.4-1.4,1.4-2.6
				C231.9,335.7,231,335.4,230.7,336z"/>
			<g>
				<path fill="#982F2A" d="M240.7,315.7c-0.4-0.7-1-1.2-1.9-1.2c-1,0-1.9,0.8-2.4,1.7c-0.8,1.6-1.2,4.7-0.4,6.3
					c1.2,2.4,3.6,1.9,4.6-0.3C241.1,320.9,241.6,317.5,240.7,315.7z"/>
				<path fill="#FFFFFF" d="M237.4,316.1c-0.5,0.4-0.6,0.8-0.7,1.4c-0.1,0.8,1.3,0.9,1.3,0c0-0.3,0-0.5,0.1-0.8
					C238.3,316.3,237.7,315.9,237.4,316.1z"/>
				<path fill="#FFFFFF" d="M237.4,318.9l-0.3-0.1c-0.7-0.2-0.7,1.1,0,0.9l0.3-0.1C237.8,319.4,237.8,319,237.4,318.9z"/>
			</g>
			<g>
				<path fill="#982F2A" d="M211.8,315.7c-0.4-0.7-1-1.2-1.9-1.2c-1,0-1.9,0.8-2.4,1.7c-0.8,1.6-1.2,4.7-0.4,6.3
					c1.2,2.4,3.6,1.9,4.6-0.3C212.1,320.9,212.7,317.5,211.8,315.7z"/>
				<path fill="#FFFFFF" d="M208.5,316.1c-0.5,0.4-0.6,0.8-0.7,1.4c-0.1,0.8,1.3,0.9,1.3,0c0-0.3,0-0.5,0.1-0.8
					C209.4,316.3,208.8,315.9,208.5,316.1z"/>
				<path fill="#FFFFFF" d="M208.5,318.9l-0.3-0.1c-0.7-0.2-0.7,1.1,0,0.9l0.3-0.1C208.8,319.4,208.8,319,208.5,318.9z"/>
			</g>
			<path fill="#EF504A" d="M209.5,329c-3.6-0.1-7,0.8-10.5,1.6c-3.6,0.9-6.7,2.4-9.4,4.8c-0.3,0.3,0.1,0.8,0.4,0.6
				c5.4-3.9,12.8-6.1,19.5-6.3C210,329.7,210,329,209.5,329z"/>
			<path fill="#EF504A" d="M209.2,334.6c-7.2,0-12.9,5.8-17.4,10.8c-0.3,0.3,0.1,0.7,0.4,0.4c4.9-4.5,10-10,16.9-10.6
				C209.6,335.1,209.6,334.5,209.2,334.6z"/>
			<path fill="#EF504A" d="M210.2,338.6c-5.2,2.9-9.7,7.2-12.6,12.4c-0.2,0.4,0.3,0.7,0.6,0.4c3.6-4.8,7.2-9.1,12.4-12.2
				C210.9,338.9,210.6,338.4,210.2,338.6z"/>
			<path fill="#EF504A" d="M247.2,344.3c-2.4-2.2-5.1-3.9-8-5.3c-0.3-0.1-0.6,0.3-0.3,0.5c2.3,1.2,4.5,2.6,6.5,4.3
				c1.6,1.4,4.3,3.5,4.9,5.5c0.1,0.3,0.7,0.3,0.6-0.1C250.8,347.1,248.6,345.6,247.2,344.3z"/>
			<path fill="#EF504A" d="M255.6,342.9c-2.4-5.3-9.6-7.7-14.9-9.1c-0.3-0.1-0.5,0.4-0.1,0.5c5.5,1.6,11.1,4.1,14.4,8.9
				C255.3,343.6,255.8,343.3,255.6,342.9z"/>
			<path fill="#EF504A" d="M257.1,334c-3.1-3.9-9.7-6.3-14.6-5.7c-0.4,0-0.4,0.6,0,0.6c4.9-0.5,10.7,2.1,14.1,5.6
				C256.9,334.7,257.3,334.3,257.1,334z"/>
			<path fill="#EF504A" d="M249.2,322.9c-0.7-0.3-1.6-0.4-2.4-0.2c-0.7,0-1.6,0-1.9,0.6c-0.6,1.1,0.6,1.8,1.6,1.9c1,0.1,2.3,0,3-0.6
				C250.1,324,249.9,323.3,249.2,322.9z"/>
			<path fill="#EF504A" d="M203.9,322.9c-0.7-0.3-1.6-0.4-2.4-0.2c-0.7,0-1.6,0-1.9,0.6c-0.6,1.1,0.6,1.8,1.6,1.9c1,0.1,2.3,0,3-0.6
				C204.7,324,204.6,323.3,203.9,322.9z"/>
			<path fill="#EE3638" d="M253.4,259.7c-1.3-0.1-2.5,0.9-3.6,1.5c-1,0.5-2.1,1-2.7,2c-0.2,0.3,0.2,0.7,0.5,0.5
				c0.9-0.6,1.8-1,2.8-1.5c1.1-0.5,2.3-0.8,3.3-1.4C254.2,260.5,254,259.7,253.4,259.7z"/>
			<path fill="#EE3638" d="M255.7,263.2c-2.2-0.1-4.4,1.4-6.3,2.3c-2.3,1.1-4.4,2.4-6.4,4c-0.3,0.2,0.1,0.7,0.4,0.5
				c3.7-2.6,8.1-4.6,12.5-5.8C256.3,264,256.2,263.2,255.7,263.2z"/>
			<path fill="#EE3638" d="M248.9,270c-1.1,0.5-2.3,1.1-3.3,1.8c-0.3,0.2,0,0.7,0.3,0.5c1.1-0.6,2.3-1.1,3.3-1.8
				C249.5,270.2,249.2,269.8,248.9,270z"/>
			<path fill="#EE3638" d="M195.6,263.2c-0.8-1.4-3.6,1.9-4.2,2.4c-0.3,0.3,0.2,0.8,0.5,0.5c0.5-0.4,1-0.9,1.5-1.4
				c0.3-0.2,1.4-1.3,1.8-1.1C195.5,263.8,195.7,263.5,195.6,263.2z"/>
			<path fill="#EE3638" d="M200.7,263.3c-1.4-2.3-8.3,5.3-8.9,6c-0.3,0.3,0.2,0.7,0.4,0.4c1.5-1.6,3.2-3.1,5.1-4.3
				c0.7-0.5,2.1-1.8,3-1.5C200.6,264,200.9,263.6,200.7,263.3z"/>
			<path fill="#EE3638" d="M198.7,268.4c-1.5,0.7-2.6,2-3.8,3.2c-0.3,0.3,0.2,0.9,0.5,0.5c1.2-1.1,2.4-2.1,3.7-3.2
				C199.4,268.7,199,268.2,198.7,268.4z"/>
		</g>
		<path display="inline" fill="#EF504A" d="M263.9,356.6c-0.9,1.4-11.7-10.8-11.7-10.8l-9.5,10.3l-14.5-11.2L213.7,358l-15-13.5
			l-12.6,14.1l-13.4-17.1c-9.3,39.2,1.7,85.4,48.7,84.5c44-0.9,58.7-41.8,52.6-78.9C268.9,351.7,264.3,356,263.9,356.6z"/>
		<path display="inline" fill="#EF504A" d="M276,341c0,0,6.5-11.8,7.5-12.3s6.3,4.5,6.3,4.5S278,341,276,341z"/>
		<path display="inline" fill="#EF504A" d="M277.3,346c0,0,7.5-1.8,8.8-1.5s1,5.3,1,5.3L277.3,346z"/>
		<path display="inline" fill="#EF504A" d="M168.6,335c-0.9-0.2-11.2-4-12.3-4.6c-1.1-0.7,3.6-6.5,5-7.1S168.6,335,168.6,335z"/>
		<path display="inline" fill="#EF504A" d="M167.7,341.3c0,0-7.8-3.6-8.8-3.4c-1,0.1-2.8,6.1-1.2,6.6
			C159.2,345,167.7,341.3,167.7,341.3z"/>
		<path display="inline" fill="#EF504A" d="M172.3,331c0,0-2.5-6.5-2.5-7.8s3.8-0.5,4.8-0.5S172.3,331,172.3,331z"/>
		<path display="inline" fill="#EF504A" d="M273.3,332.5c0,0-0.5-6.5,0.3-7.3s3.5,0.8,4.3,1S273.3,332.5,273.3,332.5z"/>
		<path display="inline" fill="#FCB63D" d="M270.7,363.1c-2.9,2-7.4,2.9-10.7,4.1c-4,1.5-8.2,2.5-12.3,3.5c-8.5,2-17.1,1.8-25.8,2.3
			c-16.3,0.9-35.4-0.2-48.6-11c-0.7-0.5-1.5,0.3-0.9,0.9c5.4,6.1,13.3,9.7,21.2,11.4c9.3,1.9,18.9,2.9,28.4,2.3
			c9.8-0.6,19-0.2,28.7-2.5c4.8-1.1,9.4-2.7,13.9-4.5c2.6-1,7-1.6,8.5-4.3C273.6,364,272.1,362.1,270.7,363.1z"/>
		<path display="inline" fill="#FCB63D" d="M264.2,396.1c-0.1-0.1-0.2-0.1-0.2-0.2c-0.7-0.5-1.6-0.1-2,0.5c-4.5,2.7-9.9,3.5-15,4.5
			c-7.6,1.6-14.9,2.5-22.7,2.6c-7.8,0.1-15.7-0.2-23.3-1.5c-7-1.1-16.3-3.4-21.7-8.2c-0.5-0.4-1.1,0.2-0.7,0.7
			c4.4,5.3,12.1,7.5,18.5,9.5c8.2,2.5,17,2.6,25.5,2.9c8.6,0.3,17.1-0.7,25.4-2.5c5.3-1.2,13.2-1.5,16.8-6.2
			C265.3,397.6,264.9,396.6,264.2,396.1z"/>
		<path display="inline" fill="#FFFFFF" d="M271.3,373.5c-0.7-0.3-1.7-0.3-2.4,0.3c-0.8,0.7-1.2,1.7-1.7,2.6c-1,2-2.9,3.8-4.1,5.6
			c-0.9,1.3-1.6,2.6-2.3,4c-0.4,0.8-3.4-1.9-3.8-2.1c-2.1-1.6-7-5.7-9.6-3.3c-1.6,1.5-2.7,3.2-3.8,5c-0.8,1.2-1.5,2.4-2.3,3.6
			c-1.7,2.8-4.9-0.1-7.1-1.2c-3.6-1.8-9.3-9.5-13.5-6.4c-1.9,1.3-3.5,3.5-4.9,5.2c-1,1.1-1.9,2.3-2.8,3.4c-1.9,2.3-2.5,1.9-4.7-0.2
			c-2.3-2.2-4.3-4.6-6.4-6.9c-1.3-1.4-2.5-3.8-4.2-4.8c-0.7-0.4-1.8-0.3-2.4,0.2c-2.4,2.4-4.7,4.9-7.4,7.1c-0.7,0.6-1.4,1.1-2.1,1.8
			c-1.4,1.3-2.8-1.6-3.7-2.7c-2.5-3-4.5-6.2-7-9.2c-0.4-0.5-1.2,0-1.1,0.6c0,0.1,0,0.1,0.1,0.2c0,0.2,0.1,0.3,0.2,0.3
			c2.9,4.5,5.6,10.7,9.8,14c0.5,0.4,1,0.5,1.7,0.2c4-1.8,7.9-6.2,11-9.2c0.1,0.2,0.2,0.4,0.4,0.6c0.4,0.7,0.9,1.2,1.5,1.9
			c2.3,2.8,4.9,5.4,7.5,8c3.1,3.1,5.1,4.5,8.2,1.2c2.4-2.5,4.4-5.4,6.9-7.8c2.9-2.9,6.2,1.6,8.8,3.6c2.2,1.7,9.4,7,12.3,4.2
			c1.8-1.7,3-3.9,4.3-6c0.9-1.3,1.6-2.5,2.8-3.7c0.2,0.1,0.4,0.3,0.7,0.4c2.6,1.7,5.2,3.1,7.7,4.9c1,0.7,2.8,2,4.1,1.1
			c2.2-1.5,3-4.1,4.4-6.3c1.8-2.9,4.3-5.3,5.6-8.4C272.4,374.5,272,373.8,271.3,373.5z"/>
		<path display="inline" fill="#FFFFFF" d="M250.2,408.7c0,0-0.1,0-0.1,0c-0.5-0.1-1,0.2-1.3,0.6c-2.7,2.7-4.8,6.1-9.3,4.8
			c-2.6-0.8-6.4-3.7-9.1-3.8c-4.4-0.1-10.3,10.2-14,7.9c-3.3-2.1-5.9-8.3-10.3-6.1c-1.8,0.9-8.4,5.6-10.3,3c-1.8-2.6-4.1-5-6.3-7.2
			c-0.6-0.6-1.4,0.3-0.9,0.9c2.3,2.8,4.2,6.5,6.7,9.1c1.5,1.5,3.9,0.5,5.5-0.2c1.9-0.8,3.8-1.7,5.7-2.5c2.2-1,1.9-0.1,3.5,1.6
			c1.5,1.5,4.9,5.5,7.5,5.3c2.7-0.2,4.3-2.5,6.4-4.1c1.9-1.4,3.6-3,5.5-4.4c0.8-0.6,5.4,1.9,5.7,2c2.6,1.1,6.1,3,9.1,2.2
			c2.6-0.7,5.4-5,6.7-7.2C251.2,409.8,250.9,408.9,250.2,408.7z"/>
		<path display="inline" fill="#FFFFFF" d="M270.2,354.6c-1.5,1.2-2.9,2.4-4.2,3.8c-2.2,2.3-4.7,0.4-7.3-0.9c-2.5-1.3-4-3.7-7-3.5
			c-2,0.1-4,3.7-5.2,5.1c-3.6,4.4-10.8,0.9-15-1.1c-2.4-1.1-3.9-3.1-6.3-1.3c-3,2.2-5.5,5.1-8,7.8c-5,5.4-13.7-8.4-18.9-9.9
			c-0.4-0.1-0.9,0-1.2,0.3c-2.9,3.1-7.6,5.2-11,7.9c-2.5,2-3.1-0.3-4.9-2.3c-2.2-2.4-3.9-5.1-5.9-7.8c-0.4-0.6-1.4,0-1,0.6
			c2.8,4.2,5.5,9.1,9.3,12.5c0.3,0.3,0.7,0.3,1.1,0.1c4.5-2.2,8-6.5,12.8-8.4c2.5-1,8.8,6.6,11.2,8.2c2.2,1.5,5.5,4.3,8.2,2.7
			c4.2-2.5,7.4-10.8,12.9-7.7c3.8,2.1,9,3.7,13.3,4c3.6,0.2,6-4.3,8-6.7c1.6-1.9,3.1,0.2,4.6,1.3c2.3,1.6,5.2,2.5,7.9,3.4
			c3.3,1.1,6.3-4.6,7.8-6.7C272.2,355.2,271,354,270.2,354.6z"/>
		<path display="inline" fill="#FFFFFF" d="M175.3,387.1c-2.1,0-2.1,3.3,0,3.3S177.4,387.1,175.3,387.1z"/>
		<path display="inline" fill="#FFFFFF" d="M194.8,393.6c-1.4-0.8-2.8,0.6-2.4,2c0.1,0.9,1.1,1.6,1.9,1c0,0,0.1,0,0.1,0
			C195.9,396.3,196,394.2,194.8,393.6z"/>
		<path display="inline" fill="#FFFFFF" d="M225.9,395.4c-0.4-0.4-1-0.4-1.5-0.2c0,0,0,0,0,0c-0.9,0-1.7,0.7-1.7,1.7
			c0,0.6,0.3,1.1,0.8,1.4c0,0,0,0,0.1,0c1,0.7,2.7-0.2,2.6-1.5c0-0.1,0.1-0.2,0.1-0.3C226.3,396.2,226.1,395.7,225.9,395.4z"/>
		<path display="inline" fill="#FFFFFF" d="M251.3,393.3c-0.9,0-1.6,0.7-1.6,1.6s0.7,1.6,1.6,1.6c0.9,0,1.6-0.7,1.6-1.6
			S252.1,393.3,251.3,393.3z"/>
		<path display="inline" fill="#FFFFFF" d="M266.5,390.3c-1.9,0-1.9,3,0,3S268.4,390.3,266.5,390.3z"/>
		<path display="inline" fill="#FFFFFF" d="M174,357.7c-1.7,0-1.7,2.7,0,2.7C175.7,360.3,175.7,357.7,174,357.7z"/>
		<path display="inline" fill="#FFFFFF" d="M199.2,364.5c-0.9,0-1.6,0.7-1.6,1.6c0,0.9,0.7,1.6,1.6,1.6c0.9,0,1.6-0.7,1.6-1.6
			C200.9,365.2,200.1,364.5,199.2,364.5z"/>
		<path display="inline" fill="#FFFFFF" d="M228.3,364.5c-2.2,0-2.2,3.4,0,3.4C230.5,368,230.5,364.5,228.3,364.5z"/>
		<path display="inline" fill="#FFFFFF" d="M255.6,363.3c-0.2-0.8-1.2-1.5-2.1-1.2c0,0-0.1,0-0.1,0.1c-0.9,0.3-1.4,1.2-1.2,2.1
			c0.2,0.8,1.2,1.5,2.1,1.2l0.1-0.1C255.3,365,255.9,364.2,255.6,363.3z"/>
		<path display="inline" fill="#FFFFFF" d="M207.3,418.8c-0.8,0-1.4,0.6-1.4,1.4s0.6,1.4,1.4,1.4c0.8,0,1.4-0.6,1.4-1.4
			S208,418.8,207.3,418.8z"/>
		<path display="inline" fill="#FFFFFF" d="M230.3,420.6c-0.1-0.2-0.3-0.4-0.5-0.6c-0.4-0.4-1.2-0.4-1.6,0c-0.2,0.2-0.3,0.4-0.5,0.6
			c-0.4,0.6-0.2,1.3,0.2,1.8c0,0,0.1,0.1,0.1,0.1c0.5,0.5,1.4,0.5,1.9,0c0,0,0.1-0.1,0.1-0.1C230.5,421.9,230.7,421.1,230.3,420.6z"
			/>
	</g>
	<g display="none">
		
			<ellipse transform="matrix(0.9495 -0.3138 0.3138 0.9495 -24.3036 89.7412)" display="inline" fill="#FFFFFF" cx="266.6" cy="120.4" rx="13.8" ry="13.8"/>
		<path display="inline" fill="#FFFFFF" d="M199,155.8c0,0-8.7,16-1.7,19.5c7,3.5,13.8-8.8,16-13.8S199,155.8,199,155.8z"/>
		<path display="inline" fill="#FFFFFF" d="M185.7,146.5c0,0-12.3,13.4-6.4,18.5c5.9,5.1,15.5-5.1,18.9-9.5
			C201.5,151.1,185.7,146.5,185.7,146.5z"/>
		<path display="inline" fill="#FFFFFF" d="M267.6,149.8c0,0,15.5,9.6,19.4,2.9c3.9-6.8-7.9-14.3-12.9-16.8
			C269.1,133.5,267.6,149.8,267.6,149.8z"/>
		<path display="inline" fill="#FFFFFF" d="M254.7,163.8c0,0,12.7,13.1,18.1,7.5c5.4-5.6-4.2-15.8-8.4-19.4
			C260.1,148.3,254.7,163.8,254.7,163.8z"/>
		<path display="inline" fill="#FFFFFF" d="M188.1,150.4c0.8,0.2,41.6,32.5,71.6,10.7c27.2-19.6,8.8-45.1-9.8-50.3
			c-18.7-5.2-37.2-5.6-37.2-5.6L188.1,150.4z"/>
		<g display="inline">
			<path fill="#FFFFFF" d="M202.3,82.9c0,0,15.2-30.8,8.3-56.4c-7-25.5-30.9-17.7-28.2,3.2c2.7,20.8,4.2,48.1,2.8,53.9L202.3,82.9z"
				/>
			<path fill="#F16B66" d="M196.6,84.6c0,0,16.3-43.9,3.7-55.3C187.7,17.8,190.5,70.8,196.6,84.6z"/>
			<path fill="#FFFFFF" d="M214.5,87.5c0,0,9.9-32.9,32.4-46.8c22.5-13.9,34.6,8.2,18.4,21.6c-16.2,13.4-35.9,32.3-38.8,37.5
				L214.5,87.5z"/>
			<path fill="#F16B66" d="M217.6,92.6c0,0,18.1-43.2,35.1-42.9C269.7,49.9,231.5,86.8,217.6,92.6z"/>
			<path fill="#FFFFFF" d="M198.4,76.9c-31.8-2.1-49.7,34.2-45.2,54.5s34.9,24.5,46.2,23.5c11.4-1,39-1.7,42.4-26.6
				C245.3,103.5,230.4,79,198.4,76.9z"/>
			<path fill="#EF504A" d="M185.6,113.6c2.5-5,10.4-2.1,11.7,0.3c1.4,2.4-2.1,5.9-6.2,6.2S184.3,116.3,185.6,113.6z"/>
			<path fill="#EF504A" d="M197.1,123.3c-0.5,1.2-1.9,2.8-3.4,2.1c-1.2-0.6-1.5-2.2-1.7-3.3c0,0,0-0.1-0.1-0.1
				c0-1.2-0.2-2.3-0.4-3.1c-0.1-0.4-0.8-0.4-0.9,0c-0.3,1.6-0.1,3.4-0.5,5c-0.3,1.1-1.4,1.8-2.5,1.3c-0.7-0.3-0.9-1.3-1-2
				c0-0.7-1-0.8-1.2-0.2c-0.8,2.6,1,4.8,3.8,4.1c1.2-0.3,1.9-1.1,2.3-2.2c0.4,0.9,1,1.6,1.8,2c1.3,0.5,2.3,0.1,3.4-0.6
				c1-0.7,1.4-1.4,1.4-2.6C198.3,123.1,197.4,122.8,197.1,123.3z"/>
			<path fill="#EF504A" d="M175.9,116.3c-3.6-0.1-7,0.8-10.5,1.6c-3.6,0.9-6.7,2.4-9.4,4.8c-0.3,0.3,0.1,0.8,0.4,0.6
				c5.4-3.9,12.8-6.1,19.5-6.3C176.3,117.1,176.3,116.4,175.9,116.3z"/>
			<path fill="#EF504A" d="M175.5,121.9c-7.2,0-12.9,5.8-17.4,10.8c-0.3,0.3,0.1,0.7,0.4,0.4c4.9-4.5,10-10,16.9-10.6
				C175.9,122.5,176,121.9,175.5,121.9z"/>
			<path fill="#EF504A" d="M176.5,125.9c-5.2,2.9-9.7,7.2-12.6,12.4c-0.2,0.4,0.3,0.7,0.6,0.4c3.6-4.8,7.2-9.1,12.4-12.2
				C177.2,126.3,176.9,125.7,176.5,125.9z"/>
			<path fill="#EF504A" d="M213.5,131.6c-2.4-2.2-5.1-3.9-8-5.3c-0.3-0.1-0.6,0.3-0.3,0.5c2.3,1.2,4.5,2.6,6.5,4.3
				c1.6,1.4,4.3,3.5,4.9,5.5c0.1,0.3,0.7,0.3,0.6-0.1C217.2,134.4,215,133,213.5,131.6z"/>
			<path fill="#EF504A" d="M222,130.2c-2.4-5.3-9.6-7.7-14.9-9.1c-0.3-0.1-0.5,0.4-0.1,0.5c5.5,1.6,11.1,4.1,14.4,8.9
				C221.7,130.9,222.2,130.6,222,130.2z"/>
			<path fill="#EF504A" d="M223.4,121.3c-3.1-3.9-9.7-6.3-14.6-5.7c-0.4,0-0.4,0.6,0,0.6c4.9-0.5,10.7,2.1,14.1,5.6
				C223.3,122.1,223.7,121.6,223.4,121.3z"/>
			<path fill="#EF504A" d="M215.6,110.3c-0.7-0.3-1.6-0.4-2.4-0.2c-0.7,0-1.6,0-1.9,0.6c-0.6,1.1,0.6,1.8,1.6,1.9c1,0.1,2.3,0,3-0.6
				C216.4,111.4,216.3,110.6,215.6,110.3z"/>
			<path fill="#EF504A" d="M170.2,110.3c-0.7-0.3-1.6-0.4-2.4-0.2c-0.7,0-1.6,0-1.9,0.6c-0.6,1.1,0.6,1.8,1.6,1.9c1,0.1,2.3,0,3-0.6
				C171.1,111.4,170.9,110.6,170.2,110.3z"/>
			<path fill="#EE3638" d="M246.6,60.8c-1.2-0.5-2.7,0.1-3.9,0.3c-1.1,0.2-2.3,0.3-3.2,1c-0.3,0.2,0,0.7,0.3,0.6
				c1.1-0.2,2.1-0.4,3.2-0.5c1.2-0.1,2.5,0,3.6-0.3C247,61.8,247.1,61,246.6,60.8z"/>
			<path fill="#EE3638" d="M247.6,64.9c-2-0.8-4.6-0.1-6.7,0.1c-2.5,0.3-5,0.9-7.3,1.7c-0.3,0.1-0.1,0.6,0.2,0.6
				c4.4-1.3,9.1-1.7,13.7-1.5C248,65.8,248.1,65,247.6,64.9z"/>
			<path fill="#EE3638" d="M239,69c-1.3,0.1-2.5,0.3-3.7,0.6c-0.4,0.1-0.3,0.7,0.1,0.6c1.2-0.3,2.5-0.3,3.7-0.7
				C239.5,69.5,239.4,69,239,69z"/>
			<path fill="#EE3638" d="M199.8,45.4c0-1.6-4.1-0.1-4.8,0.1c-0.4,0.1-0.2,0.7,0.2,0.6c0.7-0.1,1.3-0.3,1.9-0.5
				c0.3-0.1,1.9-0.5,2.1-0.1C199.4,45.8,199.7,45.7,199.8,45.4z"/>
			<path fill="#EE3638" d="M204.1,47.9c-0.1-2.7-9.8,0.5-10.7,0.9c-0.4,0.1-0.2,0.7,0.2,0.6c2.1-0.7,4.3-1.1,6.5-1.3
				c0.8-0.1,2.7-0.5,3.3,0.1C203.7,48.5,204.1,48.3,204.1,47.9z"/>
			<path fill="#EE3638" d="M199.9,51.4c-1.6-0.1-3.3,0.5-4.8,1c-0.5,0.1-0.3,0.8,0.2,0.7c1.6-0.4,3.2-0.6,4.7-1
				C200.4,52,200.3,51.4,199.9,51.4z"/>
			<path fill="#982F2A" d="M204.2,100.1c-3.5-0.4-6.8,3.3-7,6.5c0,0.7,1,1,1.3,0.3c0.9-2,2.7-4.2,5.1-4.5c1.7-0.2,2.6,1,3.1,2.4
				c0.1,0.3,0.7,2.1,0.7,1.9c-0.1,0.4,0,0.6,0.3,0.8c0,0,0,0,0.1,0c0.5,0.3,1.1,0,1.3-0.5C210.1,104,207.2,100.4,204.2,100.1z"/>
			<path fill="#982F2A" d="M179,101.8c-2.7-0.1-4.8,2.1-4.6,4.7c0.1,0.8,1.2,0.8,1.3,0c0.1-1.6,1.3-2.8,2.9-2.9
				c2-0.1,2.3,2.4,2.8,3.7c0.2,0.7,1.3,0.8,1.5,0C183.5,104.9,181.7,101.9,179,101.8z"/>
			<path fill="#F16B66" d="M190.4,76.2c-1.5,0-2.9,0.4-4.3,0.5c-0.4,0-0.5,0.7,0,0.7c1.5-0.1,2.9-0.3,4.3-0.5
				C190.9,76.9,190.9,76.2,190.4,76.2z"/>
			<path fill="#F16B66" d="M204.5,76.5c-1.1-0.2-2.3-0.3-3.4-0.2c-0.6,0-0.6,0.9,0,0.9c1.1,0,2.2,0.2,3.3,0.1
				C204.8,77.3,205,76.6,204.5,76.5z"/>
			<path fill="#F16B66" d="M219.5,81.9c-0.9-0.7-2-1.2-2.9-1.9c-0.3-0.2-0.7,0.3-0.4,0.5c0.9,0.8,1.9,1.4,2.9,1.9
				C219.4,82.5,219.8,82.1,219.5,81.9z"/>
			<path fill="#F16B66" d="M234,93.7c-1.3-2-3.3-3.3-5.2-4.8c-0.4-0.3-1,0.2-0.6,0.6c1.8,1.5,3.7,2.9,5.2,4.6
				C233.8,94.5,234.3,94.1,234,93.7z"/>
		</g>
		<path display="inline" fill="#F16B66" d="M194,153c-0.5,0-1,0.1-1.4,0.1c-0.5,0-1.2,0.3-0.8-0.2c0.3-0.3,0.1-0.9-0.4-0.9
			c-1.1,0-2.3,0.4-3.4,0.6c-1.7,0.3-3.4,0.4-5.1,0.6c-0.4,0-0.4,0.6,0,0.6c1.5,0.1,2.9,0,4.3-0.2c1-0.1,2.1-0.5,3.2-0.6
			c0,0.1,0,0.2,0,0.3c0,0.2,0.1,0.4,0.4,0.5c1,0.4,2.2,0.1,3.2-0.1C194.5,153.6,194.4,152.9,194,153z"/>
		<path display="inline" fill="#F16B66" d="M206.1,160.7c-2.5-1.4-5.2-2.2-7.5-3.8c-0.2-0.2-0.5,0.2-0.3,0.4c2.1,1.9,5,2.8,7.5,3.9
			C206.2,161.4,206.5,160.9,206.1,160.7z"/>
		<path display="inline" fill="#F16B66" d="M211,162.5c-0.8-0.4-1.7-0.7-2.5-0.9c-0.4-0.1-0.5,0.5-0.2,0.6c0.8,0.3,1.7,0.5,2.5,0.8
			C211,163,211.2,162.6,211,162.5z"/>
		<path display="inline" fill="#F16B66" d="M181.5,158.7c-0.8-0.3-1.5,0.5-1.9,1.1c-0.5,0.7-1,1.7-0.6,2.5c0.2,0.3,0.6,0.2,0.7-0.1
			c0.2-0.6,0.4-1.1,0.8-1.6c0.2-0.3,0.6-0.9,1-1C181.9,159.5,181.9,158.9,181.5,158.7z"/>
		<path display="inline" fill="#F16B66" d="M184.4,161c-0.6,0.1-1.4,0-1.9,0.5c-0.5,0.5-0.7,1.1-0.8,1.7c-0.1,0.4,0.5,0.7,0.7,0.3
			c0.2-0.4,0.4-0.9,0.8-1.2c0.4-0.3,1-0.4,1.5-0.6C185,161.5,184.8,160.9,184.4,161z"/>
		<path display="inline" fill="#F16B66" d="M198.9,167.9c-1.7,0.5-1.4,2.5-1.2,3.9c0,0.4,0.7,0.5,0.7,0c0.1-1.1,0-2.4,0.9-3.2
			C199.6,168.3,199.3,167.8,198.9,167.9z"/>
		<path display="inline" fill="#F16B66" d="M202.7,170.2c-0.3,0.3-0.6,0.6-0.9,1.1c-0.2,0.4-0.2,0.9-0.5,1.4
			c-0.2,0.3,0.2,0.6,0.5,0.4c0.4-0.3,0.5-0.8,0.7-1.2c0.3-0.4,0.6-0.8,0.8-1.3C203.5,170.2,203,170,202.7,170.2z"/>
		<path display="inline" fill="#F16B66" d="M268.9,170.5c-0.5-0.1-0.9-0.3-1.4-0.5c-0.3-0.2-0.4-0.4-0.5-0.7
			c-0.1-0.4-0.7-0.3-0.7,0.1c-0.1,0.5,0.1,1,0.5,1.3c0.5,0.4,1.4,0.6,2,0.6C269.2,171.2,269.3,170.5,268.9,170.5z"/>
		<path display="inline" fill="#F16B66" d="M269.4,166.5c-0.3-0.1-0.5,0.3-0.4,0.5c0.5,0.7,1,1.1,1.1,2c0.1,0.4,0.7,0.4,0.7,0
			C270.8,168,270.5,166.9,269.4,166.5z"/>
		<path display="inline" fill="#F16B66" d="M272.1,164.8c-0.3-0.3-0.7,0.1-0.5,0.4c0.3,0.6,0.6,1.1,1,1.6c0.2,0.2,0.6,0,0.6-0.3
			C273.1,165.8,272.5,165.3,272.1,164.8z"/>
		<path display="inline" fill="#F16B66" d="M283.4,152.2c-0.5-0.1-0.9-0.2-1.4-0.1c-0.4,0.1-0.8,0.3-1.2,0.1
			c-0.4-0.2-0.7,0.2-0.4,0.5c0.3,0.4,0.7,0.4,1.2,0.3c0.3,0,0.5-0.1,0.8-0.2c0.3-0.1,0.7-0.1,1-0.1
			C283.7,152.7,283.7,152.3,283.4,152.2z"/>
		<path display="inline" fill="#F16B66" d="M284.5,150.1c-0.5-0.3-1.1-0.5-1.4-1c-0.2-0.2-0.6,0-0.5,0.3c0.3,0.8,1,1.4,1.9,1.2
			C284.7,150.6,284.7,150.2,284.5,150.1z"/>
		<path display="inline" fill="#F16B66" d="M286.1,147.9c-0.5-0.5-1-1-1.6-1.4c-0.3-0.2-0.6,0.1-0.4,0.4c0.5,0.6,0.9,1.1,1.4,1.6
			C285.9,148.8,286.4,148.3,286.1,147.9z"/>
		<path display="inline" fill="#F16B66" d="M271.1,128.4c-0.4-1.5-1-2.8-1.7-4.1c-0.4-0.7-0.8-1.4-1.3-2.1c-1.2-1.5-1.1-1,0.2-1.1
			c0.4,0,0.6-0.5,0.3-0.7c-2.9-2.8-7.6-4.8-11.2-6.7c-0.2-0.1-0.4,0.2-0.2,0.3c3.1,1.9,7.3,3.7,10,6.3c-0.2,0-0.4,0-0.6,0
			c-0.2,0-0.5,0.2-0.4,0.5c0.4,1.2,1.4,2.1,2,3.1c0.9,1.5,1.5,3.1,2.2,4.7C270.7,129,271.2,128.8,271.1,128.4z"/>
		<path display="inline" fill="#F16B66" d="M272.2,142.9c-0.8,2.4-1.9,4.9-2.4,7.3c-0.1,0.4,0.4,0.5,0.6,0.2
			c0.9-2.5,2.1-4.7,2.6-7.3C272.9,142.7,272.3,142.5,272.2,142.9z"/>
		<path display="inline" fill="#F16B66" d="M272.9,138.6c-0.1,0.7-0.2,1.4-0.2,2.1c0,0.5,0.7,0.5,0.7,0c0.1-0.7,0.1-1.3,0.1-2
			C273.5,138.3,272.9,138.2,272.9,138.6z"/>
		<path display="inline" fill="#F16B66" d="M265.5,157.5c-0.5,0.6-1.1,1.2-1.6,1.7c-0.2,0.2-0.1,0.1-0.3-0.2
			c-0.2-0.2-0.4-0.3-0.7-0.1c-1,0.8-2.5,1.3-3.6,1.9c-1.2,0.7-2.6,1.9-4,2.3c-0.2,0.1-0.1,0.4,0.1,0.4c1.7-0.3,3.4-1.6,4.9-2.4
			c0.9-0.5,1.8-0.8,2.8-1.3c-0.1,0-0.1,0,0.2,0.4c0.1,0.1,0.3,0.1,0.5,0.1c1-0.5,1.6-1.7,2.2-2.5
			C266.1,157.6,265.7,157.3,265.5,157.5z"/>
		<path display="inline" fill="#F16B66" d="M266,154.9c-0.2,0.2-0.4,0.3-0.5,0.6c-0.2,0.4,0.4,0.8,0.6,0.4c0.1-0.2,0.2-0.4,0.3-0.5
			C266.6,155.1,266.3,154.7,266,154.9z"/>
		<path display="inline" fill="#F16B66" d="M241.1,110.3c-0.1-0.3-0.6-0.3-0.6,0.1c0.5,3.8,0.8,8,0.2,11.9c-0.2,1.6-0.2,3.2-0.5,4.7
			c-0.1,0.8-0.5,1.5-0.8,2.2c-0.1-0.4-0.3-0.8-0.5-1.2c0-0.3-0.1-0.7-0.2-1c-0.1-0.3-0.6-0.3-0.6,0.1c0.1,1.2-0.1,2.3-0.3,3.4
			c-0.2,0.8-0.3,1.7-0.8,2.4c-0.4-0.6-0.7-1.7-1-2.1c-0.2-0.3-0.5-0.1-0.6,0.1c-0.1,0-0.2,0.1-0.2,0.2c-1,3-2.5,5.7-4.5,8
			c-2.3,2.6-5,4.5-7.7,6.7c-6,4.6-13.2,6.6-20.6,7.5c-0.3,0-0.3,0.5,0,0.4c7.9-0.8,15.2-2.9,21.7-7.7c1.5-1.1,3-2.2,4.5-3.2
			c1.3-0.9,2.3-2.3,3.4-3.5c1.6-1.8,3.5-4.5,3.9-7.1c0.2,0.6,0.5,1.3,1,1.6c0.2,0.1,0.4,0.1,0.5-0.1c0.7-0.8,0.9-1.8,1.2-2.8
			c0.1-0.5,0.2-1,0.3-1.5c0.1,0.3,0.2,0.6,0.3,0.9c0.1,0.4,0.6,0.2,0.6-0.1c0.2-1.6,1.2-3.2,1.5-4.8c0.2-1.3,0.3-2.7,0.5-4
			C242.2,117.9,241.8,113.8,241.1,110.3z"/>
		<path display="inline" fill="#FFFFFF" d="M215.1,178c-2.2-0.5-4.1-1.3-5.8-2.9c-0.5-0.5-1.3,0.3-0.8,0.8c1.7,1.7,3.9,3.1,6.4,3.1
			C215.6,179,215.7,178.1,215.1,178z"/>
		<path display="inline" fill="#FFFFFF" d="M219.2,176.5c-1.1-0.5-2.2-0.8-3.3-1.1c-0.5-0.1-0.7,0.7-0.2,0.8
			c1.1,0.2,2.2,0.6,3.3,0.9C219.3,177.2,219.5,176.6,219.2,176.5z"/>
		<path display="inline" fill="#FFFFFF" d="M189.9,169.9c-1.2-0.5-2.4-1.1-3.5-1.8c-0.5-0.3-0.9,0.4-0.4,0.7
			c1.1,0.7,2.3,1.4,3.6,1.7C190,170.7,190.3,170.1,189.9,169.9z"/>
		<path display="inline" fill="#FFFFFF" d="M191.9,169c-0.5-0.2-1-0.4-1.5-0.6c-0.7-0.3-1,0.9-0.3,1.1c0.5,0.1,1,0.3,1.5,0.4
			C192.2,170.1,192.4,169.3,191.9,169z"/>
		<path display="inline" fill="#FFFFFF" d="M278.3,176c-1.1,0.1-2.1,0.2-3.1-0.1c-1-0.3-1.9-0.8-3-0.9c-0.6-0.1-0.9,0.8-0.3,1
			c1.2,0.2,2.2,0.8,3.4,1.2c1.1,0.3,2.1,0.2,3.1-0.2C278.8,176.8,278.8,175.9,278.3,176z"/>
		<path display="inline" fill="#FFFFFF" d="M281.4,172.1c-1.2,0.3-2.4,0.4-3.6,0.4c-0.7,0-0.7,1,0,1c1.3,0,2.6-0.2,3.9-0.6
			C282.1,172.7,281.9,171.9,281.4,172.1z"/>
		<path display="inline" fill="#FFFFFF" d="M293.1,155c-1.1-0.2-2.3-0.3-3.4-0.3c-0.8,0-0.8,1.2,0,1.2c1.1,0.1,2.2,0.2,3.3,0.2
			C293.6,156,293.7,155.1,293.1,155z"/>
		<path display="inline" fill="#FFFFFF" d="M294.3,151.7c-0.7-0.1-1.3-0.1-2-0.1c-0.8,0-0.8,1.3,0,1.3c0.7,0,1.3,0,2-0.1
			C294.9,152.7,294.9,151.8,294.3,151.7z"/>
	</g>
	<g display="none">
		<path display="inline" fill="#B7D560" d="M0.7,381.4c3.7,48.9,135.2,66.4,129.5-9.7C124.5,295.6-3.9,320.1,0.7,381.4z"/>
		
			<ellipse transform="matrix(0.9206 -0.3904 0.3904 0.9206 -114.1283 71.1193)" display="inline" fill="#FFFFFF" cx="117.9" cy="316.3" rx="13.8" ry="13.8"/>
		<path display="inline" fill="#FFFFFF" d="M28.8,346.5c0,0,1.9,18.1,9.6,17.1c7.7-1.1,6.4-15,5.4-20.5
			C42.7,337.7,28.8,346.5,28.8,346.5z"/>
		<path display="inline" fill="#FFFFFF" d="M54.6,350.2c0,0-18.1,2.4-16.7,10.1c1.3,7.7,22.8,3.5,30.5-0.1
			C73.4,357.9,54.6,350.2,54.6,350.2z"/>
		<path display="inline" fill="#FFFFFF" d="M102.8,344.2c0,0,5.7,17.3,13.1,14.6c7.3-2.7,3.1-16.1,0.8-21.1
			C114.4,332.5,102.8,344.2,102.8,344.2z"/>
		<path display="inline" fill="#FFFFFF" d="M103.3,348.5c0,0-12.9,12.9-7.2,18.2c5.7,5.3,17.4-3.5,19.3-8.7
			C119.3,347.1,103.3,348.5,103.3,348.5z"/>
		<path display="inline" fill="#FFFFFF" d="M42,349c0.8,0.2,44.1,29,72.3,4.8c25.5-21.8,5.1-45.7-13.9-49.3
			c-19-3.7-37.6-2.6-37.6-2.6L42,349z"/>
		
			<path display="inline" fill="#FFFFFF" stroke="#231F20" stroke-linecap="round" stroke-linejoin="round" stroke-miterlimit="10" d="
			M20.9,319.6c1.9-5.3,10-3.3,11.7-1.1c1.7,2.2-1.3,6.1-5.4,6.9C23.1,326.3,19.8,322.5,20.9,319.6z"/>
		<g display="inline">
			<path fill="#FFFFFF" d="M30.5,282.3c0,0-6.4-33.8,7.2-56.5s34.5-8.7,26.3,10.6c-8.2,19.3-17,45.2-17.2,51.1L30.5,282.3z"/>
			<path fill="#F16B66" d="M35.6,285.4c0,0-3.9-46.7,11.3-54.2C62.2,223.6,45.2,273.8,35.6,285.4z"/>
			<path fill="#EE3638" d="M46.6,243.8c-1.3,0.1-2.4,1.3-3.3,2c-0.9,0.7-1.9,1.3-2.4,2.4c-0.1,0.3,0.3,0.6,0.6,0.4
				c0.8-0.7,1.7-1.3,2.6-1.9c1-0.6,2.2-1.2,3-1.9C47.5,244.5,47.2,243.8,46.6,243.8z"/>
			<path fill="#EE3638" d="M49.4,247c-2.2,0.3-4.2,2-5.9,3.2c-2.1,1.4-4,3.1-5.7,4.9c-0.2,0.2,0.2,0.6,0.4,0.4
				c3.3-3.1,7.3-5.7,11.5-7.6C50.2,247.6,50,246.9,49.4,247z"/>
			<path fill="#EE3638" d="M43.7,254.6c-1.1,0.7-2.1,1.5-3,2.3c-0.3,0.3,0.1,0.7,0.4,0.5c1-0.8,2.1-1.5,3-2.3
				C44.3,254.8,44,254.4,43.7,254.6z"/>
			<path fill="#FFFFFF" d="M51.9,286.8c0,0,7.2-33.6,28.5-49.3c21.3-15.7,35.2,5.3,20.1,20S67.3,292.6,64.9,298L51.9,286.8z"/>
			<path fill="#F16B66" d="M55.4,291.6c0,0,14.5-44.5,31.4-45.6C103.8,244.9,68.7,284.7,55.4,291.6z"/>
			<path fill="#FFFFFF" d="M34.9,277.6c-31.8,0.5-46.7,38.1-40.6,58c6.1,19.9,36.7,21.6,48,19.6c11.3-2,38.7-4.9,40.1-30
				C83.8,300.2,67,277,34.9,277.6z"/>
			<path fill="#EF504A" d="M25.2,315.1c2.1-5.2,10.1-2.9,11.7-0.6c1.6,2.3-1.6,6-5.7,6.7C27.1,321.9,24,318,25.2,315.1z"/>
			<path fill="#EF504A" d="M37.4,323.9c-0.4,1.2-1.7,2.9-3.2,2.3c-1.3-0.5-1.6-2-2-3.2c0,0,0-0.1-0.1-0.1c-0.1-1.1-0.4-2.2-0.6-3.1
				c-0.1-0.4-0.8-0.4-0.9,0.1c-0.2,1.7,0.2,3.4-0.1,5c-0.2,1.1-1.3,1.9-2.3,1.5c-0.8-0.3-1-1.2-1.1-1.9c-0.1-0.7-1.1-0.7-1.2-0.1
				c-0.6,2.6,1.4,4.7,4.1,3.8c1.2-0.4,1.8-1.3,2.1-2.4c0.4,0.8,1.1,1.5,2,1.8c1.3,0.4,2.3,0,3.4-0.9c1-0.8,1.2-1.5,1.2-2.7
				C38.6,323.6,37.6,323.3,37.4,323.9z"/>
			<path fill="#EF504A" d="M15.7,318.7c-3.6,0.2-7,1.4-10.3,2.5c-3.5,1.2-6.4,3-9,5.6c-0.3,0.3,0.2,0.8,0.5,0.5
				c5.1-4.3,12.3-7.2,18.9-7.9C16.2,319.4,16.2,318.7,15.7,318.7z"/>
			<path fill="#EF504A" d="M15.8,324.3c-7.2,0.6-12.4,6.8-16.4,12.1c-0.2,0.3,0.2,0.7,0.5,0.4c4.5-4.8,9.1-10.7,16-11.9
				C16.3,324.8,16.2,324.2,15.8,324.3z"/>
			<path fill="#EF504A" d="M17.1,328.2c-4.9,3.3-9.1,8-11.6,13.4c-0.2,0.4,0.4,0.7,0.6,0.3c3.1-5.1,6.5-9.6,11.3-13.2
				C17.9,328.5,17.5,328,17.1,328.2z"/>
			<path fill="#EF504A" d="M54.5,330.9c-2.5-2-5.4-3.5-8.4-4.6c-0.3-0.1-0.5,0.3-0.2,0.5c2.4,1,4.7,2.2,6.9,3.8
				c1.7,1.2,4.5,3.1,5.4,5.1c0.1,0.3,0.7,0.2,0.6-0.1C58.3,333.3,56,332.1,54.5,330.9z"/>
			<path fill="#EF504A" d="M62.8,328.8c-2.8-5.1-10.2-6.9-15.6-7.8c-0.3-0.1-0.4,0.4-0.1,0.5c5.6,1.1,11.4,3.2,15.1,7.7
				C62.5,329.5,63,329.1,62.8,328.8z"/>
			<path fill="#EF504A" d="M63.5,319.8c-3.4-3.7-10.2-5.5-15-4.5c-0.4,0.1-0.3,0.7,0,0.6c4.9-0.9,10.8,1.3,14.5,4.4
				C63.4,320.6,63.8,320.1,63.5,319.8z"/>
			<path fill="#EF504A" d="M54.8,309.4c-0.8-0.3-1.6-0.2-2.4,0c-0.7,0-1.6,0.1-1.9,0.8c-0.5,1.1,0.8,1.7,1.7,1.8c1,0,2.3-0.2,3-0.9
				C55.7,310.5,55.5,309.7,54.8,309.4z"/>
			<path fill="#EF504A" d="M9.6,313.1c-0.8-0.3-1.6-0.2-2.4,0c-0.7,0-1.6,0.1-1.9,0.8C4.8,315,6,315.6,7,315.6c1,0,2.3-0.2,3-0.9
				C10.5,314.2,10.3,313.4,9.6,313.1z"/>
			<path fill="#EE3638" d="M81.6,257.5c-1.2-0.4-2.7,0.3-3.9,0.6c-1.1,0.3-2.3,0.5-3.1,1.2c-0.3,0.2,0,0.7,0.4,0.6
				c1-0.3,2-0.6,3.1-0.7c1.2-0.2,2.4-0.2,3.5-0.6C82.2,258.5,82.2,257.7,81.6,257.5z"/>
			<path fill="#EE3638" d="M83,261.5c-2.1-0.6-4.6,0.2-6.7,0.7c-2.5,0.5-4.9,1.3-7.2,2.3c-0.3,0.1-0.1,0.7,0.2,0.5
				c4.3-1.6,9-2.5,13.5-2.6C83.4,262.4,83.5,261.7,83,261.5z"/>
			<path fill="#EE3638" d="M74.7,266.4c-1.2,0.2-2.5,0.5-3.7,0.9c-0.4,0.1-0.2,0.7,0.2,0.6c1.2-0.4,2.5-0.5,3.7-1
				C75.2,266.8,75.1,266.3,74.7,266.4z"/>
			<path fill="#F16B66" d="M33.8,276.2c-1.5,0.1-2.8,0.6-4.3,0.9c-0.4,0.1-0.4,0.7,0.1,0.7c1.5-0.2,2.8-0.6,4.3-0.8
				C34.3,276.8,34.3,276.2,33.8,276.2z"/>
			<path fill="#F16B66" d="M47.6,278c-1.1-0.3-2.2-0.5-3.4-0.7c-0.6-0.1-0.7,0.8-0.1,0.9c1.1,0.2,2.2,0.4,3.3,0.5
				C47.8,278.8,48.1,278.2,47.6,278z"/>
			<path fill="#F16B66" d="M56.3,280.8c-1-0.6-2-1-3-1.7c-0.3-0.2-0.7,0.3-0.4,0.6c0.9,0.7,2,1.2,3.1,1.6
				C56.3,281.4,56.6,281,56.3,280.8z"/>
			<path fill="#F16B66" d="M71.8,291.4c-1.4-1.9-3.6-3-5.5-4.3c-0.4-0.3-1,0.3-0.5,0.6c1.9,1.3,3.9,2.6,5.6,4.2
				C71.6,292.2,72.1,291.7,71.8,291.4z"/>
			<path fill="#982F2A" d="M47.2,305.7c-1.1,1.7-1.5,3.4-3.8,3.8c-2.4,0.4-4.1-1-5.6-2.7c-0.3-0.4-1-0.1-0.8,0.4
				c2,5.3,11.4,5.4,11.5-1.1C48.6,305.5,47.6,305.1,47.2,305.7z"/>
			<path fill="#982F2A" d="M21.9,309.3c-0.3,1.8-1,3.4-3,3.8c-1.8,0.3-2.8-1.1-3.6-2.4c-0.4-0.6-1.2-0.2-1.2,0.4
				c0,2.5,2.7,3.8,5,3.6c2.6-0.3,4-2.9,3.8-5.3C22.8,308.8,22,308.8,21.9,309.3z"/>
		</g>
		<path display="inline" fill="#F16B66" d="M111.4,355.3c-0.2,0.2-2.2,1.8-2.3,1.5c-0.1-0.2-0.3-0.3-0.5-0.2
			c-3.3,1.3-6.4,2.8-9.5,4.6c-0.2,0.1,0,0.5,0.2,0.4c0.8-0.4,8.9-4.7,9.3-3.9c0.1,0.2,0.4,0.3,0.6,0.2c1-0.6,1.7-1.3,2.5-2.1
			C112,355.5,111.7,355.1,111.4,355.3z"/>
		<path display="inline" fill="#F16B66" d="M118.1,348.8c-0.5,0.8-1.2,1.4-1.8,2.1c-0.6,0.7-1.1,1.4-1.6,2.2
			c-0.2,0.3,0.3,0.5,0.5,0.2c0.5-0.8,1.1-1.5,1.8-2.2c0.6-0.7,1.2-1.2,1.6-2.1C118.7,348.7,118.2,348.5,118.1,348.8z"/>
		<path display="inline" fill="#F16B66" d="M124,322.9c-3.2-5.7-8.1-10.3-13.8-13.5c-0.4-0.2-0.6,0.4-0.3,0.6
			c5.6,3.3,9.7,8.1,13.5,13.4C123.7,323.7,124.2,323.3,124,322.9z"/>
		<path display="inline" fill="#F16B66" d="M115.4,355.9c-0.1,0.7-0.4,1.4-0.7,2.1c-0.2,0.4-0.5,0.8-0.3,1.3c0.1,0.2,0.4,0.2,0.5,0
			c0.6-1.1,1.3-2.1,1.1-3.4C115.9,355.7,115.5,355.6,115.4,355.9z"/>
		<path display="inline" fill="#F16B66" d="M69.7,339c-1.8,2.8-3.5,5.5-6.1,7.7c-2.5,2.1-5.6,3.1-8.4,4.7c-3.2,1.8-7,2.2-10.5,3
			c-3.4,0.7-7,1.1-10.4,1.5c-0.3,0-0.3,0.5,0,0.5c4.1-0.2,8.3-0.6,12.3-1.3c3.2-0.6,6.4-1,9.3-2.6c3.1-1.7,6.5-3,9-5.5
			c2.3-2.2,4-4.9,5.5-7.6C70.6,338.9,69.9,338.6,69.7,339z"/>
		<path display="inline" fill="#F16B66" d="M78.4,305.2c0-0.4-0.6-0.3-0.6,0c0.3,2.3,0.6,4.5,0.9,6.8c0.2,2.1-0.1,4.1-0.2,6.2
			c-0.1,2-0.5,3.9-0.7,5.9c-0.1,0.7-0.2,1.9-0.4,2.9c-0.2-0.4-0.5-0.7-0.8-1.1c-0.2-0.2-0.4-0.1-0.5,0c0-0.1,0-0.2-0.1-0.3
			c-0.1-0.4-0.8-0.3-0.7,0.2c0.2,1.6,0.3,3.7-0.3,5.3c-0.3-0.4-0.5-1-0.9-1.3c-0.3-0.2-0.7-0.1-0.9,0.2c-1.4,2.2-1.5,5.2-2.8,7.6
			c-0.1,0.2,0.2,0.3,0.3,0.2c0.8-0.8,1.1-2,1.6-3c0.5-1,0.8-2.5,1.4-3.6c0.4,0.6,0.5,1.3,1.2,1.6c0.3,0.1,0.6,0,0.8-0.3
			c1-1.7,0.9-3.9,0.5-5.9c0.3,0.5,0.6,1.1,0.8,1.7c0.2,0.4,0.6,0.4,0.8,0c0.5-0.9,0.4-2.2,0.7-3.2c0.4-1.7,0.7-3.5,0.8-5.2
			c0.1-2.3,0.3-4.6,0.2-6.8C79.3,310.4,78.7,307.8,78.4,305.2z"/>
		<path display="inline" fill="#F16B66" d="M61.8,356.9c-1.7-1.1-3.6-1.9-5.3-3.1c-0.2-0.2-0.5,0.2-0.3,0.4c1.6,1.3,3.5,2.1,5.3,3.1
			C61.7,357.4,62,357,61.8,356.9z"/>
		<path display="inline" fill="#F16B66" d="M68.3,359.8c-0.8-0.5-1.7-0.8-2.6-1.1c-1-0.4-1.9-0.8-2.8-1.2c-0.3-0.1-0.6,0.4-0.2,0.5
			c1.8,0.9,3.5,1.7,5.4,2.4C68.5,360.5,68.7,360,68.3,359.8z"/>
		<path display="inline" fill="#F16B66" d="M39,359.7c0-0.6,0.2-1.1,0.3-1.7c0.1-0.3-0.4-0.5-0.5-0.2c-0.3,0.6-0.5,1.2-0.5,1.9
			c0,0.7,0.2,1.2,0.5,1.9c0.1,0.2,0.5,0.2,0.4-0.1C39.2,360.8,39,360.3,39,359.7z"/>
		<path display="inline" fill="#F16B66" d="M43.4,357.9c-0.8-0.2-1.6,0.2-2.2,0.7c-0.2,0.2-0.1,0.7,0.3,0.5c0.7-0.3,1.3-0.5,2-0.6
			C43.8,358.5,43.7,358,43.4,357.9z"/>
		<path display="inline" fill="#F16B66" d="M44.1,360.9c-0.4,0.2-1,0-1.4,0.1c-0.4,0.1-0.3,0.6,0.1,0.6c0.6,0,1.2,0.2,1.7-0.2
			C44.7,361.2,44.4,360.8,44.1,360.9z"/>
		<path display="inline" fill="#F16B66" d="M36.9,361c-0.2-0.4-0.4-0.7-0.5-1.1c-0.1-0.3-0.6-0.2-0.5,0.1c0.1,0.4,0.2,0.8,0.5,1.1
			c0,0.1,0.1,0.2,0.2,0.3c0,0,0.1,0,0.1,0C36.8,361.5,37,361.2,36.9,361z"/>
		<path display="inline" fill="#F16B66" d="M99.5,363.7c-0.9-0.1-1.6,0.3-2.1,0.9c-0.2,0.2,0.1,0.7,0.4,0.6c0.3-0.1,0.6-0.3,0.8-0.5
			c0.3-0.1,0.6-0.2,0.9-0.3C99.9,364.2,99.9,363.7,99.5,363.7z"/>
		<path display="inline" fill="#F16B66" d="M101.8,365.2c-0.6,0.2-1.2,0.5-1.8,0.8c-0.3,0.2-0.1,0.7,0.2,0.6
			c0.6-0.3,1.2-0.5,1.8-0.9C102.4,365.5,102.1,365.1,101.8,365.2z"/>
		<path display="inline" fill="#EF504A" d="M28.1,358.6c-7.1,13.9-9.5,32.5-2.2,46.8c0.5,1,1.9,0.3,1.7-0.7
			c-1.6-7.4-3.8-13.9-3.5-21.6c0.3-8.5,1.8-16,5.2-23.8C29.7,358.5,28.6,357.8,28.1,358.6z"/>
		<path display="inline" fill="#EF504A" d="M67.2,414.6c-3-8-4-16.6-4.2-25.1c-0.1-7.9,1-17.6,4.1-25c0.3-0.6-0.8-1.1-1.1-0.5
			c-3.7,7.5-4.9,17.1-5.1,25.5c-0.2,7.7-0.1,19.6,5.1,25.9C66.4,415.8,67.5,415.2,67.2,414.6z"/>
		<path display="inline" fill="#EF504A" d="M112,408.7c-3.3-4.6-5.4-10.4-7.2-15.7c-2.5-7.6-1.2-15-1.8-22.7c-0.1-0.9-1.3-0.9-1.3,0
			c-0.7,8-1.5,15.6,0.6,23.4c1.2,4.6,3.7,14.1,8.2,16.5C111.3,410.7,112.6,409.7,112,408.7z"/>
		<path display="inline" fill="#FFFFFF" d="M20.3,359.2c-3.1,0.7-12.6,5.1-12.6,9.1c0,2.9,2.5,6.7,3.7,9.1c1.2,2.4,2.6,3.2-0.1,4.7
			c-1.5,0.8-3.1,0.9-4.6,1.7c-0.7,0.4-0.6,1.2-0.2,1.7c1.9,2.4,3.7,4.9,5.6,7.3c1.8,2.3,4.6,4.4,5.8,7.1c0.3,0.8,1.4,0.5,1.3-0.3
			c-0.5-2.2-2.4-3.9-3.7-5.6c-2.3-2.8-4.3-5.9-6.5-8.8c2.3-0.9,4.7-1.3,6.4-3.3c0.3-0.4,0.4-0.8,0.2-1.3c-1.7-4-4-7.5-5.4-11.6
			c-1-2.8,8.8-7.1,10.8-8.2C21.7,360.2,21.2,359,20.3,359.2z"/>
		<path display="inline" fill="#FFFFFF" d="M51.9,414.6c-4.4-4.5-10.4-6.9-14.3-11.9c-1.5-2,0.5-2.4,2.2-3.7c1-0.8,2-1.6,3-2.4
			c1-0.8,4.5-2.7,5.3-4.2c1.5-2.5-5.5-6.5-6.9-7.7c-2.4-2.1-6.5-3.9-3.5-7.1c2.4-2.6,5.7-4.1,8.1-6.8c0.5-0.6-0.2-1.7-0.9-1.2
			c-3.2,2.2-7.3,4.6-9.7,7.8c-1.9,2.5-1,3.7,0.9,5.7c1.9,2,4.3,3.6,6.4,5.4c0.8,0.8,1.7,1.5,2.6,2.3c1.4,1.3,2.2,0.1-0.5,2.1
			c-2.5,1.8-4.8,3.7-7.2,5.6c-1.3,1-2.6,1.4-2.9,3.1c-0.1,0.3,0,0.7,0.2,0.9c2.2,1.9,3.9,4.2,6.3,6c3.3,2.5,6.9,4.7,10.3,7.1
			C51.8,415.9,52.4,415.1,51.9,414.6z"/>
		<path display="inline" fill="#FFFFFF" d="M95.7,412.7c-1.3-0.9-16.9-11.2-17.1-10.9c4.3-4.4,9.5-8.1,13.8-12.5
			c0.5-0.5,0.3-1.3-0.2-1.7c-3.8-2.8-7.4-5.9-11.1-8.8c-2.7-2.1-0.3-3.3,1.5-5.5c1.1-1.4,2.2-2.7,3.2-4.1c0.6-0.8-0.6-1.6-1.3-1
			c-1.6,1.5-9,7.4-7.3,10.3c1.2,2.1,4.4,3.7,6.3,5.1c2.2,1.7,4.3,3.5,6.5,5.1c-4,4.5-9.2,7.9-13.3,12.3c-0.3,0.3-0.3,0.7-0.1,1.2
			c1,2.3,4,3.3,6.1,4.4c4.2,2.3,8.2,5.1,12.4,7.2C95.8,414.2,96.4,413.2,95.7,412.7z"/>
		<path display="inline" fill="#FFFFFF" d="M118.1,396.4c-1.2-1.1-2.5-2-3.8-2.9c-2-1.4-5.6-2.8-3.1-5.3c2.4-2.4,5.2-5.6,6.7-8.6
			c0.2-0.3,0.1-0.7-0.1-1c-1.7-2-3.6-3.9-5.4-5.8c-2.4-2.5-0.6-3.4,1.3-5c0.5-0.5-0.2-1.3-0.8-1c-2.8,1.7-5.5,2.9-2.8,5.9
			c1.4,1.6,7.2,5.7,5.1,7.8c-2.6,2.6-4.5,6-7,8.7c-0.2,0.2-0.3,0.6-0.1,0.9c1.6,3.3,6.5,5.2,9.3,7.3
			C118,397.6,118.6,396.8,118.1,396.4z"/>
		<path display="inline" fill="#FFFFFF" d="M18.5,386.2c0,0.1,0,0.1-0.1,0c-1-0.3-2,0.7-1.7,1.7c0.1,0.1,0.1,0.2,0,0.1
			c-0.1,1.6,2,2.3,3.1,1.3C20.8,388.2,20.1,386.1,18.5,386.2z"/>
		<path display="inline" fill="#FFFFFF" d="M19.6,367.6c-0.1,0-0.1,0-0.2,0c-0.6-0.1-1.3,0.1-1.6,0.7c-0.3,0.4-0.3,0.9,0,1.4
			c0,0,0,0,0,0.1c0.3,0.6,1,0.8,1.6,0.7c0.1,0,0.1,0,0.2,0C21,370.1,21,367.9,19.6,367.6z"/>
		<path display="inline" fill="#FFFFFF" d="M55.5,401.9c-0.1-0.2-0.2-0.4-0.3-0.6c-0.4-0.9-2-0.9-2.4,0c-0.1,0.2-0.2,0.4-0.3,0.6
			c-0.7,1.1,0.2,2.6,1.5,2.6C55.3,404.5,56.2,403,55.5,401.9z"/>
		<path display="inline" fill="#FFFFFF" d="M54.5,377.9c-2.4,0-2.4,3.7,0,3.7C56.9,381.6,56.9,377.9,54.5,377.9z"/>
		<path display="inline" fill="#FFFFFF" d="M96.6,398.1c-0.2,0.1-0.4,0.3-0.5,0.5c-0.2,0.5-0.4,1-0.2,1.5c0.3,0.8,0.9,1.3,1.8,1.3
			c0.8,0,1.6-0.6,1.8-1.3C99.9,398.5,97.9,397.1,96.6,398.1z"/>
		<path display="inline" fill="#FFFFFF" d="M94.8,375.4C94.8,375.4,94.8,375.4,94.8,375.4c-1.4,0-2.1,1.4-1.5,2.5c0,0,0,0.1,0,0.1
			c0.6,1.2,2.3,1.1,3,0C97,376.8,96.1,375.4,94.8,375.4z"/>
		<path display="inline" fill="#FFFFFF" d="M123.5,380.9c-0.9,0-1.6,0.7-1.6,1.6s0.7,1.6,1.6,1.6c0.9,0,1.6-0.7,1.6-1.6
			S124.4,380.9,123.5,380.9z"/>
		<path display="inline" fill="#FFFFFF" d="M123.2,366.4c-0.7-0.7-1.8-0.7-2.5,0c-0.8,0.8-0.7,2.2,0.4,2.7c0.6,0.3,1.1,0.3,1.8,0
			C123.9,368.6,124,367.1,123.2,366.4z"/>
	</g>
	<g>
		<g>
			<path fill="#FFFFFF" d="M28.3,135.4c-1.2-1.6-4.8-2.5-5.9-3.8c-2-2.2-3.9-3.2-7-3c-5.2,0.4-6.5,5.2-0.3,11.6
				c2.2,2.3,6.4,4.2,9.6,3.1C28.2,142.2,30.5,138.2,28.3,135.4z"/>
			<path fill="#FFFFFF" d="M74.9,140.5c1.7-1.2,5.3-0.9,6.8-1.7c2.6-1.4,4.8-1.8,7.5-0.6c4.8,2,4.6,7-3.3,11.1
				c-2.8,1.5-7.4,2-10.1,0C72.8,147,72,142.5,74.9,140.5z"/>
			<path fill="#FFFFFF" d="M20.9,157.5c0,0-8.3,2.4-6.6,12.7c1.7,10.2,4.1,11.9,4.1,11.9s-6.8,1.1-5,5.7c1.8,4.6,17,1.4,22.4-2
				c5.4-3.3,3.5-12.5-0.6-20.2C31.1,157.9,25.1,155,20.9,157.5z"/>
			<path fill="#FFFFFF" d="M83.7,167.7c0,0,5.8,6.4-1,14.3c-6.8,7.8-9.7,8-9.7,8s5.2,4.5,1.3,7.5c-4,3-15.2-7.8-18.1-13.4
				c-2.8-5.7,3.5-12.5,11.1-16.9C74.7,162.7,81.4,163.4,83.7,167.7z"/>
			<path fill="#FFFFFF" d="M30.7,128.7c0,0-34,52.5,12.5,57.6c46.5,5.1,37-40.3,28.4-52.1L30.7,128.7z"/>
			<path fill="#FFFFFF" d="M51.6,69.3c0,0,2.5-34.3-13.6-55.3C21.9-7.1,2.8,9.2,13.1,27.5c10.3,18.3,22,43,22.9,48.8L51.6,69.3z"/>
			<path fill="#F16B66" d="M46.9,72.9c0,0-1.5-46.8-17.4-52.6C13.5,14.5,36,62.5,46.9,72.9z"/>
			<path fill="#FFFFFF" d="M66.9,71.8c0,0,3-34.3,22.2-52.4c19.2-18.2,35.6,0.9,22.5,17.4c-13.1,16.4-28.6,39-30.4,44.6L66.9,71.8z"
				/>
			<path fill="#F16B66" d="M70.9,76.2c0,0,8.9-46,25.6-49.2C113.2,23.8,83.3,67.6,70.9,76.2z"/>
			<path fill="#FFFFFF" d="M61.5,61.9C30.2,55.9,8,89.6,9.9,110.4c1.9,20.8,31.6,28.6,43,29c11.4,0.4,38.9,3.1,45.4-21.1
				C104.8,94.1,93,67.9,61.5,61.9z"/>
			<path fill="#EF504A" d="M50.7,100.9c3.1-4.7,10.5-0.8,11.6,1.8c1.1,2.6-2.8,5.6-6.9,5.4C51.2,107.9,49,103.5,50.7,100.9z"/>
			<path fill="#F16B66" d="M21.8,172c-0.4-1.6-1.3-3.6-1.2-5.3l0.4,0.2c0.3,0.1,0.5,0,0.6-0.3c0.1-0.9-0.3-2.1-0.4-3
				c-0.3-2.1-0.7-4.2-0.8-6.3c0-0.3-0.5-0.3-0.5,0c-0.1,1.9,0.3,3.8,0.5,5.7c0.1,0.9,0.2,1.8,0.3,2.6c0.1,0.5,0.3,0.4-0.4,0.1
				c-0.3-0.1-0.5,0.1-0.5,0.4c-0.3,2,0.7,4.4,1.4,6.2C21.3,172.6,21.9,172.4,21.8,172z"/>
			<path fill="#F16B66" d="M23.4,174.4c-0.1-0.3-0.6,0-0.4,0.2c0.8,1.6,1.6,3.3,2.6,4.9c0.1,0.2,0.4,0.1,0.4-0.1
				C25.4,177.6,24.3,176,23.4,174.4z"/>
			<path fill="#F16B66" d="M78,163.8c0-0.3-0.4-0.3-0.4-0.1c-0.4,2.2-0.6,4.5-1,6.7c-0.2,0.9-0.4,1.9-0.6,2.8
				c-0.2,0.9-0.2,1.7-0.7,0.7c-0.1-0.3-0.6-0.3-0.7,0c-1.2,2.6-2.5,5.4-4.2,7.6c-0.2,0.2,0.1,0.6,0.4,0.4c1.9-1.8,3.1-4.4,4.2-6.8
				c0.1,0.2,0.2,0.4,0.5,0.5c0.1,0.1,0.3,0,0.4-0.1c0.9-0.7,0.9-2.3,1.1-3.3C77.5,169.4,77.8,166.6,78,163.8z"/>
			<path fill="#F16B66" d="M69.3,183.2c-0.5,0.5-1.1,1.1-1.5,1.7c0,0-0.1,0-0.1,0.1c0,0,0,0,0,0.1c-0.1,0.3,0.2,0.4,0.4,0.2
				c0.5-0.6,1-1.2,1.5-1.7C69.9,183.3,69.5,183,69.3,183.2z"/>
			<path fill="#F16B66" d="M16.5,184.1c-0.8-0.7-1.8,0.5-1.9,1.3c0,0.3,0.3,0.3,0.4,0.1c0.2-0.5,0.6-1.2,1.2-1
				C16.6,184.6,16.7,184.3,16.5,184.1z"/>
			<path fill="#F16B66" d="M18.1,185.3c-0.6,0.1-1.2,0.5-1.5,1c-0.2,0.3,0.2,0.6,0.4,0.3c0.3-0.4,0.8-0.6,1.3-0.8
				C18.5,185.6,18.3,185.3,18.1,185.3z"/>
			<path fill="#F16B66" d="M71.9,192.8c-0.3-0.1-0.5,0.2-0.3,0.4c0.2,0.2,0.5,0.4,0.7,0.5c0.2,0.2,0.3,0.5,0.5,0.7
				c0.1,0.2,0.4,0.1,0.5,0C73.7,193.7,72.4,193,71.9,192.8z"/>
			<path fill="#F16B66" d="M73.9,192.6c-0.3-0.2-0.6,0.2-0.3,0.4c0.3,0.2,0.4,0.4,0.5,0.8c0.1,0.2,0.3,0.2,0.4,0
				C74.7,193.3,74.3,192.9,73.9,192.6z"/>
			<path fill="#F16B66" d="M35.5,135.4c-2-0.9-4.2-1.4-6.2-2.2c-0.2-0.1-0.4,0.1-0.3,0.3c0,0,0,0.1,0,0.1c0,0.1,0.2,0.2,0.3,0.1
				c-0.1,0,2.2,1.1,2.4,1.1c1.2,0.4,2.4,0.7,3.7,1.1C35.6,135.9,35.8,135.5,35.5,135.4z"/>
			<path fill="#F16B66" d="M37.8,136c-0.3-0.1-0.5-0.1-0.8-0.1c-0.3,0-0.4,0.4-0.1,0.5c0.3,0.1,0.5,0.1,0.8,0.1
				C38.1,136.4,38.1,136.1,37.8,136z"/>
			<path fill="#F16B66" d="M71,138.8c-2.2,0.2-4.4,0.7-6.6,0.9c-0.2,0-0.2,0.4,0,0.4c0.9,0,1.8-0.1,2.7-0.2c1.3-0.1,2.7-0.2,4-0.5
				C71.4,139.2,71.4,138.7,71,138.8z"/>
			<path fill="#F16B66" d="M37.4,64.2c-0.6,0.3-1.2,0.7-1.7,1.1c-0.5,0.4-1.1,0.8-1.4,1.3c0,0.1,0,0.2,0.1,0.2c0,0,0.1,0,0.1,0
				c0.1,0,0.2,0,0.2-0.1c0.5-0.2,0.9-0.7,1.4-1c0.5-0.4,1.1-0.8,1.6-1.1C37.9,64.5,37.7,64.1,37.4,64.2z"/>
			<path fill="#F16B66" d="M49.1,61.4c-0.9,0.2-1.8,0.5-2.7,0.9c-0.2,0.1-0.1,0.4,0.2,0.4c0.9-0.3,1.7-0.6,2.6-0.8
				C49.5,61.7,49.3,61.3,49.1,61.4z"/>
			<path fill="#F16B66" d="M71.2,64.2c-1.2-0.6-2.5-1.3-3.9-1.5c-0.3,0-0.4,0.4-0.1,0.4c1.3,0.4,2.5,1.1,3.8,1.5
				C71.3,64.8,71.5,64.4,71.2,64.2z"/>
			<path fill="#F16B66" d="M84.7,71.2c-0.6-0.6-1.4-1.1-2.2-1.5c-0.3-0.1-0.5,0.3-0.3,0.5c0.8,0.5,1.5,1,2.2,1.4
				C84.7,71.7,84.9,71.3,84.7,71.2z"/>
			<path fill="#EF504A" d="M40.7,102.5c-3.5-0.5-7.1-0.1-10.6,0.3c-3.7,0.4-6.9,1.6-10,3.6c-0.3,0.2,0,0.8,0.4,0.6
				c5.9-3.2,13.5-4.5,20.1-3.8C41.1,103.2,41.1,102.5,40.7,102.5z"/>
			<path fill="#EF504A" d="M39.7,107.9c-7.1-0.8-13.5,4.2-18.6,8.5c-0.3,0.3,0.1,0.7,0.4,0.5c5.4-3.8,11.1-8.7,18.1-8.4
				C40,108.6,40.1,108,39.7,107.9z"/>
			<path fill="#EF504A" d="M40.2,112c-5.5,2.2-10.5,6-14.1,10.8c-0.3,0.4,0.3,0.7,0.6,0.4c4.1-4.3,8.3-8.1,13.8-10.6
				C40.8,112.5,40.6,111.9,40.2,112z"/>
			<path fill="#EF504A" d="M76.2,122.3c-2.1-2.5-4.6-4.5-7.3-6.3c-0.3-0.2-0.6,0.2-0.3,0.4c2.2,1.5,4.2,3.1,6,5.1
				c1.4,1.6,3.8,4,4.2,6.1c0.1,0.3,0.6,0.4,0.6,0C79.4,125.5,77.4,123.8,76.2,122.3z"/>
			<path fill="#EF504A" d="M84.7,121.9c-1.7-5.6-8.6-8.9-13.6-10.9c-0.3-0.1-0.5,0.3-0.2,0.5c5.3,2.3,10.5,5.4,13.2,10.6
				C84.3,122.6,84.9,122.3,84.7,121.9z"/>
			<path fill="#EF504A" d="M87.3,113.3c-2.6-4.3-8.8-7.5-13.7-7.5c-0.4,0-0.5,0.6-0.1,0.6c4.9,0.1,10.3,3.4,13.3,7.3
				C87,114,87.5,113.6,87.3,113.3z"/>
			<path fill="#FFFFFF" d="M29.8,167.9c0,0-0.1,0-0.1,0c-0.6-0.2-1.2,0.2-1.1,0.8c0.1,0.6,1,0.9,1.4,0.4c0,0,0.1-0.1,0.1-0.1
				C30.5,168.6,30.4,167.9,29.8,167.9z"/>
			<path fill="#FFFFFF" d="M68.6,172.4c-0.3-0.4-0.6-0.5-1-0.4c-0.5,0-0.7,0.6-0.6,1c0.1,0.3,0.3,0.5,0.7,0.6
				C68.4,173.9,69.2,173.1,68.6,172.4z"/>
			<path fill="#EF504A" d="M80.8,101.4c-0.7-0.4-1.6-0.6-2.4-0.5c-0.7-0.1-1.6-0.2-2,0.4c-0.7,1,0.4,1.9,1.3,2.1
				c0.9,0.2,2.2,0.3,3.1-0.3C81.6,102.6,81.5,101.8,80.8,101.4z"/>
			<path fill="#EF504A" d="M35.8,95.7c-0.7-0.4-1.6-0.6-2.4-0.5c-0.7-0.1-1.6-0.2-2,0.4c-0.7,1,0.4,1.9,1.3,2.1
				c0.9,0.2,2.2,0.3,3.1-0.3C36.6,96.9,36.5,96.2,35.8,95.7z"/>
			<path fill="#EE3638" d="M92.8,39.1c-1.3-0.2-2.6,0.6-3.8,1.1c-1,0.4-2.2,0.7-3,1.6c-0.2,0.3,0.1,0.7,0.4,0.5c1-0.4,1.9-0.8,3-1.1
				c1.1-0.3,2.4-0.5,3.4-1C93.5,40,93.4,39.2,92.8,39.1z"/>
			<path fill="#EE3638" d="M94.6,42.9c-2.1-0.3-4.5,0.8-6.6,1.5c-2.4,0.8-4.7,1.9-6.8,3.2c-0.3,0.2,0,0.7,0.3,0.5
				c4-2.1,8.6-3.5,13.1-4.2C95.2,43.8,95.2,43,94.6,42.9z"/>
			<path fill="#EE3638" d="M87.1,48.7c-1.2,0.4-2.4,0.8-3.5,1.4c-0.3,0.2-0.1,0.7,0.2,0.5c1.2-0.5,2.4-0.8,3.5-1.4
				C87.6,49.1,87.4,48.6,87.1,48.7z"/>
			<path fill="#EE3638" d="M35,35.5c-0.6-1.5-3.8,1.4-4.4,1.9c-0.4,0.3,0.1,0.8,0.4,0.5c0.6-0.4,1.1-0.8,1.6-1.2
				c0.3-0.2,1.5-1.1,1.9-0.9C34.8,36,35.1,35.7,35,35.5z"/>
			<path fill="#EE3638" d="M40.1,36.2c-1.1-2.4-8.9,4.2-9.6,4.8c-0.3,0.3,0.1,0.7,0.4,0.5c1.7-1.4,3.6-2.6,5.6-3.7
				c0.7-0.4,2.3-1.5,3.1-1.1C39.9,36.9,40.2,36.5,40.1,36.2z"/>
			<path fill="#EE3638" d="M37.4,41c-1.5,0.6-2.9,1.7-4.1,2.7c-0.4,0.3,0.1,0.9,0.5,0.6c1.3-1,2.7-1.8,4-2.7
				C38.1,41.3,37.8,40.8,37.4,41z"/>
			<path fill="#FFFFFF" d="M56.6,100.3c-0.5-0.3-0.9-0.2-1.5-0.2c-0.4,0-0.5,0.7-0.1,0.8c0.5,0.1,1,0.3,1.5,0.2
				C56.8,100.9,56.9,100.4,56.6,100.3z"/>
			<path fill="#FFFFFF" d="M60.2,102.4c-0.4-0.8-1.4-1.1-2.2-1.3c-0.5-0.1-0.6,0.6-0.2,0.8c0.7,0.3,1.2,0.8,1.9,1.1
				C60,103.1,60.4,102.7,60.2,102.4z"/>
			<path fill="#982F2A" d="M71.5,88.5c-3.2-0.2-6.9,2.1-6.9,5.5c0,0.7,0.9,1,1.2,0.3c0.9-2.2,2.6-3.6,5-3.8c3.4-0.2,4.1,3.1,4.7,5.7
				c0.2,0.8,1.2,0.8,1.4,0C77.8,92.7,75.2,88.7,71.5,88.5z"/>
			<path fill="#982F2A" d="M43.6,85.7c-3.8-0.5-6.8,2.3-6.6,6.1c0,0.7,1.1,0.7,1.3,0.2c1.2-2.5,1.9-4.5,5.1-4.4
				c2.5,0.1,5.3,1.6,5.5,4.4c0,0.5,0.9,0.7,1.1,0.1C50.9,88.3,46.6,86.1,43.6,85.7z"/>
			<path fill="#F16B66" d="M75.8,142.1c-0.1-0.2-0.4-0.1-0.3,0.1c0.6,1.5,1.2,3,1.8,4.5c0.1,0.2,0.5,0.1,0.4-0.1
				C77.3,145,76.5,143.5,75.8,142.1z"/>
			<path fill="#F16B66" d="M78.2,148.2c-0.2-0.4-0.8-0.1-0.6,0.3c0.1,0.2,0.1,0.5,0.2,0.7c0.1,0.3,0.5,0.3,0.6,0
				C78.4,148.8,78.3,148.5,78.2,148.2z"/>
			<path fill="#F16B66" d="M26.9,135.6c-0.5-0.2-0.8,0.2-1,0.6c-0.4,0.9-0.8,1.7-1.2,2.6c-0.1,0.3,0.3,0.5,0.5,0.3
				c0.3-0.5,0.6-1,0.9-1.5c0.1-0.2,0.6-1.3,0.7-1.3C27.2,136.2,27.2,135.7,26.9,135.6z"/>
			<path fill="#F16B66" d="M24.3,140.6c0,0.2-0.1,0.4-0.1,0.5c-0.1,0.3,0.3,0.6,0.5,0.3c0.2-0.2,0.3-0.4,0.3-0.7
				C25.1,140.2,24.3,140.1,24.3,140.6z"/>
			<path fill="#F16B66" d="M88.8,138.9c-0.5-0.2-1,0-1.3,0.4c-0.4,0.4,0.2,0.9,0.6,0.8c0.3-0.1,0.5-0.2,0.8-0.4
				C89.2,139.5,89.1,139.1,88.8,138.9z"/>
			<path fill="#F16B66" d="M90.3,141.4c-0.4-0.2-0.6-0.1-1,0.1c-0.4,0.1-0.3,0.7,0.1,0.7c0.3,0,0.5-0.1,0.8-0.1
				C90.6,142,90.6,141.6,90.3,141.4z"/>
			<path fill="#F16B66" d="M89.5,143.6c-0.1,0-0.2,0-0.4,0c-0.6,0-0.5,1,0.1,1c0.3,0,0.5-0.2,0.7-0.5
				C90,143.9,89.8,143.6,89.5,143.6z"/>
			<path fill="#F16B66" d="M12.8,132.3c-0.2,0-0.3,0.3-0.1,0.4c0,0,0,0,0,0c0,0,0.1,0.1,0.1,0.1c0,0.1,0.1,0.2,0.1,0.2
				c0,0,0,0,0.1,0c0.2,0.2,0.3,0.4,0.5,0.4c0.2,0.1,0.4,0,0.5-0.3C14,132.7,13.4,132.2,12.8,132.3z"/>
			<path fill="#F16B66" d="M15.9,131.4c-0.1-0.3-0.2-0.5-0.4-0.8c-0.4-0.5-1.1,0.1-0.7,0.6c0.2,0.3,0.4,0.5,0.7,0.6
				C15.6,131.9,15.9,131.7,15.9,131.4z"/>
			<path fill="#F16B66" d="M17.6,130.3c-0.2-0.2-0.4-0.2-0.5-0.4c-0.3-0.5-1.2,0-0.9,0.5c0.3,0.5,0.8,1,1.4,0.6
				C17.8,130.8,17.8,130.5,17.6,130.3z"/>
			<path fill="#F16B66" d="M51.6,114.3c0,0-0.4,4.3,3.1,4.8c3.5,0.4,4.4-4.2,4.4-4.2s-1.6,0-2.7-1c-1.1-1-1.4-2.4-1.4-2.4
				S52.7,114.9,51.6,114.3z"/>
			<path fill="#EF504A" d="M60.9,112c-0.7,1.1-2.3,2.5-3.6,1.6c-1.1-0.7-1.2-2.3-1.3-3.5c0,0,0-0.1,0-0.1c0.1-1.1,0.1-2.3,0-3.1
				c0-0.4-0.7-0.5-0.9-0.1c-0.5,1.6-0.5,3.3-1.1,4.9c-0.4,1.1-1.6,1.6-2.6,1c-0.7-0.4-0.8-1.4-0.7-2.1c0-0.7-0.9-0.9-1.2-0.3
				c-1.1,2.5,0.4,4.9,3.2,4.6c1.3-0.1,2-0.9,2.5-1.9c0.3,0.9,0.8,1.7,1.6,2.2c1.2,0.7,2.3,0.4,3.5-0.2c1.1-0.6,1.5-1.2,1.7-2.4
				C62.1,111.9,61.2,111.5,60.9,112z"/>
		</g>
		<path fill="#FFF350" d="M9.4,149.8c-0.4-1.8-1.1-3.5-1.2-5.3c-0.1-1.6,0.3-3.2,0.1-4.8c-0.1-0.8-1.1-0.8-1.2,0
			c-0.4,3.9-0.8,7.1,1,10.7C8.5,151,9.5,150.5,9.4,149.8z"/>
		<path fill="#FFF350" d="M13.7,146.6c-0.6-0.6-0.8-1.4-0.8-2.3c0.1-0.8-1.1-0.7-1.2,0c-0.1,1.2,0.3,2.3,1.2,3
			C13.5,147.7,14.2,147.1,13.7,146.6z"/>
		<path fill="#FFF350" d="M90.4,150.1c-0.6,3.1-1.9,6-2.6,9c-0.2,0.7,0.7,1,1.1,0.5c1.8-2.6,2.4-6.1,2.8-9.1
			C91.8,149.6,90.5,149.3,90.4,150.1z"/>
		<path fill="#FFF350" d="M95,152c0,1.1-0.3,2.1-0.5,3.2c-0.2,0.6,0.8,1.1,1.1,0.5c0.6-1.2,0.8-2.3,0.9-3.6C96.5,151,95,151,95,152z
			"/>
		<path fill="#FFF350" d="M23.1,198.7c-1-1.5-2-3.1-2.9-4.7c-0.4-0.6-1.3-0.1-1,0.6c0.9,1.7,1.6,3.7,3.2,4.8
			C22.9,199.7,23.4,199.1,23.1,198.7z"/>
		<path fill="#FFF350" d="M25.5,197.4c-0.4-0.8-0.9-1.6-1.2-2.4c-0.3-0.7-1.4-0.1-1.1,0.6c0.4,0.9,0.9,1.6,1.5,2.4
			C25,198.4,25.7,197.9,25.5,197.4z"/>
		<path fill="#FFF350" d="M69.1,200.3c-0.1,1.1-1.3,1.9-1.2,3c0,0.3,0.4,0.6,0.7,0.4c0.5-0.3,0.9-1,1.1-1.5c0.3-0.6,0.5-1.2,0.5-1.9
			C70.3,199.6,69.2,199.6,69.1,200.3z"/>
		<path fill="#FFF350" d="M74.6,201.4c-1.5,2.4-2.8,4.7-4.9,6.6c-0.4,0.4,0.1,1.1,0.6,0.8c2.6-1.3,3.8-4.4,5.2-6.8
			C75.8,201.3,74.9,200.8,74.6,201.4z"/>
	</g>
	<ellipse display="none" fill="#468196" cx="354.7" cy="428.3" rx="29.7" ry="6"/>
</g>
<g id="DESIGNED_BY_FREEPIK">
	<g>
		<g>
			<g>
				<path fill="#FFFFFF" d="M143,455.6v-0.2c-0.2,0.3-0.5,0.5-0.7,0.6c-0.2,0.2-0.5,0.3-0.7,0.4c-0.3,0.1-0.5,0.1-0.8,0.1
					c-0.4,0-0.8-0.1-1.1-0.3c-0.3-0.2-0.6-0.4-0.9-0.7c-0.3-0.3-0.4-0.7-0.6-1.1c-0.1-0.4-0.2-0.9-0.2-1.4c0-1.1,0.3-1.9,0.8-2.5
					c0.5-0.6,1.2-0.9,2-0.9c0.5,0,0.9,0.1,1.2,0.3c0.3,0.2,0.7,0.4,1,0.8v-2.5c0-0.3,0.1-0.6,0.2-0.8c0.1-0.2,0.3-0.3,0.6-0.3
					c0.3,0,0.5,0.1,0.6,0.2c0.1,0.2,0.2,0.4,0.2,0.7v7.5c0,0.3-0.1,0.6-0.2,0.7c-0.1,0.2-0.3,0.2-0.6,0.2c-0.2,0-0.4-0.1-0.6-0.3
					C143.1,456.1,143,455.9,143,455.6z M139.7,453.1c0,0.5,0.1,0.9,0.2,1.2c0.1,0.3,0.3,0.6,0.6,0.7c0.2,0.2,0.5,0.2,0.8,0.2
					c0.3,0,0.6-0.1,0.8-0.2c0.2-0.2,0.4-0.4,0.6-0.7c0.1-0.3,0.2-0.7,0.2-1.2c0-0.5-0.1-0.8-0.2-1.2c-0.1-0.3-0.3-0.6-0.6-0.7
					c-0.3-0.2-0.5-0.3-0.8-0.3c-0.3,0-0.6,0.1-0.8,0.3c-0.2,0.2-0.4,0.4-0.6,0.8C139.7,452.2,139.7,452.6,139.7,453.1z"/>
				<path fill="#FFFFFF" d="M150.5,453.5h-3.3c0,0.4,0.1,0.7,0.2,1c0.2,0.3,0.4,0.5,0.6,0.7c0.3,0.2,0.5,0.2,0.8,0.2
					c0.2,0,0.4,0,0.6-0.1c0.2,0,0.3-0.1,0.5-0.2c0.2-0.1,0.3-0.2,0.4-0.3c0.1-0.1,0.3-0.3,0.5-0.5c0.1-0.1,0.2-0.1,0.4-0.1
					c0.2,0,0.3,0,0.4,0.1c0.1,0.1,0.2,0.2,0.2,0.4c0,0.2-0.1,0.3-0.2,0.5c-0.1,0.2-0.3,0.4-0.5,0.6c-0.2,0.2-0.5,0.3-0.9,0.5
					c-0.4,0.1-0.8,0.2-1.3,0.2c-1.1,0-1.9-0.3-2.5-0.9c-0.6-0.6-0.9-1.5-0.9-2.5c0-0.5,0.1-1,0.2-1.4c0.2-0.4,0.4-0.8,0.7-1.1
					c0.3-0.3,0.6-0.5,1.1-0.7c0.4-0.2,0.9-0.2,1.4-0.2c0.7,0,1.2,0.1,1.7,0.4c0.5,0.3,0.8,0.6,1.1,1.1c0.2,0.4,0.4,0.9,0.4,1.4
					c0,0.4-0.1,0.7-0.4,0.8C151.3,453.4,150.9,453.5,150.5,453.5z M147.2,452.5h3.1c0-0.6-0.2-1-0.5-1.3c-0.3-0.3-0.6-0.4-1.1-0.4
					c-0.4,0-0.8,0.1-1,0.4C147.4,451.5,147.2,452,147.2,452.5z"/>
				<path fill="#FFFFFF" d="M158.2,454.3c0,0.5-0.1,0.9-0.3,1.2c-0.2,0.3-0.6,0.6-1,0.8c-0.4,0.2-1,0.3-1.6,0.3
					c-0.6,0-1.1-0.1-1.6-0.3c-0.4-0.2-0.8-0.4-1-0.7c-0.2-0.3-0.3-0.6-0.3-0.8c0-0.2,0.1-0.3,0.2-0.5c0.1-0.1,0.3-0.2,0.5-0.2
					c0.2,0,0.3,0,0.4,0.1c0.1,0.1,0.2,0.2,0.3,0.4c0.2,0.3,0.4,0.5,0.6,0.7c0.2,0.1,0.6,0.2,1,0.2c0.3,0,0.6-0.1,0.8-0.2
					c0.2-0.2,0.3-0.3,0.3-0.5c0-0.3-0.1-0.5-0.3-0.7c-0.2-0.1-0.6-0.3-1.1-0.4c-0.6-0.1-1.1-0.3-1.4-0.5c-0.4-0.2-0.7-0.4-0.9-0.6
					c-0.2-0.3-0.3-0.6-0.3-1c0-0.3,0.1-0.7,0.3-1c0.2-0.3,0.5-0.5,0.9-0.7c0.4-0.2,0.9-0.3,1.4-0.3c0.4,0,0.8,0,1.2,0.1
					c0.4,0.1,0.6,0.2,0.9,0.4c0.2,0.2,0.4,0.3,0.5,0.5c0.1,0.2,0.2,0.4,0.2,0.5c0,0.2-0.1,0.4-0.2,0.5c-0.1,0.1-0.3,0.2-0.6,0.2
					c-0.2,0-0.3,0-0.4-0.1c-0.1-0.1-0.3-0.2-0.4-0.4c-0.1-0.2-0.3-0.3-0.5-0.4c-0.2-0.1-0.4-0.1-0.7-0.1c-0.3,0-0.6,0.1-0.8,0.2
					c-0.2,0.1-0.3,0.3-0.3,0.5c0,0.2,0.1,0.3,0.2,0.4c0.2,0.1,0.4,0.2,0.6,0.3c0.3,0.1,0.6,0.2,1,0.3c0.5,0.1,1,0.3,1.3,0.5
					c0.3,0.2,0.6,0.4,0.8,0.6C158.1,453.7,158.2,454,158.2,454.3z"/>
				<path fill="#FFFFFF" d="M160,448.8c-0.2,0-0.4-0.1-0.6-0.2c-0.2-0.1-0.3-0.4-0.3-0.6c0-0.2,0.1-0.4,0.3-0.6
					c0.2-0.2,0.4-0.2,0.6-0.2c0.2,0,0.4,0.1,0.6,0.2c0.2,0.1,0.3,0.3,0.3,0.6c0,0.3-0.1,0.5-0.2,0.6
					C160.4,448.8,160.2,448.8,160,448.8z M160.8,450.6v4.9c0,0.3-0.1,0.6-0.2,0.8c-0.2,0.2-0.4,0.3-0.6,0.3c-0.3,0-0.5-0.1-0.6-0.3
					c-0.2-0.2-0.2-0.4-0.2-0.8v-4.9c0-0.3,0.1-0.6,0.2-0.8c0.2-0.2,0.4-0.3,0.6-0.3c0.2,0,0.5,0.1,0.6,0.3
					C160.7,450,160.8,450.3,160.8,450.6z"/>
				<path fill="#FFFFFF" d="M168.2,450.9v4.9c0,0.6-0.1,1-0.2,1.5c-0.1,0.4-0.3,0.7-0.6,1c-0.3,0.3-0.6,0.5-1,0.6
					c-0.4,0.1-1,0.2-1.6,0.2c-0.6,0-1.1-0.1-1.6-0.2c-0.5-0.2-0.8-0.4-1.1-0.6c-0.2-0.3-0.4-0.5-0.4-0.8c0-0.2,0.1-0.4,0.2-0.5
					c0.1-0.1,0.3-0.2,0.5-0.2c0.2,0,0.5,0.1,0.7,0.3c0.1,0.1,0.2,0.2,0.3,0.3c0.1,0.1,0.2,0.2,0.3,0.3c0.1,0.1,0.3,0.1,0.4,0.2
					c0.2,0,0.4,0.1,0.6,0.1c0.4,0,0.8-0.1,1-0.2c0.2-0.1,0.4-0.3,0.5-0.5c0.1-0.2,0.2-0.5,0.2-0.7c0-0.3,0-0.7,0-1.2
					c-0.3,0.4-0.6,0.6-0.9,0.8c-0.3,0.2-0.7,0.3-1.2,0.3c-0.6,0-1.1-0.1-1.5-0.4c-0.4-0.3-0.8-0.7-1-1.2c-0.2-0.5-0.3-1.1-0.3-1.8
					c0-0.5,0.1-1,0.2-1.4c0.1-0.4,0.3-0.8,0.6-1c0.3-0.3,0.6-0.5,0.9-0.6c0.3-0.1,0.7-0.2,1.1-0.2c0.5,0,0.9,0.1,1.2,0.3
					c0.4,0.2,0.7,0.5,1,0.9v-0.2c0-0.3,0.1-0.5,0.2-0.7c0.1-0.2,0.3-0.2,0.6-0.2c0.3,0,0.5,0.1,0.7,0.3
					C168.2,450.2,168.2,450.5,168.2,450.9z M163.3,453c0,0.7,0.2,1.2,0.5,1.6c0.3,0.4,0.7,0.5,1.2,0.5c0.3,0,0.5-0.1,0.8-0.2
					c0.3-0.2,0.5-0.4,0.6-0.7c0.2-0.3,0.2-0.7,0.2-1.1c0-0.7-0.2-1.2-0.5-1.6c-0.3-0.4-0.7-0.6-1.2-0.6c-0.5,0-0.9,0.2-1.2,0.6
					C163.5,451.8,163.3,452.3,163.3,453z"/>
				<path fill="#FFFFFF" d="M170.9,450.6v0.2c0.3-0.4,0.6-0.7,1-0.9c0.4-0.2,0.8-0.3,1.2-0.3c0.4,0,0.8,0.1,1.2,0.3
					c0.4,0.2,0.6,0.5,0.8,0.8c0.1,0.2,0.2,0.4,0.2,0.7c0,0.2,0.1,0.5,0.1,0.9v3.2c0,0.3-0.1,0.6-0.2,0.8c-0.2,0.2-0.4,0.3-0.6,0.3
					c-0.3,0-0.5-0.1-0.6-0.3c-0.2-0.2-0.2-0.4-0.2-0.8v-2.8c0-0.6-0.1-1-0.2-1.3c-0.2-0.3-0.5-0.4-0.9-0.4c-0.3,0-0.6,0.1-0.8,0.3
					c-0.2,0.2-0.4,0.4-0.5,0.7c-0.1,0.3-0.1,0.7-0.1,1.4v2.1c0,0.3-0.1,0.6-0.2,0.8c-0.2,0.2-0.4,0.3-0.6,0.3
					c-0.2,0-0.4-0.1-0.6-0.3c-0.2-0.2-0.2-0.4-0.2-0.8v-4.9c0-0.3,0.1-0.6,0.2-0.7c0.1-0.2,0.3-0.2,0.6-0.2c0.2,0,0.3,0,0.4,0.1
					c0.1,0.1,0.2,0.2,0.3,0.3C170.9,450.2,170.9,450.4,170.9,450.6z"/>
				<path fill="#FFFFFF" d="M181.2,453.5h-3.3c0,0.4,0.1,0.7,0.2,1c0.2,0.3,0.4,0.5,0.6,0.7c0.2,0.2,0.5,0.2,0.8,0.2
					c0.2,0,0.4,0,0.6-0.1c0.2,0,0.3-0.1,0.5-0.2c0.2-0.1,0.3-0.2,0.4-0.3c0.1-0.1,0.3-0.3,0.5-0.5c0.1-0.1,0.2-0.1,0.4-0.1
					c0.2,0,0.3,0,0.4,0.1c0.1,0.1,0.2,0.2,0.2,0.4c0,0.2-0.1,0.3-0.2,0.5c-0.1,0.2-0.3,0.4-0.5,0.6c-0.2,0.2-0.5,0.3-0.9,0.5
					c-0.4,0.1-0.8,0.2-1.3,0.2c-1.1,0-1.9-0.3-2.5-0.9c-0.6-0.6-0.9-1.5-0.9-2.5c0-0.5,0.1-1,0.2-1.4c0.1-0.4,0.4-0.8,0.7-1.1
					c0.3-0.3,0.6-0.5,1.1-0.7c0.4-0.2,0.9-0.2,1.4-0.2c0.7,0,1.2,0.1,1.7,0.4c0.5,0.3,0.8,0.6,1.1,1.1c0.2,0.4,0.4,0.9,0.4,1.4
					c0,0.4-0.1,0.7-0.4,0.8C182,453.4,181.7,453.5,181.2,453.5z M177.9,452.5h3.1c0-0.6-0.2-1-0.5-1.3c-0.3-0.3-0.6-0.4-1.1-0.4
					c-0.4,0-0.8,0.1-1,0.4C178.1,451.5,178,452,177.9,452.5z"/>
				<path fill="#FFFFFF" d="M188.2,455.6v-0.2c-0.2,0.3-0.5,0.5-0.7,0.6c-0.2,0.2-0.5,0.3-0.7,0.4c-0.3,0.1-0.5,0.1-0.8,0.1
					c-0.4,0-0.8-0.1-1.1-0.3c-0.3-0.2-0.6-0.4-0.9-0.7c-0.3-0.3-0.4-0.7-0.6-1.1c-0.1-0.4-0.2-0.9-0.2-1.4c0-1.1,0.3-1.9,0.8-2.5
					c0.5-0.6,1.2-0.9,2-0.9c0.5,0,0.9,0.1,1.2,0.3c0.3,0.2,0.7,0.4,1,0.8v-2.5c0-0.3,0.1-0.6,0.2-0.8c0.1-0.2,0.3-0.3,0.6-0.3
					s0.5,0.1,0.6,0.2c0.1,0.2,0.2,0.4,0.2,0.7v7.5c0,0.3-0.1,0.6-0.2,0.7c-0.1,0.2-0.3,0.2-0.6,0.2c-0.2,0-0.4-0.1-0.6-0.3
					C188.2,456.1,188.2,455.9,188.2,455.6z M184.8,453.1c0,0.5,0.1,0.9,0.2,1.2c0.1,0.3,0.3,0.6,0.6,0.7c0.2,0.2,0.5,0.2,0.8,0.2
					c0.3,0,0.6-0.1,0.8-0.2c0.2-0.2,0.4-0.4,0.6-0.7c0.1-0.3,0.2-0.7,0.2-1.2c0-0.5-0.1-0.8-0.2-1.2c-0.1-0.3-0.3-0.6-0.6-0.7
					c-0.3-0.2-0.5-0.3-0.8-0.3c-0.3,0-0.6,0.1-0.8,0.3c-0.2,0.2-0.4,0.4-0.6,0.8C184.9,452.2,184.8,452.6,184.8,453.1z"/>
				<path fill="#FFFFFF" d="M195.1,448.1v2.6c0.3-0.3,0.6-0.6,1-0.8c0.3-0.2,0.7-0.3,1.2-0.3c0.6,0,1.1,0.1,1.5,0.4
					c0.4,0.3,0.8,0.7,1,1.2c0.2,0.5,0.4,1.1,0.4,1.8c0,0.5-0.1,1-0.2,1.4c-0.1,0.4-0.3,0.8-0.6,1.1c-0.2,0.3-0.5,0.6-0.9,0.7
					c-0.4,0.2-0.7,0.3-1.2,0.3c-0.3,0-0.5,0-0.7-0.1c-0.2-0.1-0.4-0.1-0.6-0.2c-0.2-0.1-0.3-0.2-0.4-0.3c-0.1-0.1-0.3-0.3-0.5-0.5
					v0.2c0,0.3-0.1,0.6-0.2,0.7c-0.2,0.2-0.3,0.2-0.6,0.2c-0.2,0-0.4-0.1-0.6-0.2c-0.1-0.2-0.2-0.4-0.2-0.7v-7.4
					c0-0.3,0.1-0.6,0.2-0.8c0.1-0.2,0.3-0.3,0.6-0.3c0.3,0,0.5,0.1,0.6,0.3C195,447.5,195.1,447.8,195.1,448.1z M195.2,453.1
					c0,0.7,0.2,1.2,0.5,1.6c0.3,0.4,0.7,0.5,1.2,0.5c0.4,0,0.8-0.2,1.1-0.6c0.3-0.4,0.5-0.9,0.5-1.6c0-0.4-0.1-0.8-0.2-1.2
					c-0.1-0.3-0.3-0.6-0.5-0.7c-0.2-0.2-0.5-0.3-0.8-0.3c-0.3,0-0.6,0.1-0.9,0.3c-0.3,0.2-0.5,0.4-0.6,0.8
					C195.2,452.3,195.2,452.6,195.2,453.1z"/>
				<path fill="#FFFFFF" d="M202.3,456.7l0.2-0.4l-2.1-5.3c-0.1-0.3-0.2-0.5-0.2-0.7c0-0.1,0-0.3,0.1-0.4c0.1-0.1,0.2-0.2,0.3-0.3
					c0.1-0.1,0.3-0.1,0.4-0.1c0.2,0,0.4,0.1,0.6,0.2c0.1,0.2,0.2,0.4,0.3,0.7l1.4,4.2l1.4-3.9c0.1-0.3,0.2-0.6,0.3-0.7
					c0.1-0.2,0.2-0.3,0.3-0.4c0.1-0.1,0.2-0.1,0.4-0.1c0.1,0,0.3,0,0.4,0.1c0.1,0.1,0.2,0.2,0.3,0.3c0.1,0.1,0.1,0.2,0.1,0.4
					c0,0.1,0,0.2-0.1,0.3c0,0.1-0.1,0.3-0.1,0.4l-2.2,5.8c-0.2,0.5-0.4,0.9-0.6,1.2c-0.2,0.3-0.4,0.5-0.7,0.7
					c-0.3,0.2-0.7,0.2-1.2,0.2c-0.5,0-0.9-0.1-1.1-0.2c-0.2-0.1-0.4-0.3-0.4-0.6c0-0.2,0.1-0.3,0.2-0.5c0.1-0.1,0.3-0.2,0.5-0.2
					c0.1,0,0.2,0,0.3,0c0.1,0,0.2,0,0.3,0c0.2,0,0.3,0,0.5-0.1c0.1-0.1,0.2-0.2,0.3-0.3C202.1,457.2,202.2,457,202.3,456.7z"/>
			</g>
			<g>
				<path fill="#FFFFFF" d="M226.9,449.8h0.4v-0.5c0-0.5,0.1-1,0.2-1.3c0.1-0.3,0.4-0.5,0.7-0.7c0.3-0.1,0.8-0.2,1.3-0.2
					c1,0,1.5,0.2,1.5,0.7c0,0.2-0.1,0.3-0.2,0.4c-0.1,0.1-0.2,0.2-0.4,0.2c-0.1,0-0.2,0-0.3,0c-0.2,0-0.3,0-0.4,0
					c-0.3,0-0.5,0.1-0.6,0.3c-0.1,0.2-0.1,0.4-0.1,0.8v0.4h0.4c0.6,0,1,0.2,1,0.6c0,0.3-0.1,0.5-0.3,0.5c-0.2,0.1-0.4,0.1-0.7,0.1
					H229v4.5c0,0.3-0.1,0.6-0.2,0.8c-0.2,0.2-0.4,0.3-0.6,0.3c-0.2,0-0.4-0.1-0.6-0.3c-0.2-0.2-0.2-0.4-0.2-0.8V451h-0.5
					c-0.3,0-0.4-0.1-0.6-0.2c-0.1-0.1-0.2-0.3-0.2-0.4C226,450,226.3,449.8,226.9,449.8"/>
				<path fill="#FFFFFF" d="M232.4,454.1v1.4c0,0.3-0.1,0.6-0.2,0.8c-0.2,0.2-0.4,0.3-0.6,0.3c-0.3,0-0.5-0.1-0.6-0.3
					c-0.2-0.2-0.2-0.4-0.2-0.8v-4.7c0-0.8,0.3-1.1,0.8-1.1c0.3,0,0.5,0.1,0.6,0.3c0.1,0.2,0.2,0.4,0.2,0.8c0.2-0.4,0.4-0.6,0.6-0.8
					c0.2-0.2,0.5-0.3,0.9-0.3c0.4,0,0.7,0.1,1,0.3c0.3,0.2,0.5,0.4,0.5,0.7c0,0.2-0.1,0.4-0.2,0.5c-0.1,0.1-0.3,0.2-0.5,0.2
					c-0.1,0-0.2,0-0.5-0.1c-0.2-0.1-0.4-0.1-0.6-0.1c-0.2,0-0.5,0.1-0.6,0.2c-0.2,0.1-0.3,0.3-0.4,0.6c-0.1,0.3-0.1,0.6-0.2,0.9
					C232.5,453.1,232.4,453.6,232.4,454.1"/>
				<path fill="#FFFFFF" d="M240.2,453.5h-3.3c0,0.4,0.1,0.7,0.2,1c0.2,0.3,0.4,0.5,0.6,0.7c0.3,0.2,0.5,0.2,0.8,0.2
					c0.2,0,0.4,0,0.6-0.1c0.2,0,0.3-0.1,0.5-0.2c0.2-0.1,0.3-0.2,0.4-0.3c0.1-0.1,0.3-0.3,0.5-0.5c0.1-0.1,0.2-0.1,0.4-0.1
					c0.2,0,0.3,0,0.4,0.1c0.1,0.1,0.2,0.2,0.2,0.4c0,0.2-0.1,0.3-0.2,0.5c-0.1,0.2-0.3,0.4-0.5,0.6c-0.2,0.2-0.5,0.3-0.9,0.5
					c-0.4,0.1-0.8,0.2-1.3,0.2c-1.1,0-1.9-0.3-2.5-0.9c-0.6-0.6-0.9-1.5-0.9-2.5c0-0.5,0.1-1,0.2-1.4c0.1-0.4,0.4-0.8,0.7-1.1
					c0.3-0.3,0.6-0.5,1.1-0.7c0.4-0.2,0.9-0.2,1.4-0.2c0.7,0,1.2,0.1,1.7,0.4c0.5,0.3,0.8,0.6,1.1,1.1c0.2,0.4,0.4,0.9,0.4,1.4
					c0,0.4-0.1,0.7-0.4,0.8C241,453.4,240.7,453.5,240.2,453.5 M236.9,452.5h3.1c0-0.6-0.2-1-0.5-1.3c-0.3-0.3-0.6-0.4-1.1-0.4
					c-0.4,0-0.8,0.1-1,0.4C237.1,451.5,237,452,236.9,452.5"/>
				<path fill="#FFFFFF" d="M247.3,453.5H244c0,0.4,0.1,0.7,0.2,1c0.2,0.3,0.4,0.5,0.6,0.7c0.3,0.2,0.5,0.2,0.8,0.2
					c0.2,0,0.4,0,0.6-0.1c0.2,0,0.3-0.1,0.5-0.2c0.2-0.1,0.3-0.2,0.4-0.3c0.1-0.1,0.3-0.3,0.5-0.5c0.1-0.1,0.2-0.1,0.4-0.1
					c0.2,0,0.3,0,0.4,0.1c0.1,0.1,0.2,0.2,0.2,0.4c0,0.2-0.1,0.3-0.2,0.5c-0.1,0.2-0.3,0.4-0.5,0.6c-0.2,0.2-0.5,0.3-0.9,0.5
					c-0.4,0.1-0.8,0.2-1.3,0.2c-1.1,0-1.9-0.3-2.5-0.9c-0.6-0.6-0.9-1.5-0.9-2.5c0-0.5,0.1-1,0.2-1.4c0.1-0.4,0.4-0.8,0.7-1.1
					c0.3-0.3,0.6-0.5,1.1-0.7c0.4-0.2,0.9-0.2,1.4-0.2c0.7,0,1.2,0.1,1.7,0.4c0.5,0.3,0.8,0.6,1.1,1.1c0.2,0.4,0.4,0.9,0.4,1.4
					c0,0.4-0.1,0.7-0.4,0.8C248.1,453.4,247.7,453.5,247.3,453.5 M244,452.5h3.1c0-0.6-0.2-1-0.5-1.3c-0.3-0.3-0.6-0.4-1.1-0.4
					c-0.4,0-0.8,0.1-1,0.4C244.2,451.5,244,452,244,452.5"/>
				<path fill="#FFFFFF" d="M251,450.6v0.2c0.3-0.4,0.7-0.7,1-0.9c0.3-0.2,0.7-0.3,1.2-0.3c0.5,0,1,0.1,1.4,0.4
					c0.4,0.3,0.8,0.7,1,1.2c0.3,0.5,0.4,1.1,0.4,1.8c0,0.5-0.1,1-0.2,1.4c-0.1,0.4-0.4,0.8-0.6,1.1c-0.3,0.3-0.6,0.5-0.9,0.7
					c-0.4,0.2-0.7,0.2-1.1,0.2c-0.5,0-0.9-0.1-1.2-0.3c-0.3-0.2-0.6-0.5-0.9-0.9v2.5c0,0.7-0.3,1.1-0.8,1.1c-0.3,0-0.5-0.1-0.6-0.3
					c-0.1-0.2-0.2-0.5-0.2-0.8v-7.3c0-0.3,0.1-0.6,0.2-0.7c0.1-0.2,0.3-0.2,0.6-0.2c0.2,0,0.4,0.1,0.6,0.2
					C250.9,450,251,450.3,251,450.6 M254.3,453c0-0.4-0.1-0.8-0.2-1.2c-0.1-0.3-0.3-0.6-0.6-0.7c-0.2-0.2-0.5-0.3-0.8-0.3
					c-0.5,0-0.9,0.2-1.2,0.6c-0.3,0.4-0.5,0.9-0.5,1.6c0,0.7,0.2,1.2,0.5,1.6c0.3,0.4,0.7,0.6,1.2,0.6c0.3,0,0.5-0.1,0.8-0.2
					c0.2-0.2,0.4-0.4,0.6-0.7C254.3,453.9,254.3,453.5,254.3,453"/>
				<path fill="#FFFFFF" d="M257.8,448.8c-0.2,0-0.4-0.1-0.6-0.2c-0.2-0.1-0.3-0.3-0.3-0.6c0-0.2,0.1-0.4,0.3-0.6
					c0.2-0.2,0.4-0.2,0.6-0.2c0.2,0,0.4,0.1,0.6,0.2c0.2,0.1,0.3,0.3,0.3,0.6c0,0.3-0.1,0.5-0.2,0.6
					C258.2,448.8,258,448.8,257.8,448.8 M258.6,450.6v4.9c0,0.3-0.1,0.6-0.2,0.8c-0.2,0.2-0.4,0.3-0.6,0.3c-0.3,0-0.4-0.1-0.6-0.3
					c-0.2-0.2-0.2-0.4-0.2-0.8v-4.9c0-0.3,0.1-0.6,0.2-0.8c0.2-0.2,0.4-0.3,0.6-0.3c0.2,0,0.5,0.1,0.6,0.3
					C258.5,450,258.6,450.3,258.6,450.6"/>
				<path fill="#FFFFFF" d="M264.1,455.7l-1.5-2.5l-0.9,0.9v1.4c0,0.3-0.1,0.6-0.3,0.8c-0.2,0.2-0.4,0.3-0.6,0.3
					c-0.3,0-0.5-0.1-0.6-0.3c-0.1-0.2-0.2-0.4-0.2-0.8v-7.2c0-0.4,0.1-0.7,0.2-0.9c0.1-0.2,0.4-0.3,0.6-0.3c0.3,0,0.5,0.1,0.6,0.3
					c0.2,0.2,0.2,0.4,0.2,0.8v4.1l1.9-2c0.2-0.2,0.4-0.4,0.5-0.5c0.1-0.1,0.3-0.1,0.5-0.1c0.2,0,0.4,0.1,0.5,0.2
					c0.1,0.1,0.2,0.3,0.2,0.5c0,0.2-0.2,0.6-0.7,1l-0.9,0.8l1.7,2.7c0.1,0.2,0.2,0.4,0.3,0.5c0.1,0.1,0.1,0.2,0.1,0.3
					c0,0.3-0.1,0.5-0.2,0.6c-0.1,0.2-0.3,0.2-0.6,0.2c-0.2,0-0.4-0.1-0.5-0.2C264.4,456.2,264.3,456,264.1,455.7"/>
				<path fill="#FFFFFF" d="M267.8,456.5c-0.3,0-0.5-0.1-0.7-0.3c-0.2-0.2-0.3-0.4-0.3-0.7c0-0.3,0.1-0.5,0.3-0.7
					c0.2-0.2,0.4-0.3,0.7-0.3c0.3,0,0.5,0.1,0.7,0.3c0.2,0.2,0.3,0.4,0.3,0.7c0,0.3-0.1,0.5-0.3,0.7
					C268.2,456.4,268,456.5,267.8,456.5"/>
				<path fill="#FFFFFF" d="M276.2,454.4c0,0.2-0.1,0.4-0.2,0.7c-0.1,0.2-0.3,0.5-0.6,0.7c-0.3,0.2-0.6,0.4-1,0.5
					c-0.4,0.1-0.8,0.2-1.3,0.2c-1.1,0-1.9-0.3-2.5-0.9c-0.6-0.6-0.9-1.4-0.9-2.5c0-0.7,0.1-1.3,0.4-1.8c0.3-0.5,0.7-0.9,1.2-1.2
					c0.5-0.3,1.1-0.4,1.8-0.4c0.4,0,0.8,0.1,1.2,0.2c0.4,0.1,0.7,0.3,0.9,0.5c0.3,0.2,0.4,0.4,0.6,0.6c0.1,0.2,0.2,0.4,0.2,0.6
					s-0.1,0.4-0.2,0.5c-0.2,0.1-0.3,0.2-0.5,0.2c-0.1,0-0.3,0-0.4-0.1c-0.1-0.1-0.2-0.2-0.3-0.4c-0.2-0.3-0.4-0.6-0.7-0.7
					c-0.2-0.2-0.5-0.2-0.9-0.2c-0.5,0-0.9,0.2-1.2,0.6c-0.3,0.4-0.5,0.9-0.5,1.6c0,0.3,0,0.6,0.1,0.9c0.1,0.3,0.2,0.5,0.3,0.7
					c0.2,0.2,0.3,0.3,0.5,0.4c0.2,0.1,0.4,0.1,0.7,0.1c0.3,0,0.6-0.1,0.9-0.2c0.2-0.2,0.5-0.4,0.6-0.7c0.1-0.2,0.2-0.3,0.3-0.4
					c0.1-0.1,0.3-0.2,0.4-0.2c0.2,0,0.4,0.1,0.5,0.2C276.1,454.1,276.2,454.2,276.2,454.4"/>
				<path fill="#FFFFFF" d="M283.5,453.1c0,0.5-0.1,1-0.2,1.4c-0.2,0.4-0.4,0.8-0.7,1.1c-0.3,0.3-0.7,0.5-1.1,0.7
					c-0.4,0.2-0.9,0.2-1.4,0.2c-0.5,0-1-0.1-1.4-0.3c-0.4-0.2-0.8-0.4-1.1-0.7c-0.3-0.3-0.5-0.7-0.7-1.1c-0.1-0.4-0.2-0.9-0.2-1.4
					c0-0.5,0.1-1,0.2-1.4c0.2-0.4,0.4-0.8,0.7-1.1c0.3-0.3,0.6-0.5,1.1-0.7c0.4-0.2,0.9-0.2,1.4-0.2c0.5,0,1,0.1,1.4,0.3
					c0.4,0.2,0.8,0.4,1.1,0.7c0.3,0.3,0.5,0.7,0.7,1.1C283.4,452.1,283.5,452.6,283.5,453.1 M281.8,453.1c0-0.7-0.2-1.2-0.5-1.6
					c-0.3-0.4-0.7-0.6-1.2-0.6c-0.3,0-0.6,0.1-0.9,0.3c-0.3,0.2-0.4,0.4-0.6,0.8c-0.1,0.3-0.2,0.7-0.2,1.2c0,0.4,0.1,0.8,0.2,1.2
					c0.1,0.3,0.3,0.6,0.6,0.8c0.3,0.2,0.5,0.3,0.9,0.3c0.5,0,0.9-0.2,1.2-0.6C281.7,454.3,281.8,453.8,281.8,453.1"/>
				<path fill="#FFFFFF" d="M290,453.2v2.3c0,0.4-0.1,0.6-0.2,0.8c-0.2,0.2-0.4,0.3-0.6,0.3c-0.3,0-0.5-0.1-0.6-0.3
					c-0.2-0.2-0.2-0.4-0.2-0.8v-2.7c0-0.4,0-0.8,0-1c0-0.2-0.1-0.4-0.2-0.6c-0.1-0.2-0.3-0.2-0.6-0.2c-0.6,0-0.9,0.2-1.1,0.6
					c-0.2,0.4-0.3,0.9-0.3,1.6v2.3c0,0.4-0.1,0.6-0.2,0.8c-0.2,0.2-0.4,0.3-0.6,0.3c-0.3,0-0.5-0.1-0.6-0.3
					c-0.2-0.2-0.2-0.4-0.2-0.8v-4.9c0-0.3,0.1-0.6,0.2-0.7c0.1-0.2,0.3-0.3,0.6-0.3c0.2,0,0.4,0.1,0.6,0.2c0.2,0.2,0.2,0.4,0.2,0.6
					v0.2c0.3-0.4,0.6-0.6,0.9-0.8c0.3-0.2,0.7-0.3,1.1-0.3c0.4,0,0.8,0.1,1.1,0.3c0.3,0.2,0.6,0.4,0.8,0.8c0.3-0.3,0.6-0.6,0.9-0.8
					c0.3-0.2,0.7-0.3,1.1-0.3c0.5,0,0.9,0.1,1.2,0.3c0.3,0.2,0.6,0.4,0.8,0.8c0.1,0.3,0.2,0.8,0.2,1.5v3.3c0,0.4-0.1,0.6-0.2,0.8
					c-0.2,0.2-0.4,0.3-0.6,0.3c-0.3,0-0.5-0.1-0.6-0.3c-0.2-0.2-0.2-0.4-0.2-0.8v-2.9c0-0.4,0-0.7,0-0.9c0-0.2-0.1-0.4-0.2-0.6
					c-0.1-0.2-0.3-0.2-0.6-0.2c-0.2,0-0.4,0.1-0.6,0.2c-0.2,0.1-0.4,0.3-0.5,0.5C290.1,452,290,452.5,290,453.2"/>
			</g>
			<g>
				<path fill="#FFFFFF" d="M211,452.7C211,452.7,211,452.7,211,452.7C211,452.7,211,452.7,211,452.7z"/>
				<path fill="#FFFFFF" d="M211.1,453.2C211.1,453.2,211.1,453.2,211.1,453.2c0-0.2-0.1-0.3-0.1-0.5
					C211,452.9,211.1,453,211.1,453.2z"/>
				<path fill="#FFFFFF" d="M211.7,454.8C211.7,454.8,211.7,454.8,211.7,454.8C211.7,454.8,211.7,454.8,211.7,454.8z"/>
				<path fill="#FFFFFF" d="M211.6,454.7C211.6,454.6,211.6,454.6,211.6,454.7C211.6,454.6,211.6,454.6,211.6,454.7z"/>
				<path fill="#FFFFFF" d="M211.3,453.8c0.1,0.3,0.2,0.5,0.3,0.8C211.4,454.3,211.3,454.1,211.3,453.8
					C211.3,453.8,211.3,453.8,211.3,453.8z"/>
				<path fill="#FFFFFF" d="M217.6,446.2c0.3,0,0.6,0,0.8,0.1l0.1-0.5c0,0-0.8-0.2-1.8-0.2l-0.1-0.3c0.3-0.1,0.5-0.3,0.5-0.7
					c0-0.4-0.3-0.7-0.7-0.7c-0.4,0-0.7,0.3-0.7,0.7c0,0.3,0.2,0.6,0.5,0.7l0.1,0.3c-1.1,0.1-1.9,0.6-1.9,0.6l0.2,0.5
					c0.6-0.2,1.2-0.3,1.7-0.4C216.9,446.2,217.3,446.2,217.6,446.2z"/>
				<path fill="#FFFFFF" d="M211.7,448.7L211.7,448.7C211.7,448.6,211.7,448.6,211.7,448.7l-0.1-0.2l-0.3-0.2c0,0-0.5,0.5-0.9,1.3
					c0,0,0-0.1-0.1-0.1c-0.1-0.1-0.3-0.2-0.5-0.2c0,0,0,0,0,0c-0.1,0-0.2,0-0.3-0.1c0.1-0.1,0.1-0.2,0.1-0.3c0-0.2-0.2-0.4-0.4-0.4
					c-0.2,0-0.4,0.2-0.4,0.4c0,0.2,0.2,0.4,0.4,0.4c0,0,0.1,0,0.1,0c0.1,0.1,0.3,0.2,0.5,0.2c0.1,0,0.2,0,0.3,0.1
					c0.1,0.1,0.1,0.2,0.1,0.3c0,0,0,0,0,0c-0.3,0.8-0.2,1.7-0.2,1.7l0.7,0c0-0.4,0.1-1,0.2-1.5C211.2,449.3,211.6,448.7,211.7,448.7
					z"/>
				<path fill="#FFFFFF" d="M223.6,446.7c-0.2,0-0.4,0.2-0.4,0.4c0,0,0,0.1,0,0.1c-0.1,0.1-0.2,0.3-0.2,0.5c0,0.1,0,0.2-0.1,0.3
					c-0.1,0.1-0.1,0.1-0.2,0.1c-0.5-0.7-1.1-1.2-1.1-1.2l-0.5,0.5c0.4,0.3,0.8,0.8,1.1,1.3c0.3,0.4,0.5,0.8,0.7,1.3l0.7-0.3
					c0,0-0.3-0.8-0.7-1.4c0.1,0,0.2-0.1,0.2-0.1c0.1-0.1,0.2-0.3,0.2-0.5c0-0.1,0-0.2,0.1-0.3c0.1,0.1,0.2,0.1,0.3,0.1
					c0.2,0,0.4-0.2,0.4-0.4S223.8,446.7,223.6,446.7z"/>
				<path fill="#FFFFFF" d="M221.9,452.8c-0.9,0.4-2.4,1-4.4,1.3c-0.8,0.1-1.5,0.1-2.2,0.1c-0.9,0-1.7-0.1-2.3-0.1
					c-0.7-0.1-1.3-0.2-1.6-0.3c0.1,0.3,0.2,0.5,0.3,0.8c0,0,0,0,0,0c0,0,0,0.1,0,0.1c0,0,0,0.1,0,0.1c0,0,0,0,0,0
					c0.2,0.4,0.4,0.7,0.7,1c0.9,1,1.9,1.2,1.9,1.2l0,0l0,0c0,0,0.9,0.3,2.2,0.3c1.3,0,2.5-0.3,3.7-0.8c0.9-0.5,1.7-1.1,2.1-1.7
					c0.3-0.5,0.6-1,0.7-1.5c0.1-0.3,0.1-0.7,0.1-1.2C222.8,452.2,222.4,452.5,221.9,452.8z"/>
				<path fill="#FFFFFF" d="M211.9,448.9c0,0-0.4,0.6-0.7,1.5C211,451,211,452,211,452v0c0,0.2,0,0.4,0,0.7c0,0,0,0,0,0
					c0,0,0,0.1,0,0.1c0,0.2,0,0.3,0.1,0.5c0.5,0.1,3.2,0.8,6.2,0.3c1.9-0.3,3.4-0.8,4.3-1.3c0.7-0.4,1.2-0.7,1.4-0.8
					c-0.2-0.7-0.7-1.7-1.1-2.4c-1.3-1.9-2.7-2.4-3.5-2.5c-0.3,0-0.5-0.1-0.8-0.1c-0.3,0-0.7,0-1.1,0.1c-0.5,0.1-1,0.2-1.7,0.4
					c-0.9,0.3-1.7,0.8-2.3,1.3l0,0C212.4,448.4,212.2,448.6,211.9,448.9z M220,448.5c0.6,0,1.1,0.5,1.1,1.1c0,0.6-0.5,1.1-1.1,1.1
					c-0.6,0-1.1-0.5-1.1-1.1C218.8,449,219.3,448.5,220,448.5z M214.6,448.4c1,0,1.8,0.8,1.8,1.8c0,1-0.8,1.8-1.8,1.8
					c-1,0-1.8-0.8-1.8-1.8C212.7,449.2,213.6,448.4,214.6,448.4z"/>
			</g>
		</g>
	</g>
</g>
</svg>
